<svg width="148" height="148" viewBox="0 0 148 148" fill="none" xmlns="http://www.w3.org/2000/svg">
<path d="M73.965 139.274C37.896 139.274 8.655 110.035 8.655 73.965C8.655 37.895 37.895 8.655 73.965 8.655C110.035 8.655 139.274 37.895 139.274 73.965C139.274 110.035 110.034 139.274 73.965 139.274ZM73.965 0C33.115 0 0 33.115 0 73.965C0 114.815 33.115 147.93 73.965 147.93C114.815 147.93 147.93 114.815 147.93 73.965C147.93 33.115 114.814 0 73.965 0Z" fill="#CCB57C" fill-opacity="0.5"/>
<path d="M73.965 124.928C45.819 124.928 23.002 102.111 23.002 73.965C23.002 45.819 45.818 23.002 73.965 23.002C102.111 23.002 124.928 45.819 124.928 73.965C124.928 102.111 102.11 124.928 73.965 124.928ZM73.965 14.688C41.227 14.688 14.688 41.227 14.688 73.965C14.688 106.702 41.227 133.241 73.965 133.241C106.702 133.241 133.241 106.702 133.241 73.965C133.241 41.227 106.702 14.688 73.965 14.688Z" fill="#CCB57C" fill-opacity="0.5"/>
<path d="M73.965 110.581C53.742 110.581 37.349 94.187 37.349 73.965C37.349 53.743 53.743 37.348 73.965 37.348C94.187 37.348 110.581 53.742 110.581 73.965C110.581 94.188 94.187 110.581 73.965 110.581ZM73.965 29.376C49.339 29.376 29.376 49.339 29.376 73.965C29.376 98.59 49.339 118.554 73.965 118.554C98.59 118.554 118.553 98.59 118.553 73.965C118.553 49.339 98.59 29.376 73.965 29.376Z" fill="#CCB57C" fill-opacity="0.5"/>
<path d="M73.965 96.235C61.665 96.235 51.694 86.264 51.694 73.965C51.694 61.665 61.665 51.695 73.965 51.695C86.264 51.695 96.235 61.665 96.235 73.965C96.234 86.264 86.264 96.235 73.965 96.235ZM73.965 44.064C57.451 44.064 44.064 57.451 44.064 73.965C44.064 90.479 57.452 103.865 73.965 103.865C90.478 103.865 103.865 90.478 103.865 73.965C103.865 57.452 90.478 44.064 73.965 44.064Z" fill="#CCB57C" fill-opacity="0.5"/>
<path d="M73.965 81.0268C70.065 81.0268 66.902 77.8658 66.902 73.9648C66.902 70.0638 70.064 66.9018 73.965 66.9018C77.866 66.9018 81.027 70.0638 81.027 73.9648C81.027 77.8658 77.865 81.0268 73.965 81.0268ZM73.965 60.0488C66.279 60.0488 60.049 66.2788 60.049 73.9648C60.049 81.6508 66.279 87.8798 73.965 87.8798C81.65 87.8798 87.88 81.6508 87.88 73.9648C87.88 66.2788 81.649 60.0488 73.965 60.0488Z" fill="#CCB57C" fill-opacity="0.5"/>
</svg>
