<svg width="114" height="114" viewBox="0 0 114 114" fill="none" xmlns="http://www.w3.org/2000/svg">
<path d="M16.474 16.475C11.71 21.239 7.97102 26.637 5.24902 32.398L32.396 5.25098C26.636 7.97198 21.237 11.711 16.474 16.475Z" fill="#CCB57C"/>
<path d="M46.405 0.748016L0.746979 46.406C0.417979 48.205 0.175982 50.015 0.0189819 51.833L51.832 0.0200195C50.014 0.17602 48.204 0.418016 46.405 0.748016Z" fill="#CCB57C"/>
<path d="M61.356 0L0 61.356C0.114 62.76 0.281 64.162 0.5 65.556L65.557 0.499023C64.162 0.282023 62.76 0.116 61.356 0Z" fill="#CCB57C"/>
<path d="M73.291 2.26904L2.26801 73.2921C2.62601 74.4721 3.02102 75.644 3.45702 76.803L76.802 3.45804C75.643 3.02204 74.471 2.62704 73.291 2.26904Z" fill="#CCB57C"/>
<path d="M83.351 6.41504L6.41296 83.3531C6.94896 84.3641 7.51896 85.3611 8.11996 86.3441L86.342 8.12305C85.359 7.52105 84.362 6.95104 83.351 6.41504Z" fill="#CCB57C"/>
<path d="M91.943 12.0269L12.026 91.9449C12.712 92.8119 13.425 93.6648 14.17 94.4998L94.499 14.1709C93.664 13.4259 92.811 12.7119 91.943 12.0269Z" fill="#CCB57C"/>
<path d="M99.251 18.9219L18.921 99.2519C19.757 99.9949 20.609 100.71 21.477 101.396L101.395 21.4779C100.709 20.6109 99.995 19.7579 99.251 18.9219Z" fill="#CCB57C"/>
<path d="M105.299 27.0791L27.077 105.301C28.061 105.903 29.058 106.473 30.069 107.009L107.006 30.0711C106.471 29.0601 105.901 28.0631 105.299 27.0791Z" fill="#CCB57C"/>
<path d="M109.962 36.6201L36.618 109.965C37.777 110.402 38.948 110.795 40.128 111.153L111.151 40.1311C110.793 38.9501 110.4 37.7791 109.962 36.6201Z" fill="#CCB57C"/>
<path d="M112.921 47.8662L47.864 112.923C49.259 113.142 50.659 113.308 52.064 113.422L113.419 52.0672C113.306 50.6612 113.14 49.2602 112.921 47.8662Z" fill="#CCB57C"/>
<path d="M113.401 61.5898L61.589 113.402C63.406 113.247 65.217 113.005 67.016 112.675L112.673 67.0168C113.003 65.2178 113.246 63.4078 113.401 61.5898Z" fill="#CCB57C"/>
<path d="M81.024 108.172C86.784 105.45 92.183 101.711 96.947 96.9469C101.711 92.1829 105.45 86.7849 108.172 81.0239L81.024 108.172Z" fill="#CCB57C"/>
</svg>
