<svg width="152" height="155" viewBox="0 0 152 155" fill="none" xmlns="http://www.w3.org/2000/svg">
<path d="M65.754 0.628906C64.385 0.803906 63.026 1.01691 61.681 1.26291C62.147 1.71591 62.782 1.99591 63.483 1.99591C64.468 1.99591 65.315 1.43891 65.754 0.628906Z" fill="#CCB57C"/>
<path d="M75.66 1.996C76.869 1.996 77.877 1.16401 78.164 0.0440063C77.332 0.0180063 76.498 0 75.66 0C74.822 0 73.988 0.0180063 73.156 0.0440063C73.443 1.16501 74.45 1.996 75.66 1.996Z" fill="#CCB57C"/>
<path d="M87.838 1.99591C88.539 1.99591 89.173 1.71491 89.64 1.26291C88.293 1.01691 86.936 0.803906 85.566 0.628906C86.004 1.43891 86.851 1.99591 87.838 1.99591Z" fill="#CCB57C"/>
<path d="M39.127 14.9909C40.5591 14.9909 41.72 13.83 41.72 12.3979C41.72 10.9658 40.5591 9.80493 39.127 9.80493C37.6949 9.80493 36.534 10.9658 36.534 12.3979C36.534 13.83 37.6949 14.9909 39.127 14.9909Z" fill="#CCB57C"/>
<path d="M51.304 14.9909C52.7361 14.9909 53.897 13.83 53.897 12.3979C53.897 10.9658 52.7361 9.80493 51.304 9.80493C49.8719 9.80493 48.711 10.9658 48.711 12.3979C48.711 13.83 49.8719 14.9909 51.304 14.9909Z" fill="#CCB57C"/>
<path d="M63.482 14.9909C64.9141 14.9909 66.075 13.83 66.075 12.3979C66.075 10.9658 64.9141 9.80493 63.482 9.80493C62.0499 9.80493 60.889 10.9658 60.889 12.3979C60.889 13.83 62.0499 14.9909 63.482 14.9909Z" fill="#CCB57C"/>
<path d="M75.66 14.9909C77.0921 14.9909 78.253 13.83 78.253 12.3979C78.253 10.9658 77.0921 9.80493 75.66 9.80493C74.2279 9.80493 73.067 10.9658 73.067 12.3979C73.067 13.83 74.2279 14.9909 75.66 14.9909Z" fill="#CCB57C"/>
<path d="M87.838 14.9909C89.2701 14.9909 90.431 13.83 90.431 12.3979C90.431 10.9658 89.2701 9.80493 87.838 9.80493C86.4059 9.80493 85.245 10.9658 85.245 12.3979C85.245 13.83 86.4059 14.9909 87.838 14.9909Z" fill="#CCB57C"/>
<path d="M100.015 14.9909C101.447 14.9909 102.608 13.83 102.608 12.3979C102.608 10.9658 101.447 9.80493 100.015 9.80493C98.5829 9.80493 97.422 10.9658 97.422 12.3979C97.422 13.83 98.5829 14.9909 100.015 14.9909Z" fill="#CCB57C"/>
<path d="M112.193 14.9909C113.625 14.9909 114.786 13.83 114.786 12.3979C114.786 10.9658 113.625 9.80493 112.193 9.80493C110.761 9.80493 109.6 10.9658 109.6 12.3979C109.6 13.83 110.761 14.9909 112.193 14.9909Z" fill="#CCB57C"/>
<path d="M26.949 27.9851C28.3811 27.9851 29.542 26.8242 29.542 25.3921C29.542 23.96 28.3811 22.7991 26.949 22.7991C25.5169 22.7991 24.356 23.96 24.356 25.3921C24.356 26.8242 25.5169 27.9851 26.949 27.9851Z" fill="#CCB57C"/>
<path d="M39.127 27.9851C40.5591 27.9851 41.72 26.8242 41.72 25.3921C41.72 23.96 40.5591 22.7991 39.127 22.7991C37.6949 22.7991 36.534 23.96 36.534 25.3921C36.534 26.8242 37.6949 27.9851 39.127 27.9851Z" fill="#CCB57C"/>
<path d="M51.304 27.9851C52.7361 27.9851 53.897 26.8242 53.897 25.3921C53.897 23.96 52.7361 22.7991 51.304 22.7991C49.8719 22.7991 48.711 23.96 48.711 25.3921C48.711 26.8242 49.8719 27.9851 51.304 27.9851Z" fill="#CCB57C"/>
<path d="M63.482 27.9851C64.9141 27.9851 66.075 26.8242 66.075 25.3921C66.075 23.96 64.9141 22.7991 63.482 22.7991C62.0499 22.7991 60.889 23.96 60.889 25.3921C60.889 26.8242 62.0499 27.9851 63.482 27.9851Z" fill="#CCB57C"/>
<path d="M75.66 27.9851C77.0921 27.9851 78.253 26.8242 78.253 25.3921C78.253 23.96 77.0921 22.7991 75.66 22.7991C74.2279 22.7991 73.067 23.96 73.067 25.3921C73.067 26.8242 74.2279 27.9851 75.66 27.9851Z" fill="#CCB57C"/>
<path d="M87.838 27.9851C89.2701 27.9851 90.431 26.8242 90.431 25.3921C90.431 23.96 89.2701 22.7991 87.838 22.7991C86.4059 22.7991 85.245 23.96 85.245 25.3921C85.245 26.8242 86.4059 27.9851 87.838 27.9851Z" fill="#CCB57C"/>
<path d="M100.015 27.9851C101.447 27.9851 102.608 26.8242 102.608 25.3921C102.608 23.96 101.447 22.7991 100.015 22.7991C98.5829 22.7991 97.422 23.96 97.422 25.3921C97.422 26.8242 98.5829 27.9851 100.015 27.9851Z" fill="#CCB57C"/>
<path d="M112.193 27.9851C113.625 27.9851 114.786 26.8242 114.786 25.3921C114.786 23.96 113.625 22.7991 112.193 22.7991C110.761 22.7991 109.6 23.96 109.6 25.3921C109.6 26.8242 110.761 27.9851 112.193 27.9851Z" fill="#CCB57C"/>
<path d="M124.371 27.9851C125.803 27.9851 126.964 26.8242 126.964 25.3921C126.964 23.96 125.803 22.7991 124.371 22.7991C122.939 22.7991 121.778 23.96 121.778 25.3921C121.778 26.8242 122.939 27.9851 124.371 27.9851Z" fill="#CCB57C"/>
<path d="M14.771 40.9789C16.2031 40.9789 17.364 39.818 17.364 38.386C17.364 36.9539 16.2031 35.793 14.771 35.793C13.3389 35.793 12.178 36.9539 12.178 38.386C12.178 39.818 13.3389 40.9789 14.771 40.9789Z" fill="#CCB57C"/>
<path d="M26.949 40.9789C28.3811 40.9789 29.542 39.818 29.542 38.386C29.542 36.9539 28.3811 35.793 26.949 35.793C25.5169 35.793 24.356 36.9539 24.356 38.386C24.356 39.818 25.5169 40.9789 26.949 40.9789Z" fill="#CCB57C"/>
<path d="M39.127 40.9789C40.5591 40.9789 41.72 39.818 41.72 38.386C41.72 36.9539 40.5591 35.793 39.127 35.793C37.6949 35.793 36.534 36.9539 36.534 38.386C36.534 39.818 37.6949 40.9789 39.127 40.9789Z" fill="#CCB57C"/>
<path d="M51.304 40.9789C52.7361 40.9789 53.897 39.818 53.897 38.386C53.897 36.9539 52.7361 35.793 51.304 35.793C49.8719 35.793 48.711 36.9539 48.711 38.386C48.711 39.818 49.8719 40.9789 51.304 40.9789Z" fill="#CCB57C"/>
<path d="M63.482 40.9789C64.9141 40.9789 66.075 39.818 66.075 38.386C66.075 36.9539 64.9141 35.793 63.482 35.793C62.0499 35.793 60.889 36.9539 60.889 38.386C60.889 39.818 62.0499 40.9789 63.482 40.9789Z" fill="#CCB57C"/>
<path d="M75.66 40.9789C77.0921 40.9789 78.253 39.818 78.253 38.386C78.253 36.9539 77.0921 35.793 75.66 35.793C74.2279 35.793 73.067 36.9539 73.067 38.386C73.067 39.818 74.2279 40.9789 75.66 40.9789Z" fill="#CCB57C"/>
<path d="M87.838 40.9789C89.2701 40.9789 90.431 39.818 90.431 38.386C90.431 36.9539 89.2701 35.793 87.838 35.793C86.4059 35.793 85.245 36.9539 85.245 38.386C85.245 39.818 86.4059 40.9789 87.838 40.9789Z" fill="#CCB57C"/>
<path d="M100.015 40.9789C101.447 40.9789 102.608 39.818 102.608 38.386C102.608 36.9539 101.447 35.793 100.015 35.793C98.5829 35.793 97.422 36.9539 97.422 38.386C97.422 39.818 98.5829 40.9789 100.015 40.9789Z" fill="#CCB57C"/>
<path d="M112.193 40.9789C113.625 40.9789 114.786 39.818 114.786 38.386C114.786 36.9539 113.625 35.793 112.193 35.793C110.761 35.793 109.6 36.9539 109.6 38.386C109.6 39.818 110.761 40.9789 112.193 40.9789Z" fill="#CCB57C"/>
<path d="M124.371 40.9789C125.803 40.9789 126.964 39.818 126.964 38.386C126.964 36.9539 125.803 35.793 124.371 35.793C122.939 35.793 121.778 36.9539 121.778 38.386C121.778 39.818 122.939 40.9789 124.371 40.9789Z" fill="#CCB57C"/>
<path d="M136.548 40.9789C137.98 40.9789 139.141 39.818 139.141 38.386C139.141 36.9539 137.98 35.793 136.548 35.793C135.116 35.793 133.955 36.9539 133.955 38.386C133.955 39.818 135.116 40.9789 136.548 40.9789Z" fill="#CCB57C"/>
<path d="M5.18701 51.3801C5.18701 50.3251 4.55399 49.4221 3.64999 49.0171C3.02299 50.6111 2.44999 52.2321 1.92599 53.8751C2.14099 53.9331 2.36202 53.9731 2.59302 53.9731C4.02602 53.9731 5.18701 52.8121 5.18701 51.3801Z" fill="#CCB57C"/>
<path d="M14.771 53.9731C16.2031 53.9731 17.364 52.8122 17.364 51.3801C17.364 49.948 16.2031 48.7871 14.771 48.7871C13.3389 48.7871 12.178 49.948 12.178 51.3801C12.178 52.8122 13.3389 53.9731 14.771 53.9731Z" fill="#CCB57C"/>
<path d="M26.949 53.9731C28.3811 53.9731 29.542 52.8122 29.542 51.3801C29.542 49.948 28.3811 48.7871 26.949 48.7871C25.5169 48.7871 24.356 49.948 24.356 51.3801C24.356 52.8122 25.5169 53.9731 26.949 53.9731Z" fill="#CCB57C"/>
<path d="M39.127 53.9731C40.5591 53.9731 41.72 52.8122 41.72 51.3801C41.72 49.948 40.5591 48.7871 39.127 48.7871C37.6949 48.7871 36.534 49.948 36.534 51.3801C36.534 52.8122 37.6949 53.9731 39.127 53.9731Z" fill="#CCB57C"/>
<path d="M51.304 53.9731C52.7361 53.9731 53.897 52.8122 53.897 51.3801C53.897 49.948 52.7361 48.7871 51.304 48.7871C49.8719 48.7871 48.711 49.948 48.711 51.3801C48.711 52.8122 49.8719 53.9731 51.304 53.9731Z" fill="#CCB57C"/>
<path d="M63.482 53.9731C64.9141 53.9731 66.075 52.8122 66.075 51.3801C66.075 49.948 64.9141 48.7871 63.482 48.7871C62.0499 48.7871 60.889 49.948 60.889 51.3801C60.889 52.8122 62.0499 53.9731 63.482 53.9731Z" fill="#CCB57C"/>
<path d="M75.66 53.9731C77.0921 53.9731 78.253 52.8122 78.253 51.3801C78.253 49.948 77.0921 48.7871 75.66 48.7871C74.2279 48.7871 73.067 49.948 73.067 51.3801C73.067 52.8122 74.2279 53.9731 75.66 53.9731Z" fill="#CCB57C"/>
<path d="M87.838 53.9731C89.2701 53.9731 90.431 52.8122 90.431 51.3801C90.431 49.948 89.2701 48.7871 87.838 48.7871C86.4059 48.7871 85.245 49.948 85.245 51.3801C85.245 52.8122 86.4059 53.9731 87.838 53.9731Z" fill="#CCB57C"/>
<path d="M100.015 53.9731C101.447 53.9731 102.608 52.8122 102.608 51.3801C102.608 49.948 101.447 48.7871 100.015 48.7871C98.5829 48.7871 97.422 49.948 97.422 51.3801C97.422 52.8122 98.5829 53.9731 100.015 53.9731Z" fill="#CCB57C"/>
<path d="M112.193 53.9731C113.625 53.9731 114.786 52.8122 114.786 51.3801C114.786 49.948 113.625 48.7871 112.193 48.7871C110.761 48.7871 109.6 49.948 109.6 51.3801C109.6 52.8122 110.761 53.9731 112.193 53.9731Z" fill="#CCB57C"/>
<path d="M124.371 53.9731C125.803 53.9731 126.964 52.8122 126.964 51.3801C126.964 49.948 125.803 48.7871 124.371 48.7871C122.939 48.7871 121.778 49.948 121.778 51.3801C121.778 52.8122 122.939 53.9731 124.371 53.9731Z" fill="#CCB57C"/>
<path d="M136.548 53.9731C137.98 53.9731 139.141 52.8122 139.141 51.3801C139.141 49.948 137.98 48.7871 136.548 48.7871C135.116 48.7871 133.955 49.948 133.955 51.3801C133.955 52.8122 135.116 53.9731 136.548 53.9731Z" fill="#CCB57C"/>
<path d="M146.132 51.3801C146.132 52.8121 147.293 53.9731 148.725 53.9731C148.957 53.9731 149.178 53.9331 149.392 53.8751C148.869 52.2311 148.296 50.6101 147.668 49.0171C146.764 49.4221 146.132 50.3261 146.132 51.3801Z" fill="#CCB57C"/>
<path d="M2.59302 66.968C4.02509 66.968 5.186 65.8071 5.186 64.375C5.186 62.9429 4.02509 61.782 2.59302 61.782C1.16094 61.782 0 62.9429 0 64.375C0 65.8071 1.16094 66.968 2.59302 66.968Z" fill="#CCB57C"/>
<path d="M14.771 66.968C16.2031 66.968 17.364 65.8071 17.364 64.375C17.364 62.9429 16.2031 61.782 14.771 61.782C13.3389 61.782 12.178 62.9429 12.178 64.375C12.178 65.8071 13.3389 66.968 14.771 66.968Z" fill="#CCB57C"/>
<path d="M26.949 66.968C28.3811 66.968 29.542 65.8071 29.542 64.375C29.542 62.9429 28.3811 61.782 26.949 61.782C25.5169 61.782 24.356 62.9429 24.356 64.375C24.356 65.8071 25.5169 66.968 26.949 66.968Z" fill="#CCB57C"/>
<path d="M39.127 66.968C40.5591 66.968 41.72 65.8071 41.72 64.375C41.72 62.9429 40.5591 61.782 39.127 61.782C37.6949 61.782 36.534 62.9429 36.534 64.375C36.534 65.8071 37.6949 66.968 39.127 66.968Z" fill="#CCB57C"/>
<path d="M51.304 66.968C52.7361 66.968 53.897 65.8071 53.897 64.375C53.897 62.9429 52.7361 61.782 51.304 61.782C49.8719 61.782 48.711 62.9429 48.711 64.375C48.711 65.8071 49.8719 66.968 51.304 66.968Z" fill="#CCB57C"/>
<path d="M63.482 66.968C64.9141 66.968 66.075 65.8071 66.075 64.375C66.075 62.9429 64.9141 61.782 63.482 61.782C62.0499 61.782 60.889 62.9429 60.889 64.375C60.889 65.8071 62.0499 66.968 63.482 66.968Z" fill="#CCB57C"/>
<path d="M75.66 66.968C77.0921 66.968 78.253 65.8071 78.253 64.375C78.253 62.9429 77.0921 61.782 75.66 61.782C74.2279 61.782 73.067 62.9429 73.067 64.375C73.067 65.8071 74.2279 66.968 75.66 66.968Z" fill="#CCB57C"/>
<path d="M87.838 66.968C89.2701 66.968 90.431 65.8071 90.431 64.375C90.431 62.9429 89.2701 61.782 87.838 61.782C86.4059 61.782 85.245 62.9429 85.245 64.375C85.245 65.8071 86.4059 66.968 87.838 66.968Z" fill="#CCB57C"/>
<path d="M100.015 66.968C101.447 66.968 102.608 65.8071 102.608 64.375C102.608 62.9429 101.447 61.782 100.015 61.782C98.5829 61.782 97.422 62.9429 97.422 64.375C97.422 65.8071 98.5829 66.968 100.015 66.968Z" fill="#CCB57C"/>
<path d="M112.193 66.968C113.625 66.968 114.786 65.8071 114.786 64.375C114.786 62.9429 113.625 61.782 112.193 61.782C110.761 61.782 109.6 62.9429 109.6 64.375C109.6 65.8071 110.761 66.968 112.193 66.968Z" fill="#CCB57C"/>
<path d="M124.371 66.968C125.803 66.968 126.964 65.8071 126.964 64.375C126.964 62.9429 125.803 61.782 124.371 61.782C122.939 61.782 121.778 62.9429 121.778 64.375C121.778 65.8071 122.939 66.968 124.371 66.968Z" fill="#CCB57C"/>
<path d="M136.548 66.968C137.98 66.968 139.141 65.8071 139.141 64.375C139.141 62.9429 137.98 61.782 136.548 61.782C135.116 61.782 133.955 62.9429 133.955 64.375C133.955 65.8071 135.116 66.968 136.548 66.968Z" fill="#CCB57C"/>
<path d="M148.725 66.968C150.157 66.968 151.318 65.8071 151.318 64.375C151.318 62.9429 150.157 61.782 148.725 61.782C147.293 61.782 146.132 62.9429 146.132 64.375C146.132 65.8071 147.293 66.968 148.725 66.968Z" fill="#CCB57C"/>
<path d="M2.59302 79.9621C4.02509 79.9621 5.186 78.8012 5.186 77.3691C5.186 75.937 4.02509 74.7761 2.59302 74.7761C1.16094 74.7761 0 75.937 0 77.3691C0 78.8012 1.16094 79.9621 2.59302 79.9621Z" fill="#CCB57C"/>
<path d="M14.771 79.9621C16.2031 79.9621 17.364 78.8012 17.364 77.3691C17.364 75.937 16.2031 74.7761 14.771 74.7761C13.3389 74.7761 12.178 75.937 12.178 77.3691C12.178 78.8012 13.3389 79.9621 14.771 79.9621Z" fill="#CCB57C"/>
<path d="M26.949 79.9621C28.3811 79.9621 29.542 78.8012 29.542 77.3691C29.542 75.937 28.3811 74.7761 26.949 74.7761C25.5169 74.7761 24.356 75.937 24.356 77.3691C24.356 78.8012 25.5169 79.9621 26.949 79.9621Z" fill="#CCB57C"/>
<path d="M39.127 79.9621C40.5591 79.9621 41.72 78.8012 41.72 77.3691C41.72 75.937 40.5591 74.7761 39.127 74.7761C37.6949 74.7761 36.534 75.937 36.534 77.3691C36.534 78.8012 37.6949 79.9621 39.127 79.9621Z" fill="#CCB57C"/>
<path d="M51.304 79.9621C52.7361 79.9621 53.897 78.8012 53.897 77.3691C53.897 75.937 52.7361 74.7761 51.304 74.7761C49.8719 74.7761 48.711 75.937 48.711 77.3691C48.711 78.8012 49.8719 79.9621 51.304 79.9621Z" fill="#CCB57C"/>
<path d="M63.482 79.9621C64.9141 79.9621 66.075 78.8012 66.075 77.3691C66.075 75.937 64.9141 74.7761 63.482 74.7761C62.0499 74.7761 60.889 75.937 60.889 77.3691C60.889 78.8012 62.0499 79.9621 63.482 79.9621Z" fill="#CCB57C"/>
<path d="M75.66 79.9621C77.0921 79.9621 78.253 78.8012 78.253 77.3691C78.253 75.937 77.0921 74.7761 75.66 74.7761C74.2279 74.7761 73.067 75.937 73.067 77.3691C73.067 78.8012 74.2279 79.9621 75.66 79.9621Z" fill="#CCB57C"/>
<path d="M87.838 79.9621C89.2701 79.9621 90.431 78.8012 90.431 77.3691C90.431 75.937 89.2701 74.7761 87.838 74.7761C86.4059 74.7761 85.245 75.937 85.245 77.3691C85.245 78.8012 86.4059 79.9621 87.838 79.9621Z" fill="#CCB57C"/>
<path d="M100.015 79.9621C101.447 79.9621 102.608 78.8012 102.608 77.3691C102.608 75.937 101.447 74.7761 100.015 74.7761C98.5829 74.7761 97.422 75.937 97.422 77.3691C97.422 78.8012 98.5829 79.9621 100.015 79.9621Z" fill="#CCB57C"/>
<path d="M112.193 79.9621C113.625 79.9621 114.786 78.8012 114.786 77.3691C114.786 75.937 113.625 74.7761 112.193 74.7761C110.761 74.7761 109.6 75.937 109.6 77.3691C109.6 78.8012 110.761 79.9621 112.193 79.9621Z" fill="#CCB57C"/>
<path d="M124.371 79.9621C125.803 79.9621 126.964 78.8012 126.964 77.3691C126.964 75.937 125.803 74.7761 124.371 74.7761C122.939 74.7761 121.778 75.937 121.778 77.3691C121.778 78.8012 122.939 79.9621 124.371 79.9621Z" fill="#CCB57C"/>
<path d="M136.548 79.9621C137.98 79.9621 139.141 78.8012 139.141 77.3691C139.141 75.937 137.98 74.7761 136.548 74.7761C135.116 74.7761 133.955 75.937 133.955 77.3691C133.955 78.8012 135.116 79.9621 136.548 79.9621Z" fill="#CCB57C"/>
<path d="M148.725 79.9621C150.157 79.9621 151.318 78.8012 151.318 77.3691C151.318 75.937 150.157 74.7761 148.725 74.7761C147.293 74.7761 146.132 75.937 146.132 77.3691C146.132 78.8012 147.293 79.9621 148.725 79.9621Z" fill="#CCB57C"/>
<path d="M2.59302 92.956C4.02509 92.956 5.186 91.7951 5.186 90.363C5.186 88.9309 4.02509 87.77 2.59302 87.77C1.16094 87.77 0 88.9309 0 90.363C0 91.7951 1.16094 92.956 2.59302 92.956Z" fill="#CCB57C"/>
<path d="M14.771 92.956C16.2031 92.956 17.364 91.7951 17.364 90.363C17.364 88.9309 16.2031 87.77 14.771 87.77C13.3389 87.77 12.178 88.9309 12.178 90.363C12.178 91.7951 13.3389 92.956 14.771 92.956Z" fill="#CCB57C"/>
<path d="M26.949 92.956C28.3811 92.956 29.542 91.7951 29.542 90.363C29.542 88.9309 28.3811 87.77 26.949 87.77C25.5169 87.77 24.356 88.9309 24.356 90.363C24.356 91.7951 25.5169 92.956 26.949 92.956Z" fill="#CCB57C"/>
<path d="M39.127 92.956C40.5591 92.956 41.72 91.7951 41.72 90.363C41.72 88.9309 40.5591 87.77 39.127 87.77C37.6949 87.77 36.534 88.9309 36.534 90.363C36.534 91.7951 37.6949 92.956 39.127 92.956Z" fill="#CCB57C"/>
<path d="M51.304 92.956C52.7361 92.956 53.897 91.7951 53.897 90.363C53.897 88.9309 52.7361 87.77 51.304 87.77C49.8719 87.77 48.711 88.9309 48.711 90.363C48.711 91.7951 49.8719 92.956 51.304 92.956Z" fill="#CCB57C"/>
<path d="M63.482 92.956C64.9141 92.956 66.075 91.7951 66.075 90.363C66.075 88.9309 64.9141 87.77 63.482 87.77C62.0499 87.77 60.889 88.9309 60.889 90.363C60.889 91.7951 62.0499 92.956 63.482 92.956Z" fill="#CCB57C"/>
<path d="M75.66 92.956C77.0921 92.956 78.253 91.7951 78.253 90.363C78.253 88.9309 77.0921 87.77 75.66 87.77C74.2279 87.77 73.067 88.9309 73.067 90.363C73.067 91.7951 74.2279 92.956 75.66 92.956Z" fill="#CCB57C"/>
<path d="M87.838 92.956C89.2701 92.956 90.431 91.7951 90.431 90.363C90.431 88.9309 89.2701 87.77 87.838 87.77C86.4059 87.77 85.245 88.9309 85.245 90.363C85.245 91.7951 86.4059 92.956 87.838 92.956Z" fill="#CCB57C"/>
<path d="M100.015 92.956C101.447 92.956 102.608 91.7951 102.608 90.363C102.608 88.9309 101.447 87.77 100.015 87.77C98.5829 87.77 97.422 88.9309 97.422 90.363C97.422 91.7951 98.5829 92.956 100.015 92.956Z" fill="#CCB57C"/>
<path d="M112.193 92.956C113.625 92.956 114.786 91.7951 114.786 90.363C114.786 88.9309 113.625 87.77 112.193 87.77C110.761 87.77 109.6 88.9309 109.6 90.363C109.6 91.7951 110.761 92.956 112.193 92.956Z" fill="#CCB57C"/>
<path d="M124.371 92.956C125.803 92.956 126.964 91.7951 126.964 90.363C126.964 88.9309 125.803 87.77 124.371 87.77C122.939 87.77 121.778 88.9309 121.778 90.363C121.778 91.7951 122.939 92.956 124.371 92.956Z" fill="#CCB57C"/>
<path d="M136.548 92.956C137.98 92.956 139.141 91.7951 139.141 90.363C139.141 88.9309 137.98 87.77 136.548 87.77C135.116 87.77 133.955 88.9309 133.955 90.363C133.955 91.7951 135.116 92.956 136.548 92.956Z" fill="#CCB57C"/>
<path d="M148.725 92.956C150.157 92.956 151.318 91.7951 151.318 90.363C151.318 88.9309 150.157 87.77 148.725 87.77C147.293 87.77 146.132 88.9309 146.132 90.363C146.132 91.7951 147.293 92.956 148.725 92.956Z" fill="#CCB57C"/>
<path d="M5.18701 103.358C5.18701 101.925 4.02602 100.764 2.59302 100.764C2.36202 100.764 2.14099 100.805 1.92599 100.862C2.44899 102.506 3.02299 104.128 3.64999 105.721C4.55399 105.316 5.18701 104.413 5.18701 103.358Z" fill="#CCB57C"/>
<path d="M14.771 105.951C16.2031 105.951 17.364 104.79 17.364 103.358C17.364 101.926 16.2031 100.765 14.771 100.765C13.3389 100.765 12.178 101.926 12.178 103.358C12.178 104.79 13.3389 105.951 14.771 105.951Z" fill="#CCB57C"/>
<path d="M26.949 105.951C28.3811 105.951 29.542 104.79 29.542 103.358C29.542 101.926 28.3811 100.765 26.949 100.765C25.5169 100.765 24.356 101.926 24.356 103.358C24.356 104.79 25.5169 105.951 26.949 105.951Z" fill="#CCB57C"/>
<path d="M39.127 105.951C40.5591 105.951 41.72 104.79 41.72 103.358C41.72 101.926 40.5591 100.765 39.127 100.765C37.6949 100.765 36.534 101.926 36.534 103.358C36.534 104.79 37.6949 105.951 39.127 105.951Z" fill="#CCB57C"/>
<path d="M51.304 105.951C52.7361 105.951 53.897 104.79 53.897 103.358C53.897 101.926 52.7361 100.765 51.304 100.765C49.8719 100.765 48.711 101.926 48.711 103.358C48.711 104.79 49.8719 105.951 51.304 105.951Z" fill="#CCB57C"/>
<path d="M63.482 105.951C64.9141 105.951 66.075 104.79 66.075 103.358C66.075 101.926 64.9141 100.765 63.482 100.765C62.0499 100.765 60.889 101.926 60.889 103.358C60.889 104.79 62.0499 105.951 63.482 105.951Z" fill="#CCB57C"/>
<path d="M75.66 105.951C77.0921 105.951 78.253 104.79 78.253 103.358C78.253 101.926 77.0921 100.765 75.66 100.765C74.2279 100.765 73.067 101.926 73.067 103.358C73.067 104.79 74.2279 105.951 75.66 105.951Z" fill="#CCB57C"/>
<path d="M87.838 105.951C89.2701 105.951 90.431 104.79 90.431 103.358C90.431 101.926 89.2701 100.765 87.838 100.765C86.4059 100.765 85.245 101.926 85.245 103.358C85.245 104.79 86.4059 105.951 87.838 105.951Z" fill="#CCB57C"/>
<path d="M100.015 105.951C101.447 105.951 102.608 104.79 102.608 103.358C102.608 101.926 101.447 100.765 100.015 100.765C98.5829 100.765 97.422 101.926 97.422 103.358C97.422 104.79 98.5829 105.951 100.015 105.951Z" fill="#CCB57C"/>
<path d="M112.193 105.951C113.625 105.951 114.786 104.79 114.786 103.358C114.786 101.926 113.625 100.765 112.193 100.765C110.761 100.765 109.6 101.926 109.6 103.358C109.6 104.79 110.761 105.951 112.193 105.951Z" fill="#CCB57C"/>
<path d="M124.371 105.951C125.803 105.951 126.964 104.79 126.964 103.358C126.964 101.926 125.803 100.765 124.371 100.765C122.939 100.765 121.778 101.926 121.778 103.358C121.778 104.79 122.939 105.951 124.371 105.951Z" fill="#CCB57C"/>
<path d="M136.548 105.951C137.98 105.951 139.141 104.79 139.141 103.358C139.141 101.926 137.98 100.765 136.548 100.765C135.116 100.765 133.955 101.926 133.955 103.358C133.955 104.79 135.116 105.951 136.548 105.951Z" fill="#CCB57C"/>
<path d="M146.132 103.358C146.132 104.413 146.764 105.316 147.668 105.721C148.296 104.127 148.868 102.505 149.392 100.862C149.178 100.805 148.957 100.764 148.725 100.764C147.294 100.764 146.132 101.925 146.132 103.358Z" fill="#CCB57C"/>
<path d="M14.771 118.945C16.2031 118.945 17.364 117.784 17.364 116.352C17.364 114.92 16.2031 113.759 14.771 113.759C13.3389 113.759 12.178 114.92 12.178 116.352C12.178 117.784 13.3389 118.945 14.771 118.945Z" fill="#CCB57C"/>
<path d="M26.949 118.945C28.3811 118.945 29.542 117.784 29.542 116.352C29.542 114.92 28.3811 113.759 26.949 113.759C25.5169 113.759 24.356 114.92 24.356 116.352C24.356 117.784 25.5169 118.945 26.949 118.945Z" fill="#CCB57C"/>
<path d="M39.127 118.945C40.5591 118.945 41.72 117.784 41.72 116.352C41.72 114.92 40.5591 113.759 39.127 113.759C37.6949 113.759 36.534 114.92 36.534 116.352C36.534 117.784 37.6949 118.945 39.127 118.945Z" fill="#CCB57C"/>
<path d="M51.304 118.945C52.7361 118.945 53.897 117.784 53.897 116.352C53.897 114.92 52.7361 113.759 51.304 113.759C49.8719 113.759 48.711 114.92 48.711 116.352C48.711 117.784 49.8719 118.945 51.304 118.945Z" fill="#CCB57C"/>
<path d="M63.482 118.945C64.9141 118.945 66.075 117.784 66.075 116.352C66.075 114.92 64.9141 113.759 63.482 113.759C62.0499 113.759 60.889 114.92 60.889 116.352C60.889 117.784 62.0499 118.945 63.482 118.945Z" fill="#CCB57C"/>
<path d="M75.66 118.945C77.0921 118.945 78.253 117.784 78.253 116.352C78.253 114.92 77.0921 113.759 75.66 113.759C74.2279 113.759 73.067 114.92 73.067 116.352C73.067 117.784 74.2279 118.945 75.66 118.945Z" fill="#CCB57C"/>
<path d="M87.838 118.945C89.2701 118.945 90.431 117.784 90.431 116.352C90.431 114.92 89.2701 113.759 87.838 113.759C86.4059 113.759 85.245 114.92 85.245 116.352C85.245 117.784 86.4059 118.945 87.838 118.945Z" fill="#CCB57C"/>
<path d="M100.015 118.945C101.447 118.945 102.608 117.784 102.608 116.352C102.608 114.92 101.447 113.759 100.015 113.759C98.5829 113.759 97.422 114.92 97.422 116.352C97.422 117.784 98.5829 118.945 100.015 118.945Z" fill="#CCB57C"/>
<path d="M112.193 118.945C113.625 118.945 114.786 117.784 114.786 116.352C114.786 114.92 113.625 113.759 112.193 113.759C110.761 113.759 109.6 114.92 109.6 116.352C109.6 117.784 110.761 118.945 112.193 118.945Z" fill="#CCB57C"/>
<path d="M124.371 118.945C125.803 118.945 126.964 117.784 126.964 116.352C126.964 114.92 125.803 113.759 124.371 113.759C122.939 113.759 121.778 114.92 121.778 116.352C121.778 117.784 122.939 118.945 124.371 118.945Z" fill="#CCB57C"/>
<path d="M136.548 118.945C137.98 118.945 139.141 117.784 139.141 116.352C139.141 114.92 137.98 113.759 136.548 113.759C135.116 113.759 133.955 114.92 133.955 116.352C133.955 117.784 135.116 118.945 136.548 118.945Z" fill="#CCB57C"/>
<path d="M26.949 131.939C28.3811 131.939 29.542 130.778 29.542 129.346C29.542 127.914 28.3811 126.753 26.949 126.753C25.5169 126.753 24.356 127.914 24.356 129.346C24.356 130.778 25.5169 131.939 26.949 131.939Z" fill="#CCB57C"/>
<path d="M39.127 131.939C40.5591 131.939 41.72 130.778 41.72 129.346C41.72 127.914 40.5591 126.753 39.127 126.753C37.6949 126.753 36.534 127.914 36.534 129.346C36.534 130.778 37.6949 131.939 39.127 131.939Z" fill="#CCB57C"/>
<path d="M51.304 131.939C52.7361 131.939 53.897 130.778 53.897 129.346C53.897 127.914 52.7361 126.753 51.304 126.753C49.8719 126.753 48.711 127.914 48.711 129.346C48.711 130.778 49.8719 131.939 51.304 131.939Z" fill="#CCB57C"/>
<path d="M63.482 131.939C64.9141 131.939 66.075 130.778 66.075 129.346C66.075 127.914 64.9141 126.753 63.482 126.753C62.0499 126.753 60.889 127.914 60.889 129.346C60.889 130.778 62.0499 131.939 63.482 131.939Z" fill="#CCB57C"/>
<path d="M75.66 131.939C77.0921 131.939 78.253 130.778 78.253 129.346C78.253 127.914 77.0921 126.753 75.66 126.753C74.2279 126.753 73.067 127.914 73.067 129.346C73.067 130.778 74.2279 131.939 75.66 131.939Z" fill="#CCB57C"/>
<path d="M87.838 131.939C89.2701 131.939 90.431 130.778 90.431 129.346C90.431 127.914 89.2701 126.753 87.838 126.753C86.4059 126.753 85.245 127.914 85.245 129.346C85.245 130.778 86.4059 131.939 87.838 131.939Z" fill="#CCB57C"/>
<path d="M100.015 131.939C101.447 131.939 102.608 130.778 102.608 129.346C102.608 127.914 101.447 126.753 100.015 126.753C98.5829 126.753 97.422 127.914 97.422 129.346C97.422 130.778 98.5829 131.939 100.015 131.939Z" fill="#CCB57C"/>
<path d="M112.193 131.939C113.625 131.939 114.786 130.778 114.786 129.346C114.786 127.914 113.625 126.753 112.193 126.753C110.761 126.753 109.6 127.914 109.6 129.346C109.6 130.778 110.761 131.939 112.193 131.939Z" fill="#CCB57C"/>
<path d="M124.371 131.939C125.803 131.939 126.964 130.778 126.964 129.346C126.964 127.914 125.803 126.753 124.371 126.753C122.939 126.753 121.778 127.914 121.778 129.346C121.778 130.778 122.939 131.939 124.371 131.939Z" fill="#CCB57C"/>
<path d="M39.127 144.933C40.5591 144.933 41.72 143.772 41.72 142.34C41.72 140.908 40.5591 139.747 39.127 139.747C37.6949 139.747 36.534 140.908 36.534 142.34C36.534 143.772 37.6949 144.933 39.127 144.933Z" fill="#CCB57C"/>
<path d="M51.304 144.933C52.7361 144.933 53.897 143.772 53.897 142.34C53.897 140.908 52.7361 139.747 51.304 139.747C49.8719 139.747 48.711 140.908 48.711 142.34C48.711 143.772 49.8719 144.933 51.304 144.933Z" fill="#CCB57C"/>
<path d="M63.482 144.933C64.9141 144.933 66.075 143.772 66.075 142.34C66.075 140.908 64.9141 139.747 63.482 139.747C62.0499 139.747 60.889 140.908 60.889 142.34C60.889 143.772 62.0499 144.933 63.482 144.933Z" fill="#CCB57C"/>
<path d="M75.66 144.933C77.0921 144.933 78.253 143.772 78.253 142.34C78.253 140.908 77.0921 139.747 75.66 139.747C74.2279 139.747 73.067 140.908 73.067 142.34C73.067 143.772 74.2279 144.933 75.66 144.933Z" fill="#CCB57C"/>
<path d="M87.838 144.933C89.2701 144.933 90.431 143.772 90.431 142.34C90.431 140.908 89.2701 139.747 87.838 139.747C86.4059 139.747 85.245 140.908 85.245 142.34C85.245 143.772 86.4059 144.933 87.838 144.933Z" fill="#CCB57C"/>
<path d="M100.015 144.933C101.447 144.933 102.608 143.772 102.608 142.34C102.608 140.908 101.447 139.747 100.015 139.747C98.5829 139.747 97.422 140.908 97.422 142.34C97.422 143.772 98.5829 144.933 100.015 144.933Z" fill="#CCB57C"/>
<path d="M112.193 144.933C113.625 144.933 114.786 143.772 114.786 142.34C114.786 140.908 113.625 139.747 112.193 139.747C110.761 139.747 109.6 140.908 109.6 142.34C109.6 143.772 110.761 144.933 112.193 144.933Z" fill="#CCB57C"/>
<path d="M63.482 152.742C62.781 152.742 62.146 153.023 61.68 153.475C63.026 153.721 64.384 153.934 65.753 154.109C65.315 153.298 64.468 152.742 63.482 152.742Z" fill="#CCB57C"/>
<path d="M75.66 152.742C74.45 152.742 73.443 153.574 73.156 154.694C73.988 154.72 74.822 154.738 75.66 154.738C76.498 154.738 77.332 154.72 78.164 154.694C77.877 153.574 76.869 152.742 75.66 152.742Z" fill="#CCB57C"/>
<path d="M85.565 154.109C86.935 153.934 88.293 153.721 89.639 153.475C89.172 153.023 88.538 152.742 87.837 152.742C86.851 152.742 86.004 153.298 85.565 154.109Z" fill="#CCB57C"/>
</svg>
