<svg width="1032" height="687" viewBox="0 0 1032 687" fill="none" xmlns="http://www.w3.org/2000/svg">
<path opacity="0.3" d="M1031.19 258.848C1026.02 210.843 995.287 154.452 946.874 104.138C901.905 57.4061 848.424 22.317 803.814 10.2767C672.078 -25.2766 617.544 34.4243 532.495 143C525.817 151.525 519.303 160.013 513.005 168.22C475.265 217.397 442.675 259.87 396.408 284.264C345.696 311.001 283.37 312.339 200.264 288.463C148.735 273.658 105.891 278.659 72.9319 303.323C2.75403 355.839 0.860555 481.317 0.836228 483.687C-3.87716 575.045 11.3516 636.4 46.0929 666.054C62.4955 680.052 83.0357 687.002 108.314 687C119.841 687 132.353 685.557 145.909 682.676C165.491 678.514 185.149 661.261 205.965 642.993C247.597 606.454 294.782 565.036 361.377 605.112C400.329 628.55 441.181 634.158 479.504 621.341C526.547 605.609 568.164 562.674 590.837 506.497C598.411 487.732 607.283 473.867 617.421 463.57C619.951 462.568 622.511 461.571 625.092 460.577C628.328 459.398 631.612 458.23 634.94 457.072C640.58 455.211 646.348 453.395 652.263 451.607C656.839 450.321 661.498 449.058 666.256 447.807C670.699 446.739 675.234 445.685 679.853 444.637C684.069 443.775 688.365 442.921 692.738 442.062C696.853 441.354 701.042 440.645 705.303 439.925C706.874 439.7 708.447 439.473 710.038 439.246C712.477 438.895 714.953 438.538 717.448 438.18C721.326 437.717 725.273 437.243 729.289 436.746C733.013 436.383 736.796 436.002 740.64 435.601C744.336 435.309 748.088 434.997 751.897 434.658C755.47 434.435 759.092 434.188 762.762 433.912C766.281 433.744 769.853 433.545 773.464 433.32C824.322 431.526 884.312 423.719 954.362 387.409C1010.55 358.284 1037.11 313.829 1031.19 258.848ZM776.958 375.537C785.147 357.263 778.487 333.458 759.986 314.891C750.227 305.093 732.902 292.552 705.799 288.437C680.558 284.601 653.285 289.077 624.753 301.74C577.658 322.644 550.699 341.595 528.58 358.962C526.768 360.383 524.992 361.786 523.248 363.164C492.412 387.519 470.132 405.112 404.284 410.229C388.557 411.449 372.667 414.371 355.843 417.464C344.277 419.593 332.46 421.762 319.792 423.591C319.257 423.623 318.711 423.654 318.172 423.686C323.964 422.186 329.64 420.607 335.242 419.044C355.632 413.351 374.887 407.974 396.524 407.433C466.708 405.679 490.364 385.631 523.104 357.883C525.336 355.991 527.605 354.072 529.93 352.117C556.062 330.186 583.48 311.615 632.35 292.277C673.4 276.032 730.579 272.463 767.933 311.181C786.201 330.113 792.907 353.995 785.019 372.016C780.251 382.898 770.739 390.714 757.333 395.135C768.748 389.487 774.301 381.465 776.958 375.537ZM748.319 396.623C756.972 392.477 763.398 386.318 767.068 378.323C775.138 360.731 768.495 337.214 750.537 319.8C738.901 308.517 694.948 274.675 617.855 312.965C572.462 335.509 547.081 353.814 526.685 368.524C486.131 397.773 464.22 413.57 339.665 422.308C345.265 421.33 350.76 420.325 356.187 419.327C372.959 416.242 388.802 413.328 404.432 412.112C470.854 406.955 493.322 389.209 524.42 364.65C526.166 363.27 527.939 361.871 529.75 360.45C555.202 340.466 581.228 323.13 625.526 303.469C665.885 285.558 722.05 279.5 758.644 316.227C776.586 334.234 783.095 357.21 775.229 374.763C770.526 385.256 761.276 392.636 748.319 396.623ZM786.754 372.776C794.953 354.049 788.098 329.354 769.3 309.866C759.333 299.538 741.638 286.107 713.907 280.761C688.213 275.809 660.531 279.089 631.654 290.517C582.546 309.949 554.987 328.618 528.716 350.668C526.387 352.62 524.114 354.546 521.884 356.438C489.438 383.934 465.994 403.8 396.479 405.537C374.607 406.087 355.241 411.494 334.737 417.219C326.001 419.658 317.092 422.131 307.817 424.272C307.365 424.296 306.927 424.321 306.473 424.345C305.242 424.41 304.036 424.489 302.818 424.562C308.127 422.697 313.345 420.72 318.499 418.766C339.783 410.683 361.815 402.288 388.628 402.752C390.44 402.782 392.218 402.794 393.974 402.794C464.235 402.794 490.013 379.693 522.437 350.639C524.943 348.395 527.493 346.108 530.111 343.791C557.491 319.548 586.515 299.609 639.182 281.084C702.734 258.732 752.104 279.308 777.113 306.02C795.741 325.916 802.658 350.749 794.734 369.289C789.749 380.952 779.472 389.414 764.874 394.209C775.17 389.388 782.637 382.177 786.754 372.776ZM796.473 370.033C804.695 350.806 797.637 325.17 778.495 304.722C763.907 289.14 744.332 278.156 721.89 272.958C695.752 266.906 667.713 269.035 638.549 279.293C585.595 297.919 556.4 317.979 528.854 342.37C526.232 344.689 523.678 346.976 521.17 349.224C488.248 378.73 462.284 402.085 388.656 400.854C361.487 400.412 339.276 408.842 317.826 416.992C310.523 419.765 303.093 422.583 295.457 425.046C293.075 425.221 290.723 425.407 288.402 425.604C293.219 423.445 298.037 421.113 302.951 418.729C325.487 407.794 348.782 396.502 380.738 398.063C459.365 401.947 487.015 376.009 522.016 343.181C524.714 340.649 527.463 338.072 530.283 335.463C559.997 307.962 589.724 287.399 646.011 269.885C710.42 249.842 760.661 272.684 786.199 300.745C805.513 321.963 812.482 347.187 804.389 366.57C799.198 379.002 788.143 388.076 772.395 393.28C783.855 388.084 792.102 380.255 796.473 370.033ZM806.133 367.302C814.516 347.229 807.412 321.237 787.596 299.469C761.663 270.979 710.697 247.77 645.444 268.076C588.812 285.696 558.902 306.391 528.99 334.072C526.166 336.687 523.417 339.266 520.712 341.8C486.04 374.321 458.662 400.011 380.825 396.171C348.411 394.566 324.868 405.985 302.118 417.024C295.424 420.274 288.909 423.425 282.344 426.164C282.081 426.19 281.815 426.214 281.552 426.243C285.987 423.743 290.433 420.996 294.954 418.2C315.721 405.355 339.254 390.815 372.846 393.378C455.858 399.768 484.909 371.458 521.695 335.625C524.554 332.839 527.461 330.007 530.447 327.139C562.683 296.171 593.045 275.042 652.835 258.686C718.036 240.855 769.133 265.948 795.216 295.376C814.947 317.638 822.144 343.884 813.993 363.868C808.576 377.147 796.698 386.937 779.655 392.565C792.422 386.965 801.492 378.42 806.133 367.302ZM815.75 364.585C824.178 343.929 816.853 316.929 796.637 294.121C770.173 264.263 718.36 238.796 652.336 256.859C592.155 273.323 561.59 294.594 529.133 325.774C526.145 328.645 523.236 331.481 520.374 334.267C483.93 369.767 455.152 397.809 372.991 391.49C338.785 388.84 314.973 403.591 293.961 416.588C288.098 420.213 282.365 423.751 276.631 426.762C273.459 427.112 270.339 427.485 267.288 427.891C271.553 425.063 275.902 421.886 280.441 418.565C302.055 402.756 326.529 384.836 364.965 388.694C452.41 397.481 482.861 366.824 521.426 328.022C524.426 325.002 527.481 321.928 530.617 318.818C564.714 285 596.763 262.489 659.671 247.489C725.594 231.769 777.557 259.103 804.199 289.927C824.368 313.265 831.79 340.568 823.573 361.181C819.187 372.188 808.896 385.359 785.124 392.591C800.108 386.59 810.652 377.084 815.75 364.585ZM825.335 361.881C833.817 340.608 826.268 312.56 805.634 288.686C778.627 257.439 725.979 229.723 659.229 245.644C595.891 260.747 563.619 283.417 529.279 317.472C526.141 320.586 523.084 323.662 520.08 326.684C500.581 346.303 483.743 363.243 460.654 374.517C435.297 386.898 404.947 390.803 365.152 386.809C326.016 382.86 301.208 401.025 279.318 417.034C273.56 421.245 268.121 425.213 262.773 428.517C259.353 429.01 256.01 429.533 252.754 430.094C257.085 426.835 261.498 423.1 266.126 419.171C287.342 401.171 313.753 378.773 357.086 384.003C448.953 395.097 480.834 362.13 521.168 320.392C524.311 317.142 527.504 313.839 530.78 310.496C567.684 272.873 600.246 249.903 666.505 236.286C733.139 222.591 785.951 252.164 813.155 284.408C834.081 309.209 841.549 336.906 833.13 358.497C827.119 373.915 813.599 385.143 793.562 391.61C812.511 383.853 821.305 371.987 825.335 361.881ZM265.761 430.042C264.926 430.169 264.105 430.299 263.284 430.429C263.318 430.409 263.351 430.386 263.385 430.368C264.18 430.253 264.971 430.149 265.761 430.042ZM258.287 431.133C258.165 431.197 258.046 431.26 257.924 431.325C254.721 431.881 251.607 432.46 248.617 433.065C248.807 432.937 248.996 432.815 249.186 432.683C252.221 432.126 255.26 431.607 258.287 431.133ZM834.896 359.185C843.57 336.935 835.984 308.524 814.605 283.184C787.046 250.524 733.575 220.56 666.124 234.427C599.386 248.144 566.595 271.277 529.427 309.166C526.147 312.511 522.95 315.82 519.806 319.072C479.836 360.433 448.27 393.106 357.315 382.12C313.163 376.792 286.397 399.484 264.902 417.724C259.175 422.583 253.782 427.153 248.497 430.847C244.864 431.52 241.347 432.241 237.929 433.002C242.466 429.239 247.092 424.759 251.974 420.021C273.73 398.9 300.811 372.624 349.21 379.32C445.555 392.67 478.819 357.4 520.911 312.761C524.191 309.284 527.524 305.75 530.946 302.174C570.782 260.569 603.741 237.22 673.339 225.083C740.741 213.32 795.601 246.694 822.106 278.841C843.483 304.769 851.173 333.549 842.672 355.827C836.372 372.348 821.739 384.411 799.956 391.356C821.125 383.006 830.663 370.041 834.896 359.185ZM155.892 502.237C156.719 500.946 157.607 499.622 158.533 498.28C158.527 498.314 158.523 498.349 158.517 498.385C157.582 499.693 156.709 500.978 155.892 502.237ZM156.295 510.987C156.157 515.928 157.436 520.911 160.224 526.245C168.503 542.076 193.781 551.984 230.296 554.483C192.17 552.943 169.868 545.729 161.158 532.378C156.165 524.712 154.665 518.109 156.295 510.987ZM143.351 531.167C143.7 541.103 149.323 547.836 157.665 554.885C171.362 566.459 198.012 564.857 231.758 562.822C236.368 562.544 241.195 562.256 246.16 561.993C237.755 562.639 229.686 563.436 222.076 564.194C193.412 567.051 170.778 569.307 158.122 560.47C150.106 554.875 142.171 548.511 140.902 537.772C139.513 526.02 146.218 509.783 161.69 487.912C160.901 489.664 160.24 491.438 159.705 493.226C148.224 508.897 143.002 521.215 143.351 531.167ZM231.642 560.928C198.318 562.939 172.004 564.521 158.886 553.437C150.931 546.715 145.567 540.341 145.242 531.1C144.997 524.025 147.898 515.445 154.102 505.124C149.856 512.305 147.653 518.652 147.363 524.337C146.836 534.547 152.593 541.894 158.296 547.734C172.345 562.129 203.397 561.551 242.831 560.273C238.993 560.486 235.255 560.711 231.642 560.928ZM159.652 546.409C153.964 540.584 148.772 533.89 149.256 524.436C149.417 521.3 150.24 517.902 151.715 514.235C151.432 515.324 151.207 516.396 151.059 517.448C149.646 527.475 154.525 535.076 158.935 540.576C171.394 556.126 201.657 558.755 239.184 558.496C201.913 559.665 172.716 559.797 159.652 546.409ZM160.41 539.392C154.132 531.558 151.898 525.073 152.934 517.714C153.135 516.297 153.485 514.831 153.962 513.327C153.167 519.915 154.983 526.375 159.575 533.413C170.784 550.601 201.54 555.767 234.304 556.62C199.561 556.618 171.852 553.666 160.41 539.392ZM161.907 525.369C158.92 519.66 157.736 514.395 158.3 509.154C158.709 512.524 159.565 515.853 160.887 519.08C169.257 539.491 199.482 549.902 231.92 552.708C195.296 550.459 170.003 540.852 161.907 525.369ZM162.642 518.36C160.587 513.351 159.707 508.084 159.962 502.799C160.123 506.261 160.761 509.345 161.558 511.912C167.455 530.898 192.419 545.204 224.255 550.125C192.768 546.147 169.316 534.636 162.642 518.36ZM161.84 502.359C161.959 503.158 162.059 503.952 162.235 504.749C166.523 524.039 188.808 539.864 216.999 546.733C189.652 540.89 168.491 527.844 163.368 511.352C162.584 508.83 161.961 505.789 161.84 502.359ZM164.086 504.335C163.8 503.058 163.609 501.777 163.478 500.494C168.361 521.355 192.938 539.177 222.005 545.928C192.366 539.915 168.457 523.999 164.086 504.335ZM164.797 497.319C164.789 497.27 164.791 497.221 164.783 497.173C166.192 502.517 168.793 507.867 172.598 513.071C181.826 525.685 196.609 535.672 213.077 541.525C187.663 533.261 167.54 516.424 164.797 497.319ZM165.477 488.859C172.075 480.439 180.33 471.103 190.298 460.778C193.212 458.952 196.402 457.131 199.895 455.331C185.246 468.245 173.869 479.517 165.499 489.447C165.491 489.254 165.483 489.055 165.477 488.859ZM202.093 446.224C201.371 446.934 200.643 447.643 199.936 448.345C195.342 450.538 191.324 452.784 187.807 455.045C188.571 454.161 189.341 453.275 190.122 452.379C193.824 450.149 197.838 448.103 202.093 446.224ZM193.739 448.263C193.864 448.126 193.98 447.988 194.106 447.85C194.306 447.832 194.503 447.787 194.704 447.763C194.383 447.929 194.055 448.095 193.739 448.263ZM211.274 445.518C211.068 445.695 210.871 445.863 210.664 446.037C206.954 447.526 203.526 449.05 200.358 450.597C200.603 450.354 200.842 450.112 201.089 449.867C204.207 448.389 207.597 446.938 211.274 445.518ZM204.968 446.06C205.095 445.934 205.219 445.814 205.349 445.687C205.592 445.668 205.831 445.622 206.075 445.593C205.706 445.752 205.331 445.906 204.968 446.06ZM195.658 452.602C195.362 452.898 195.075 453.19 194.783 453.486C189.919 456.16 185.767 458.879 182.234 461.583C182.447 461.328 182.662 461.074 182.877 460.817C186.404 458.078 190.613 455.315 195.658 452.602ZM181.532 459.475C177.16 462.889 173.813 466.264 171.283 469.451C174.544 464.511 178.962 460.113 184.3 456.217C183.363 457.313 182.441 458.4 181.532 459.475ZM182.641 466.059C176.077 473.086 170.389 479.598 165.525 485.656C165.531 485.57 165.545 485.485 165.552 485.4C166.18 484.095 166.883 482.775 167.707 481.433C168.209 480.614 168.769 479.774 169.367 478.925C172.574 474.797 176.882 470.447 182.641 466.059ZM206.421 452.168C208.917 451.025 211.546 449.893 214.319 448.778C202.123 457.751 191.825 465.944 183.294 473.471C183.085 473.629 182.87 473.788 182.664 473.946C189.489 467.211 197.4 459.963 206.421 452.168ZM221.115 446.177C223.152 445.437 225.265 444.706 227.438 443.986C218.53 449.423 210.486 454.587 203.293 459.495C208.763 455.24 214.711 450.8 221.115 446.177ZM216.529 443.584C216.6 443.558 216.675 443.536 216.748 443.509C217.034 443.487 217.316 443.44 217.602 443.408C217.079 443.595 216.58 443.785 216.065 443.972C216.223 443.842 216.373 443.714 216.529 443.584ZM216.387 441.632C217.151 441.143 217.918 440.618 218.684 440.055C222.104 438.984 225.603 437.991 229.159 437.071C228.454 437.504 227.75 437.912 227.047 438.293C223.316 439.368 219.799 440.478 216.491 441.622C216.456 441.624 216.422 441.63 216.387 441.632ZM235.109 441.567C236.494 441.154 237.89 440.742 239.328 440.339C234.249 442.879 229.425 445.366 224.839 447.811C228.135 445.768 231.561 443.686 235.109 441.567ZM233.317 436.57C233.686 436.306 234.055 436.043 234.426 435.767C237.665 435.001 240.931 434.289 244.218 433.634C243.911 433.819 243.603 434.007 243.297 434.184C239.824 434.952 236.494 435.747 233.317 436.57ZM844.444 356.502C853.188 333.577 845.387 304.094 823.569 277.635C796.743 245.094 741.214 211.319 673.013 223.213C602.898 235.444 569.699 258.959 529.575 300.862C526.153 304.441 522.815 307.978 519.534 311.457C477.813 355.702 444.878 390.647 349.467 377.441C300.164 370.604 272.707 397.252 250.65 418.656C244.666 424.467 239.076 429.88 233.609 434.003C229.779 434.922 226.086 435.895 222.55 436.927C227.407 432.669 232.415 427.181 237.953 421.097C258.976 398.002 287.763 366.371 341.336 374.627C357.108 377.06 371.248 378.193 384.07 378.191C453.212 378.187 483.66 345.208 520.651 305.128C524.069 301.424 527.542 297.657 531.11 293.852C573.099 249.048 607.682 224.379 680.175 213.874C720.834 207.982 762.468 218.042 797.389 242.199C828.664 263.835 850.1 293.836 854.735 322.449C860.107 355.639 842.257 380.202 805.354 391.533C829.467 382.578 839.956 368.265 844.444 356.502ZM845.273 369.009C855.594 356.29 859.511 340.083 856.608 322.149C851.894 293.037 830.16 262.566 798.468 240.644C763.153 216.211 721.049 206.036 679.905 212.002C606.857 222.587 572.018 247.436 529.727 292.558C526.155 296.368 522.677 300.136 519.259 303.844C475.792 350.945 441.454 388.153 341.626 372.758C287.058 364.344 257.867 396.412 236.554 419.826C229.67 427.388 223.621 434.021 217.748 438.392C213.312 439.807 209.136 441.32 205.213 442.921C211.157 438.315 217.164 430.91 224.054 422.409C245.387 396.092 274.612 360.036 333.464 369.946C438.774 387.65 474.793 347.872 520.38 297.507C523.94 293.574 527.558 289.576 531.274 285.536C576.421 236.438 611.238 211.514 687.013 202.673C773.313 192.615 854.562 257.98 864.287 318.824C869.864 353.707 850.583 379.746 811.049 391.673C825.848 386.399 837.314 378.817 845.273 369.009ZM866.16 318.526C861.362 288.508 839.088 256.652 806.583 233.314C770.66 207.518 728.116 195.968 686.792 200.789C610.423 209.701 575.343 234.804 529.877 284.252C526.157 288.297 522.537 292.299 518.975 296.234C473.773 346.171 438.071 385.609 333.776 368.074C273.814 358.005 244.209 394.535 222.581 421.215C211.589 434.774 202.908 445.486 193.603 445.983L193.205 446.003L192.944 446.299C191.486 447.941 190.069 449.551 188.674 451.152C178.196 457.561 170.822 464.987 166.855 473.352C165.641 475.908 164.783 478.536 164.236 481.206C145.579 506.381 137.46 524.811 139.017 537.993C140.377 549.512 148.664 556.182 157.035 562.025C164.151 566.992 174.072 568.626 186.244 568.626C196.709 568.626 208.834 567.418 222.26 566.08C231.008 565.206 240.352 564.273 250.133 563.59C237.864 564.724 226.27 566.394 215.479 567.967C189.929 571.693 169.75 574.639 157.351 567.511C147.511 561.855 138.494 555.838 136.245 544.495C132.58 526.03 147.395 495.995 182.858 450.005C191.928 449.184 200.039 438.017 210.263 423.94C231.807 394.27 261.311 353.636 325.592 365.256C435.395 385.1 472.78 343.085 520.096 289.892C523.802 285.728 527.568 281.493 531.436 277.215C578.883 224.726 615.288 198.506 693.851 191.465C781.475 183.605 863.993 252.725 873.848 315.187C879.674 352.135 858.499 379.867 815.519 392.24C853.415 379.513 871.719 353.299 866.16 318.526ZM875.717 314.895C865.739 251.639 782.323 181.635 693.678 189.58C614.487 196.676 577.814 223.084 530.025 275.946C526.155 280.23 522.385 284.467 518.677 288.635C471.752 341.387 434.685 383.056 325.926 363.393C260.49 351.568 229.335 394.448 208.724 422.827C198.63 436.722 190.659 447.702 182.315 448.146L181.879 448.168L181.614 448.513C145.603 495.16 130.595 525.778 134.38 544.866C136.785 556.987 146.169 563.274 156.402 569.155C162.249 572.517 169.622 573.757 178.329 573.757C188.932 573.757 201.517 571.921 215.747 569.843C226.951 568.208 239.032 566.469 251.824 565.342C237.157 566.972 223.483 569.64 210.802 572.125C187.373 576.719 168.872 580.346 156.581 574.568C144.725 568.989 134.642 563.392 131.311 551.319C126.071 532.3 138.873 500.792 171.609 452.164C179.815 451.313 187.227 439.974 196.561 425.691C217.004 394.418 247.899 347.15 317.718 360.569C338.187 364.5 356.222 366.309 372.337 366.309C446.212 366.303 479.54 328.262 519.798 282.29C523.65 277.891 527.57 273.418 531.591 268.897C582.412 211.802 618.887 185.454 700.683 180.258C741.903 177.639 784.843 191.747 821.633 219.974C855.428 245.903 878.523 280.139 883.41 311.552C889.583 351.225 866.995 380.013 819.764 392.929C861.262 379.764 881.543 351.823 875.717 314.895ZM885.287 311.262C875.196 246.396 790.555 172.672 700.569 178.369C618.611 183.575 580.326 211.303 530.182 267.638C526.153 272.163 522.233 276.64 518.377 281.043C469.735 336.586 431.316 380.455 318.079 358.708C246.983 345.052 215.698 392.962 194.977 424.657C185.755 438.765 178.471 449.912 171.029 450.309L170.559 450.333L170.293 450.727C137.04 500.06 124.074 532.185 129.489 551.822C133.024 564.653 143.941 570.714 155.778 576.279C160.577 578.538 166.204 579.438 172.608 579.438C183.349 579.438 196.279 576.904 211.169 573.986C225.214 571.235 240.477 568.249 256.949 566.722C238.659 568.823 221.907 572.967 207.463 576.551C185.488 582.003 168.132 586.311 155.821 581.627C142.27 576.474 130.689 571.156 126.164 558.254C119.377 538.879 130.561 504.883 160.36 454.321C167.741 453.457 174.155 442.585 182.958 427.67C203.423 393 234.343 340.604 309.848 355.886C428.66 379.932 468.739 333.494 519.494 274.704C523.5 270.065 527.57 265.349 531.755 260.583C585.015 199.901 623.034 172.285 707.523 169.055C748.299 167.496 792.844 183.318 829.72 212.467C864.38 239.862 888.032 275.547 892.995 307.925C896.675 331.937 892.784 374.963 825.372 393.327C824.569 393.546 823.79 393.763 822.99 393.98C868.765 380.512 891.416 350.643 885.287 311.262ZM255.763 544.679C225.85 548.742 190.759 534.682 174.127 511.95C169.73 505.937 167.003 499.729 165.951 493.593C167.429 491.845 169.018 490.057 170.747 488.218C177.514 481.248 186.629 473.678 198.203 465.413C211.485 456.904 228.233 447.773 248.635 437.869C250.066 437.51 251.53 437.158 253.008 436.809C256.738 436.379 260.387 435.514 263.989 434.326C266.86 433.774 269.781 433.233 272.816 432.716C275.788 432.209 278.705 431.577 281.6 430.895C282.425 430.784 283.228 430.666 284.065 430.559C289.417 429.865 294.591 428.973 299.655 427.964C306.71 427.254 313.485 426.419 319.999 425.478C462.704 416.996 484.884 401.01 527.789 370.063C548.129 355.393 573.441 337.137 618.694 314.662C694.668 276.93 737.8 310.097 749.213 321.16C766.595 338.017 773.076 360.669 765.34 377.53C760.536 388.003 751.078 395.091 737.861 398.527C736.857 398.594 735.86 398.669 734.862 398.748C734.558 398.754 734.268 398.774 733.962 398.778C729.946 398.819 725.993 399.001 722.095 399.295C721.823 399.293 721.551 399.287 721.282 399.287C717.525 399.287 713.825 399.429 710.174 399.683C706.164 399.616 702.217 399.717 698.329 399.979C640.124 398.492 595.439 437.715 555.816 472.533C538.469 487.776 522.135 502.115 505.869 512.416C499.815 514.547 493.794 516.321 487.773 517.691C484.357 518.403 480.945 519.003 477.521 519.398C475.717 519.607 473.923 519.842 472.133 520.094C472.082 520.096 472.027 520.102 471.977 520.104C468.703 520.24 465.467 520.473 462.258 520.761C459.006 520.737 455.791 520.783 452.618 520.915C449.308 520.737 446.056 520.664 442.843 520.655C439.662 520.349 436.526 520.114 433.445 519.976C430.063 519.508 426.742 519.139 423.485 518.871C420.281 518.316 417.139 517.858 414.058 517.495C370.488 508.362 339.339 519.348 309.074 530.03C292.316 535.943 274.987 542.06 255.763 544.679ZM561.637 473.745C596.935 444.296 636.133 411.615 684.894 403.484C637.795 414.371 599.518 444.657 564.894 472.074C557.16 478.199 549.625 484.165 542.221 489.749C548.579 484.636 555.036 479.253 561.637 473.745ZM533.77 494.008C541.492 487.636 549.238 480.839 557.069 473.954C591.014 444.128 628.692 411.052 675.295 403.445C630.383 413.959 593.657 444.558 560.42 472.291C551.3 479.902 542.459 487.275 533.77 494.008ZM566.07 473.56C602.82 444.458 643.706 412.108 694.812 403.439C645.294 414.754 605.31 444.762 569.188 471.896C562.833 476.67 556.617 481.341 550.499 485.802C555.612 481.84 560.795 477.739 566.07 473.56ZM570.328 473.412C608.548 444.701 651.108 412.751 704.642 403.388C652.606 415.271 610.889 444.975 573.245 471.787C568.533 475.144 563.897 478.442 559.321 481.654C562.948 478.957 566.616 476.202 570.328 473.412ZM574.341 473.331C614.181 444.957 658.609 413.341 714.938 403.247C659.977 415.775 616.298 445.229 576.946 471.787C574.218 473.627 571.517 475.45 568.839 477.248C570.664 475.951 572.495 474.649 574.341 473.331ZM725.965 402.906C667.44 416.183 621.467 445.543 580.125 471.961C579.809 472.166 579.493 472.364 579.177 472.567C620.585 444.626 666.844 413.677 725.965 402.906ZM736.549 402.647C678.026 416.098 631.841 442.674 590.493 467.596C631.691 441.401 677.916 413.756 736.549 402.647ZM748.155 402.115C690.039 415.601 643.875 439.303 602.778 462.451C643.771 438.113 689.962 413.478 748.155 402.115ZM454.684 527.757C455.665 527.877 456.645 527.96 457.62 528.033C457.589 528.045 457.559 528.055 457.528 528.067C456.472 528.027 455.41 527.954 454.348 527.857C454.461 527.822 454.571 527.792 454.684 527.757ZM452.827 525.576C452.878 525.566 452.929 525.553 452.977 525.541C453.533 525.639 454.086 525.708 454.64 525.791C454.609 525.801 454.581 525.809 454.548 525.819C453.977 525.748 453.403 525.665 452.827 525.576ZM448.205 526.648C448.917 526.804 449.624 526.944 450.334 527.076C450.133 527.139 449.934 527.204 449.734 527.269C448.975 527.141 448.215 526.987 447.455 526.833C447.704 526.772 447.954 526.709 448.205 526.648ZM447.433 524.528C447.548 524.509 447.662 524.491 447.777 524.473C448.014 524.526 448.25 524.574 448.489 524.627C448.379 524.653 448.272 524.68 448.162 524.706C447.919 524.653 447.676 524.584 447.433 524.528ZM444.26 525.661C443.978 525.732 443.698 525.805 443.417 525.878C442.924 525.744 442.431 525.61 441.939 525.464C442.255 525.407 442.573 525.347 442.892 525.292C443.153 525.365 443.411 525.43 443.674 525.507C443.869 525.566 444.063 525.606 444.26 525.661ZM438.693 524.13C438.505 524.169 438.318 524.207 438.134 524.246C437.911 524.167 437.69 524.098 437.467 524.021C437.647 524.001 437.827 523.98 438.01 523.962C438.239 524.019 438.462 524.071 438.693 524.13ZM309.704 531.816C334.599 523.029 360.1 514.046 392.684 516.392C365.405 516.81 342.536 524.146 320.155 531.339C308.064 535.226 295.562 539.244 282.695 542.013C276.165 543.416 267.487 545.172 258.23 546.281C257.877 546.323 257.522 546.334 257.172 546.372C276.123 543.645 293.196 537.644 309.704 531.816ZM283.094 543.866C296.051 541.077 308.599 537.044 320.735 533.144C345.554 525.164 370.984 517 402.401 518.442C376.426 519.494 354.022 526.192 332.104 532.757C316.487 537.436 301.737 541.851 285.78 544.363L283.457 544.73C276.102 545.892 268.498 547.094 260.687 547.885C260.616 547.893 260.543 547.897 260.472 547.905C269.043 546.782 277.002 545.176 283.094 543.866ZM283.755 546.601L286.079 546.234C302.161 543.704 317.659 539.062 332.649 534.573C357.191 527.222 382.345 519.694 412.454 520.226C387.9 521.904 366.151 528.106 344.894 534.202C326.036 539.609 308.224 544.718 288.87 546.717C285.626 547.051 282.373 547.428 279.091 547.807C274.371 548.355 269.498 548.902 264.579 549.348C271.14 548.576 277.542 547.582 283.755 546.601ZM279.31 549.689C282.582 549.31 285.831 548.937 289.067 548.6C308.585 546.583 326.476 541.454 345.415 536.023C369.221 529.197 393.633 522.231 421.913 521.718C399.226 524.061 378.611 529.866 358.452 535.566C336.107 541.886 314.999 547.854 291.952 549.073C286.871 549.338 281.661 549.782 276.619 550.21C274.124 550.421 271.588 550.615 269.06 550.812C272.526 550.455 275.962 550.078 279.31 549.689ZM276.784 552.099C282.038 551.653 287.003 551.232 292.055 550.964C315.316 549.737 336.521 543.741 358.969 537.391C380.853 531.202 403.281 524.884 428.289 523.062C428.492 523.121 428.697 523.19 428.899 523.25C409.182 526.263 390.76 531.552 372.722 536.732C346.667 544.217 322.06 551.288 295.037 551.432C288.384 551.469 281.868 551.866 274.975 552.286C274.318 552.326 273.651 552.363 272.991 552.403C274.251 552.296 275.531 552.205 276.784 552.099ZM295.049 553.326C322.334 553.182 347.063 546.076 373.245 538.553C392.419 533.044 412.028 527.425 433.138 524.562C433.562 524.7 433.996 524.854 434.424 524.996C418.27 528.371 402.79 533.008 387.61 537.561C357.667 546.542 329.395 555.045 298.116 553.792C291.645 553.541 285.065 553.715 278.602 553.966C284.189 553.636 289.586 553.356 295.049 553.326ZM298.043 555.686C329.624 556.93 358.057 548.404 388.153 539.374C404.29 534.533 420.77 529.602 438.014 526.202C438.64 526.421 439.257 526.596 439.879 526.794C427.328 530.121 415.073 534.042 403.027 537.902C369.057 548.787 336.969 559.069 301.196 556.152C296.523 555.771 291.81 555.645 287.102 555.645C286.154 555.645 285.209 555.667 284.264 555.678C288.882 555.552 293.442 555.507 298.043 555.686ZM301.04 558.041C305.289 558.388 309.477 558.55 313.627 558.55C344.798 558.548 373.466 549.365 403.605 539.708C416.606 535.542 429.852 531.303 443.443 527.83C444.284 528.047 445.128 528.28 445.965 528.463C436.818 531.378 427.778 534.512 418.877 537.616C382.467 550.309 344.812 563.436 304.271 558.52C300.397 558.052 296.551 557.784 292.714 557.628C295.483 557.697 298.252 557.814 301.04 558.041ZM303.56 560.346C303.72 560.367 303.88 560.379 304.04 560.397C310.106 561.131 316.098 561.468 322.03 561.468C356.202 561.468 388.303 550.277 419.499 539.402C429.485 535.921 439.638 532.392 449.922 529.195C451.055 529.367 452.185 529.499 453.312 529.608C447.185 531.881 441.095 534.216 435.081 536.529C394.701 552.059 352.95 568.127 307.34 560.88C306.078 560.681 304.819 560.507 303.56 560.346ZM309.658 563.114C316.635 564.091 323.526 564.571 330.33 564.571C367.455 564.569 402.087 551.252 435.762 538.301C443.1 535.477 450.549 532.623 458.043 529.896C459.531 529.928 461.015 529.898 462.493 529.827C458.895 531.352 455.262 532.911 451.576 534.49C407.228 553.498 361.371 573.157 310.41 563.25C310.16 563.197 309.909 563.162 309.658 563.114ZM452.324 536.231C457.942 533.823 463.42 531.494 468.853 529.225C470.973 528.919 473.084 528.491 475.186 527.988C472.923 529.073 470.653 530.166 468.342 531.277C420.721 554.208 371.491 577.879 315.743 566.09C365 573.652 409.361 554.644 452.324 536.231ZM469.163 532.984C479.997 527.769 490.228 522.843 500.478 518.367C500.958 518.156 501.447 517.933 501.928 517.722C496.533 520.586 491.096 523.542 485.397 526.644C436.796 553.109 381.845 583.006 320.579 568.94C374.98 578.297 424.902 554.295 469.163 532.984ZM486.305 528.311C493.178 524.566 499.669 521.033 506.158 517.627L509.927 515.646C510.62 515.283 511.32 514.916 512.011 514.551C511.622 514.792 511.225 515.028 510.833 515.269C508.206 516.893 505.548 518.541 502.854 520.211C453.707 550.705 392.871 588.439 325.444 571.896C385.256 583.29 438.798 554.177 486.305 528.311ZM358.967 577.848C413.547 577.844 462.763 547.315 503.855 521.821C506.546 520.155 509.205 518.504 511.831 516.885C515.024 514.914 518.251 512.974 521.493 511.048C519.788 512.22 518.085 513.393 516.4 514.596C471.673 546.473 404.858 594.079 330.583 574.988C340.19 576.942 349.656 577.848 358.967 577.848ZM365.363 581.285C426.094 581.279 479.654 543.114 517.497 516.141C521.76 513.102 526.082 510.16 530.476 507.301C527.613 509.448 524.773 511.646 521.967 513.927C469.337 556.699 406.407 597.149 335.838 578.155C345.838 580.287 355.691 581.285 365.363 581.285ZM523.161 515.394C528.349 511.18 533.63 507.21 539.022 503.441C535.126 506.553 531.294 509.805 527.54 513.25C459.963 575.233 398.677 597.595 340.632 581.317C409.857 597.199 471.462 557.415 523.161 515.394ZM528.821 514.646C534.599 509.347 540.543 504.467 546.669 499.938C542.045 503.861 537.526 508.053 533.117 512.578C488.704 558.173 421.263 606.006 346.177 584.699C403.09 598.024 463.047 574.978 528.821 514.646ZM534.475 513.902C540.804 507.405 547.361 501.588 554.162 496.307C548.847 501.037 543.695 506.207 538.7 511.905C519.731 533.551 489.071 562.917 450.737 579.894C417.103 594.789 383.726 597.465 351.283 587.995C424.979 605.712 490.792 558.745 534.475 513.902ZM451.507 581.629C490.153 564.513 521.03 534.946 540.127 513.154C547 505.313 554.176 498.485 561.685 492.441C555.654 498.002 549.858 504.21 544.289 511.232C526.149 534.107 496.152 565.172 456.257 583.268C422.686 598.491 389.191 601.161 356.419 591.375C387.509 599.091 419.396 595.851 451.507 581.629ZM360.777 594.582C392.427 602.833 424.703 599.659 457.038 584.995C497.279 566.743 527.504 535.451 545.773 512.41C553.011 503.281 560.637 495.512 568.694 488.812C562.111 495.093 555.851 502.278 549.88 510.557C508.026 568.6 437.874 618.284 360.777 594.582ZM551.417 511.662C559.003 501.14 567.088 492.425 575.71 485.084C568.562 492.076 561.819 500.234 555.472 509.878C516.868 568.523 445.716 623.161 365.541 597.909C441.47 618.107 510.122 568.94 551.417 511.662ZM557.057 510.922C564.856 499.072 573.257 489.461 582.317 481.562C574.735 489.177 567.662 498.268 561.071 509.203C538.295 546.974 506.917 576.883 472.719 593.422C439.549 609.463 404.813 612.133 370.991 601.477C449.675 622.577 519.03 568.691 557.057 510.922ZM473.544 595.127C508.068 578.432 539.728 548.264 562.693 510.178C570.713 496.877 579.475 486.361 589.021 477.913C580.956 486.15 573.51 496.173 566.668 508.522C545.025 547.586 512.773 579.77 478.184 596.822C444.74 613.309 409.582 615.906 375.189 604.696C407.96 613.805 441.468 610.635 473.544 595.127ZM479.019 598.521C513.949 581.301 546.499 548.831 568.327 509.44C576.456 494.768 585.459 483.403 595.378 474.477C586.947 483.255 579.25 494.162 572.27 507.839C546.759 557.829 505.163 595.784 461.003 609.365C433.848 617.714 406.423 617.197 379.166 607.906C412.568 617.613 446.587 614.513 479.019 598.521ZM461.559 611.174C506.201 597.447 548.218 559.136 573.956 508.7C582.181 492.589 591.427 480.358 601.734 470.978C592.923 480.283 584.972 492.082 577.871 507.157C553.402 559.096 511.916 598.606 466.896 612.848C439.279 621.584 411.339 621.035 383.513 611.279C409.517 619.135 435.654 619.147 461.559 611.174ZM467.468 614.653C512.984 600.255 554.896 560.373 579.586 507.964C587.841 490.444 597.282 477.423 607.921 467.631C598.792 477.412 590.639 490.039 583.478 506.47C560.043 560.255 518.726 601.268 472.952 616.179C445.995 624.958 418.666 624.761 391.354 615.739C416.764 622.965 442.243 622.632 467.468 614.653ZM589.082 505.787C566.616 561.458 525.43 603.985 478.906 619.543C451.919 628.572 423.653 628.27 395.687 618.957C421.812 626.478 448.203 626.235 473.538 617.984C519.816 602.908 561.564 561.504 585.212 507.23C593.171 488.964 602.391 475.464 612.855 465.405C612.941 465.368 613.028 465.336 613.111 465.301C604.057 475.405 596.035 488.557 589.082 505.787ZM646.81 441.875C642.518 443.56 638.369 445.523 634.377 447.84C633.625 448.213 632.887 448.618 632.143 449.01C626.783 451.682 621.524 454.374 616.35 457.068C656.892 434.824 702.769 413.097 760.057 401.477C716.658 411.733 679.79 426.245 646.81 441.875ZM664.739 436.582C663.458 436.856 662.183 437.137 660.924 437.448C693.739 422.725 730.486 409.436 773.545 400.402C732.44 410.35 696.577 423.09 664.739 436.582ZM675.861 434.638C675.07 434.749 674.288 434.865 673.505 434.984C706.398 421.476 743.511 408.921 786.112 399.431C744.496 409.878 708.177 422.003 675.861 434.638ZM683.479 433.728C717.639 420.686 756.234 408.297 800.68 397.854C756.741 409.329 718.693 421.347 684.963 433.59C684.469 433.634 683.97 433.679 683.479 433.728ZM692.194 433.006C728.211 420.179 769.091 407.622 816.689 395.711C816.703 395.707 816.717 395.703 816.732 395.699C770.033 408.546 729.421 420.755 693.358 432.925C692.967 432.947 692.584 432.979 692.194 433.006ZM701.044 432.537C700.825 432.546 700.604 432.554 700.385 432.564C737.04 420.369 778.335 408.104 825.872 395.155C876.886 381.26 901.394 350.177 894.872 307.638C889.839 274.797 865.925 238.664 830.898 210.979C793.671 181.554 748.638 165.582 707.45 167.162C622.264 170.42 583.965 198.229 530.33 259.332C526.143 264.103 522.068 268.822 518.06 273.465C467.707 331.789 427.924 377.848 310.225 354.029C233.398 338.49 202.063 391.575 181.326 426.709C172.945 440.908 166.326 452.126 159.739 452.476L159.233 452.503L158.973 452.943C128.268 504.954 117.274 538.62 124.376 558.883C129.166 572.555 141.143 578.078 155.148 583.403C159.068 584.893 163.427 585.526 168.225 585.526C179.177 585.526 192.417 582.242 207.917 578.394C222.852 574.69 240.254 570.378 259.256 568.377C239.089 570.947 220.784 576.431 205.075 581.155C184.077 587.468 167.494 592.457 155.058 588.701C139.793 584.091 126.681 579.146 120.836 565.315C112.366 545.265 121.615 509.663 149.108 456.484C155.719 455.57 161.507 444.724 169.442 429.869C188.593 394.006 220.645 333.973 301.978 351.203C425.271 377.321 466.716 328.693 519.18 267.127C523.337 262.248 527.568 257.285 531.913 252.269C587.661 187.942 627.231 159.042 714.359 157.85C755.334 157.279 800.317 174.446 837.817 204.919C873.347 233.794 897.567 270.947 902.596 304.303C908.974 346.591 884.797 378.014 834.517 392.788C824.656 395.685 815.067 398.492 805.742 401.225C766.776 412.637 732.178 422.772 701.044 432.537ZM708.192 432.3C708.19 432.3 708.186 432.3 708.184 432.3C737.589 423.167 770.027 413.661 806.281 403.04C815.61 400.307 825.197 397.497 835.058 394.6C904.281 374.264 908.262 329.117 904.476 304.017C899.375 270.207 874.906 232.608 839.017 203.443C801.178 172.694 755.796 155.403 714.338 155.951C626.485 157.153 586.619 186.251 530.486 251.024C526.135 256.044 521.906 261.011 517.744 265.895C465.688 326.982 424.565 375.223 302.378 349.346C219.663 331.816 187.18 392.638 167.775 428.973C160.212 443.14 154.233 454.331 148.46 454.639L147.916 454.668L147.665 455.148C119.713 509.116 110.369 545.391 119.097 566.049C125.76 581.826 141.703 586.641 154.515 590.509C157.678 591.464 161.065 591.886 164.694 591.886C175.96 591.886 189.512 587.813 205.624 582.967C221.766 578.114 240.639 572.446 261.439 570.007C239.703 573.044 220.15 579.945 203.405 585.852C183.85 592.757 166.967 598.726 154.304 595.766C137.33 591.807 122.683 587.32 115.383 572.486C105.165 551.726 112.52 514.478 137.861 458.633C143.73 457.695 148.664 447.485 156.019 432.284C175.017 393.007 206.804 327.26 294.117 346.516C421.915 374.698 464.699 323.883 518.861 259.555C523.177 254.43 527.566 249.218 532.079 243.949C591.508 174.568 630.929 145.682 721.207 146.639C762.354 147.061 807.818 165.538 845.938 197.333C882.35 227.704 907.131 266.343 912.222 300.688C918.616 343.811 894.272 376.33 843.67 392.24C803.027 405.02 766.632 415.482 734.52 424.71C725.458 427.313 716.69 429.833 708.192 432.3ZM721.395 430.457C725.878 429.166 730.41 427.864 735.041 426.53C767.163 417.298 803.573 406.835 844.237 394.047C895.833 377.822 920.643 344.569 914.095 300.41C908.938 265.617 883.909 226.538 847.151 195.877C808.699 163.807 762.804 145.169 721.225 144.744C675.691 144.285 642.016 151.58 612.215 168.427C583.345 184.747 558.723 209.928 530.64 242.716C526.125 247.989 521.732 253.206 517.414 258.335C463.663 322.172 421.208 372.595 294.526 344.665C205.748 325.083 173.557 391.679 154.314 431.459C147.537 445.47 142.185 456.537 137.174 456.805L136.6 456.835L136.361 457.36C110.588 514.028 103.171 551.959 113.684 573.323C121.975 590.173 140.415 594.477 153.877 597.615C156.301 598.181 158.86 598.438 161.542 598.438C173.458 598.438 187.849 593.358 204.037 587.645C221.338 581.536 241.661 574.392 264.247 571.578C240.901 575.014 220.044 583.422 202.267 590.615C183.075 598.379 166.502 605.084 153.556 602.846C135.578 599.744 118.705 595.642 109.828 579.77C97.8024 558.275 103.292 519.35 126.612 460.786C131.789 459.781 136.17 449.778 142.676 434.928C160.198 394.932 192.81 320.475 286.253 341.829C312.439 347.811 335.157 350.534 355.212 350.532C436.467 350.526 473.73 305.797 518.533 252C523.007 246.625 527.56 241.159 532.243 235.635C594.292 162.41 635.186 132.326 728.051 135.43C820.21 138.534 911.65 226.913 921.867 297.091C928.267 341.066 903.748 374.665 852.823 391.699C802.747 408.445 759.646 420.195 721.395 430.457ZM735.134 428.72C770.064 419.279 808.989 408.355 853.421 393.495C905.317 376.135 930.289 341.802 923.741 296.816C912.388 218.816 813.658 136.413 728.112 133.532C634.484 130.366 593.264 160.686 530.794 234.404C526.107 239.933 521.551 245.405 517.073 250.781C461.632 317.355 417.839 369.944 286.675 339.976C191.681 318.273 158.679 393.663 140.938 434.161C134.924 447.888 130.174 458.733 125.886 458.962L125.28 458.994L125.057 459.556C101.338 518.977 95.8136 558.599 108.172 580.689C117.459 597.291 134.786 601.524 153.234 604.709C155.062 605.023 156.952 605.173 158.902 605.173C171.325 605.173 186.161 599.172 202.979 592.368C221.484 584.883 243.334 576.062 267.817 572.997C242.691 576.707 220.436 586.795 201.544 595.387C182.538 604.031 166.135 611.488 152.808 609.923C134.017 607.695 114.789 604.106 104.202 587.156C90.3116 564.912 93.9586 524.272 115.356 462.929C119.867 461.893 123.526 452.657 129.416 437.798C146.613 394.399 178.636 313.614 278.385 337.141C305.95 343.641 329.788 346.593 350.783 346.591C433.984 346.587 472.238 300.193 518.192 244.448C522.829 238.824 527.548 233.101 532.399 227.317C563.834 189.854 589.353 163.206 619.401 146.146C650.932 128.245 686.544 121.484 734.891 124.221C776.454 126.577 822.868 147.669 862.233 182.093C900.433 215.501 926.338 257.153 931.527 293.511C936.052 325.227 927.659 367.908 861.97 391.154C813.932 408.151 772.397 419.39 735.134 428.72ZM748.011 427.416C782.094 418.681 819.758 408.102 862.598 392.94C914.794 374.471 939.938 339.063 933.401 293.244C922.02 213.507 821.889 127.25 734.994 122.329C686.269 119.566 650.325 126.406 618.461 144.5C588.165 161.702 562.514 188.475 530.946 226.1C526.089 231.888 521.367 237.616 516.727 243.243C459.596 312.548 414.475 367.29 278.819 335.299C177.484 311.402 145.06 393.171 127.652 437.103C122.373 450.418 118.205 460.94 114.6 461.133L113.966 461.167L113.755 461.768C91.9882 523.99 88.3371 565.336 102.593 588.166C113.621 605.83 133.336 609.532 152.583 611.81C153.868 611.964 155.174 612.035 156.508 612.035C169.533 612.035 184.849 605.069 202.326 597.12C221.693 588.312 244.601 577.899 270.463 574.526C244.059 578.57 220.823 590.254 201.14 600.167C182.177 609.72 165.789 617.977 152.064 617.01C131.783 615.595 110.945 612.7 98.5322 594.643C82.7256 571.643 84.5481 529.255 104.101 465.074C107.995 463.953 111.166 455.09 116.236 440.912C124.203 418.634 136.243 384.968 159.569 360.194C187.365 330.672 224.689 321.34 270.519 332.46C411.828 366.744 458.613 309.452 517.848 236.914C522.648 231.035 527.532 225.052 532.562 219.007C597.542 140.843 639.37 104.911 741.731 113.016C783.527 116.326 830.432 138.718 870.417 174.452C910.107 209.922 935.912 252.022 941.212 289.957C945.728 322.279 937.232 365.98 871.121 390.614C824.737 407.893 784.391 418.823 748.011 427.416ZM761.916 426.013C794.8 417.9 830.957 407.599 871.78 392.386C939.071 367.31 947.697 322.699 943.085 289.688C937.723 251.314 911.699 208.795 871.678 173.031C831.391 137.028 784.078 114.459 741.877 111.118C638.626 102.948 596.51 139.114 531.1 217.786C526.07 223.836 521.18 229.825 516.378 235.706C457.565 307.727 411.112 364.618 270.963 330.609C163.036 304.428 130.216 396.173 114.45 440.268C110.061 452.537 106.272 463.132 103.31 463.29L102.648 463.327L102.453 463.961C82.5593 529.044 80.7652 572.137 96.9671 595.709C109.856 614.462 132.096 617.511 151.928 618.898C152.707 618.951 153.491 618.977 154.282 618.977C168.002 618.977 183.825 611.005 201.99 601.856C222.005 591.772 245.712 579.829 272.636 576.111C245.241 580.527 221.275 593.735 200.988 604.917C181.956 615.409 165.487 624.467 151.32 624.094C130.543 623.551 107.174 621.365 92.8335 602.199C75.0584 578.445 75.0585 534.285 92.8376 467.213C95.9819 466.147 98.3923 459.039 103.142 444.266C118.233 397.321 149.629 299.622 262.649 327.769C408.467 364.07 456.576 304.631 517.491 229.377C522.456 223.242 527.512 216.996 532.716 210.685C600.341 128.653 643.668 91.1612 748.567 101.801C790.616 106.064 838.022 129.751 878.626 166.789C919.24 203.832 945.586 247.434 950.91 286.415C955.409 319.347 946.805 364.064 880.266 390.067C836.426 407.204 796.929 418.048 761.916 426.013ZM771.785 425.663C804.487 417.896 840.898 407.49 880.959 391.833C948.646 365.38 957.383 319.767 952.793 286.158C947.409 246.745 920.844 202.725 879.907 165.388C839.007 128.083 791.206 104.219 748.765 99.9152C642.979 89.1926 599.323 126.913 531.258 209.48C526.052 215.797 520.994 222.046 516.021 228.186C455.532 302.918 407.739 361.942 263.114 325.93C213.736 313.636 173.9 324.029 144.725 356.817C120.524 384.015 108.983 419.923 101.344 443.686C97.6098 455.3 94.3864 465.334 92.0287 465.457L91.3394 465.496L91.161 466.161C73.0758 534.149 73.1285 579.02 91.3212 603.336C106.167 623.182 130.054 625.434 151.278 625.99C151.574 625.998 151.874 626.002 152.174 626.002C166.671 626.002 183.029 616.984 201.906 606.58C222.499 595.227 246.922 581.788 274.783 577.721C246.506 582.507 221.875 597.205 201.049 609.641C181.871 621.094 165.306 630.985 150.588 631.184C126.804 631.492 102.71 629.142 87.1268 609.838C67.6204 585.668 65.7553 538.405 81.5842 469.344C84.1994 468.243 86.1314 461.863 90.1474 447.882C103.503 401.383 134.745 292.481 254.79 323.084C405.107 361.402 454.548 299.822 517.136 221.855C522.269 215.461 527.493 208.951 532.876 202.372C603.183 116.408 648.081 77.3631 755.413 90.5915C797.736 95.8098 845.652 120.789 886.873 159.123C928.416 197.756 955.303 242.872 960.641 282.906C965.113 316.448 956.388 362.175 889.421 389.526C845.961 407.277 806.745 418.081 771.785 425.663ZM890.139 391.281C958.222 363.47 967.077 316.86 962.518 282.655C957.126 242.193 930.023 196.661 888.164 157.735C846.654 119.132 798.352 93.9751 755.646 88.7101C647.351 75.3622 602.164 114.656 531.41 201.172C526.026 207.755 520.797 214.269 515.658 220.669C453.496 298.101 404.398 359.27 255.256 321.247C133.46 290.205 101.833 400.333 88.3249 447.359C85.4766 457.277 82.531 467.527 80.7389 467.622L80.0253 467.661L79.8651 468.358C63.5335 539.303 65.4289 585.97 85.6509 611.028C100.902 629.927 123.837 633.105 146.822 633.105C148.085 633.105 149.35 633.097 150.613 633.079C165.839 632.872 182.607 622.863 202.018 611.271C224.115 598.077 248.459 583.557 276.648 579.268C248.104 584.285 223.574 600.019 201.266 614.33C181.871 626.772 165.12 637.519 149.856 638.277C107.168 640.39 91.3029 628.98 81.4119 617.534C59.8864 592.624 56.1562 543.485 70.3228 471.466C72.4088 470.361 73.8989 464.908 77.2378 451.781C85.1928 420.521 101.743 355.479 150.088 326.928C176.401 311.388 208.984 308.522 246.92 318.401C279.863 326.98 308.08 330.851 332.734 330.849C423.945 330.842 466.181 277.846 516.769 214.344C522.073 207.686 527.471 200.911 533.032 194.058C570.948 147.357 599.301 116.633 632.037 97.7844C667.802 77.1888 707.959 71.5123 762.253 79.3824C804.246 85.4664 853.924 112.412 895.146 151.454C937.621 191.684 965.046 238.329 970.384 279.421C976.75 328.395 951.916 366.28 898.572 388.982C856.158 407.032 817.751 417.787 783.286 425.03C815.477 417.582 851.089 407.23 890.139 391.281ZM899.316 390.724C967.803 361.579 976.788 313.977 972.267 279.174C966.873 237.656 939.239 190.602 896.452 150.075C854.956 110.774 804.892 83.6438 762.524 77.5051C707.788 69.5721 667.251 75.3196 631.093 96.1403C598.103 115.134 569.618 145.988 531.56 192.862C525.997 199.717 520.595 206.5 515.287 213.16C451.455 293.286 401.033 356.575 247.398 316.564C208.945 306.551 175.887 309.489 149.125 325.294C100.097 354.246 83.4189 419.806 75.4031 451.313C73.1569 460.138 70.8357 469.263 69.4328 469.788L68.7152 469.828L68.5732 470.552C54.1614 543.467 58.0011 593.333 79.9786 618.77C89.3446 629.61 103.858 640.426 139.931 640.426C143.1 640.426 146.438 640.343 149.948 640.167C165.722 639.384 182.67 628.514 202.292 615.926C225.186 601.24 250.445 585.05 279.903 580.679C250.123 585.802 224.703 603.182 201.623 618.975C181.956 632.434 164.974 644.055 149.125 645.367C123.867 647.457 95.3919 646.699 75.7011 625.284C52.124 599.638 46.5247 548.6 59.0613 473.581C60.6872 472.498 61.7778 467.916 64.4356 455.973C71.827 422.762 87.2099 353.66 138.046 322.766C165.306 306.196 199.289 303.151 239.056 313.714C273.315 322.814 302.611 326.911 328.156 326.911C421.421 326.909 464.646 272.267 516.4 206.833C521.874 199.913 527.447 192.866 533.19 185.744C567.191 143.57 598.342 106.922 635.232 85.5921C672.096 64.2808 713.375 58.9104 769.095 68.1712C811.402 75.2061 861.629 103.471 903.452 143.781C946.866 185.623 974.82 233.8 980.151 275.961C986.452 325.807 961.407 364.703 907.719 388.443C866.039 406.871 828.186 417.641 794.046 424.621C825.899 417.412 860.966 407.044 899.316 390.724ZM908.492 390.172C977.384 359.71 986.513 311.119 982.037 275.721C976.652 233.137 948.491 184.548 904.773 142.412C862.685 101.847 812.081 73.3936 769.411 66.298C713.238 56.958 671.559 62.4014 634.29 83.9479C597.116 105.442 565.843 142.226 531.718 184.552C525.973 191.68 520.396 198.731 514.918 205.657C449.417 288.471 397.686 353.891 239.545 311.881C199.267 301.183 164.783 304.297 137.064 321.144C85.5415 352.456 70.0369 422.095 62.5908 455.56C60.8169 463.519 59.1424 471.045 58.0619 471.957L57.4091 471.993L57.2834 472.741C44.5339 548.655 50.2609 600.407 74.3084 626.565C90.1656 643.812 111.407 648.039 132.227 648.039C137.983 648.039 143.712 647.714 149.283 647.254C165.629 645.904 182.806 634.15 202.695 620.54C226.088 604.53 251.899 586.88 282.14 582.246C251.605 587.659 225.646 606.48 202.091 623.577C182.11 638.074 164.856 650.597 148.403 652.454C123.419 655.274 91.9334 655.621 70.0004 633.075C44.3393 606.699 36.8709 553.748 47.8019 475.671C49.0061 474.617 49.7764 470.82 51.7469 460.496C57.9483 428.061 72.4635 352.103 125.943 318.654C154.156 301.008 189.566 297.767 231.194 309.024C266.777 318.65 297.131 322.976 323.569 322.976C418.883 322.97 463.114 266.688 516.033 199.325C521.635 192.195 527.429 184.822 533.354 177.424C607.161 85.2819 654.806 34.26 775.943 56.954C818.594 64.9478 869.384 94.5346 911.802 136.101C956.155 179.561 984.64 229.283 989.949 272.522C996.179 323.238 970.913 363.132 916.882 387.896C875.8 406.719 838.395 417.547 804.515 424.319C836.092 417.3 870.716 406.875 908.492 390.172ZM917.669 389.617C972.527 364.48 998.17 323.907 991.828 272.291C986.464 228.635 957.78 178.503 913.128 134.747C870.45 92.929 819.298 63.1516 776.292 55.0909C718.705 44.2974 675.899 49.4245 637.505 71.717C599.63 93.7075 567.258 132.065 531.874 176.238C525.943 183.642 520.149 191.019 514.543 198.154C447.376 283.652 394.324 351.183 231.691 307.196C189.536 295.792 153.619 299.107 124.939 317.046C70.7586 350.933 56.1339 427.459 49.8879 460.14C48.625 466.749 47.4309 473.001 46.6504 474.124L46.101 474.154L45.9915 474.929C34.8801 553.871 42.5006 607.525 68.6442 634.397C85.1157 651.329 106.698 655.692 127.048 655.692C134.508 655.692 141.8 655.106 148.616 654.338C165.568 652.424 183.012 639.765 203.208 625.108C226.576 608.149 252.333 589.489 282.488 584.131C252.047 590.26 226.163 610.083 202.63 628.116C183.156 643.041 164.757 657.137 147.681 659.544C121.525 663.221 88.4242 664.432 64.3139 640.911C36.5445 613.813 27.1988 558.929 36.5364 477.777C37.3189 476.871 37.8237 474 39.19 465.407C44.171 434.094 57.401 350.921 113.741 314.624C142.921 295.82 179.793 292.364 223.335 304.339C260.194 314.478 291.585 319.033 318.886 319.031C416.034 319.025 461.204 261.329 515.226 192.313C521.14 184.759 527.252 176.948 533.516 169.108C609.731 73.0287 658.88 19.9268 782.791 45.7429C825.81 54.7057 877.172 85.6164 920.181 128.432C965.476 173.521 994.48 224.799 999.763 269.118C1005.91 320.696 980.413 361.579 926.038 387.352C885.423 406.6 848.351 417.529 814.658 424.138C846.032 417.255 880.333 406.73 917.669 389.617ZM926.844 389.065C982.027 362.913 1007.89 321.357 1001.64 268.893C996.311 224.16 967.106 172.475 921.515 127.09C878.255 84.027 826.539 52.9237 783.172 43.8899C724.16 31.5921 680.207 36.3786 640.674 59.403C601.906 81.9834 568.533 121.912 532.03 167.93C525.76 175.776 519.646 183.589 513.732 191.147C444.965 279.004 390.649 348.397 223.835 302.515C179.753 290.387 142.364 293.927 112.715 313.032C55.6596 349.79 42.3344 433.571 37.3189 465.113C36.4695 470.453 35.7275 475.115 35.2207 476.301L34.797 476.324L34.7057 477.118C25.21 559.128 34.728 614.693 62.9902 642.271C80.0597 658.928 101.413 663.495 121.748 663.495C130.841 663.495 139.734 662.583 147.945 661.425C165.519 658.952 184.105 644.708 203.782 629.625C228.356 610.791 255.528 589.984 287.66 585.163C255.258 590.827 227.981 612.757 203.267 632.643C183.432 648.606 164.694 663.688 146.959 666.64C121.795 670.83 85.2536 673.541 58.6376 648.785C28.7294 620.968 17.5044 564.136 25.2708 479.851C25.7533 479.022 26.0311 476.792 26.7852 470.775C30.5134 440.979 41.86 350.309 101.38 310.715C131.542 290.653 169.926 286.935 215.471 299.656C253.648 310.322 286.099 315.106 314.29 315.104C413.583 315.096 459.781 255.693 514.989 184.668C521.028 176.897 527.274 168.863 533.677 160.798C612.643 60.8019 663.464 5.63616 789.637 34.5337C833.053 44.4778 884.998 76.7144 928.592 120.768C974.832 167.492 1004.35 220.331 1009.6 265.737C1015.64 318.174 989.919 360.042 935.193 386.811C894.897 406.523 858.035 417.58 824.441 424.059C855.712 417.278 889.804 406.622 926.844 389.065ZM936.022 388.51C991.534 361.354 1017.63 318.824 1011.47 265.518C1006.19 219.7 976.468 166.454 929.936 119.432C886.1 75.1351 833.807 42.7059 790.055 32.6848C662.765 3.52975 611.623 59.0259 532.187 159.618C525.782 167.691 519.532 175.729 513.489 183.502C477.485 229.821 446.391 269.824 402.348 292.95C354.053 318.307 294.832 319.856 215.978 297.829C169.88 284.952 130.968 288.755 100.326 309.136C40.082 349.21 28.6544 440.531 24.8999 470.538C24.4458 474.165 23.4139 479.3 23.4139 479.3C15.5217 564.403 26.9373 621.892 57.3442 650.169C75.1213 666.702 97.1131 671.276 117.359 671.276C128.126 671.276 138.396 669.983 147.27 668.505C165.493 665.472 184.417 650.242 204.455 634.117C229.437 614.01 257.066 591.797 289.857 586.736C256.805 592.664 229.082 615.983 203.966 637.124C183.744 654.147 164.645 670.224 146.238 673.729C120.039 678.718 81.8599 682.378 52.9734 656.683C20.896 628.151 7.78569 569.322 13.9993 481.84C14.2 481.155 14.3196 479.73 14.577 476.735C23.5598 372.449 59.8945 326.804 88.7952 306.877C119.962 285.386 159.94 281.38 207.603 294.969C247.009 306.075 280.473 311.056 309.512 311.054C411.207 311.048 458.422 249.938 514.845 176.887C520.98 168.944 527.325 160.729 533.825 152.482C615.576 48.5304 668.076 -8.7275 796.473 23.3185C840.315 34.26 892.859 67.8245 937.029 113.105C984.212 161.473 1014.25 215.881 1019.44 262.379C1025.38 315.67 999.414 358.509 944.342 386.264C904.328 406.427 867.648 417.639 834.135 424.019C865.325 417.314 899.241 406.5 936.022 388.51ZM953.497 385.72C913.596 406.403 876.97 417.778 843.431 424.079C874.642 417.428 908.514 406.444 945.195 387.956C1001.04 359.813 1027.36 316.319 1021.32 262.171C1016.09 215.262 985.86 160.447 938.39 111.783C893.984 66.2615 841.103 32.5044 796.935 21.4818C667.401 -10.842 614.573 46.7443 532.339 151.312C525.833 159.565 519.486 167.784 513.347 175.729C476.475 223.471 444.629 264.701 399.474 288.461C349.982 314.502 289.18 315.994 208.122 293.148C159.885 279.401 119.379 283.496 87.7187 305.318C34.7503 341.839 17.6808 418.606 12.6896 476.575C12.5416 478.298 12.1849 480.654 12.1849 480.654L12.124 481.489C5.82734 569.711 19.1465 629.132 51.7125 658.102C70.1342 674.489 92.1605 679.205 112.587 679.205C124.878 679.205 136.596 677.496 146.588 675.594C165.483 671.998 184.766 655.765 205.183 638.575C229.356 618.229 255.964 595.835 287.317 589.177C255.935 596.632 229.36 619.94 204.714 641.57C184.091 659.672 164.613 676.766 145.518 680.823C102.85 689.887 70.7262 684.587 47.3214 664.612C13.0485 635.36 -1.95532 574.518 2.72766 483.768L2.72969 483.726C2.7378 482.465 4.31906 357.038 74.0651 304.844C94.3499 289.663 118.464 282.059 146.136 282.059C162.742 282.059 180.636 284.802 199.737 290.288C240.522 302.006 275.101 307.254 305.058 307.252C408.69 307.248 456.908 244.431 514.501 169.378C520.797 161.173 527.309 152.689 533.979 144.172C575.795 90.7902 611 48.054 651.519 24.1011C694.051 -1.04796 740.867 -4.74785 803.313 12.1094C847.609 24.0626 900.762 58.959 945.501 105.454C993.629 155.472 1024.17 211.457 1029.3 259.051C1035.14 313.188 1008.92 356.991 953.497 385.72Z" fill="#CCB57C"/>
</svg>
