<svg width="116" height="110" viewBox="0 0 116 110" fill="none" xmlns="http://www.w3.org/2000/svg">
<ellipse cx="58" cy="55" rx="58" ry="55" fill="#3F5771"/>
<path d="M63.2795 23C47.6068 23 34.5389 34.3289 31.8112 49.2257C23.0034 56.9553 19.3195 64.1548 21.7158 69.0059C23.3887 72.3917 27.7542 74.095 33.9661 74.095C35.0776 74.095 36.2649 74.0244 37.4905 73.9155C43.3206 81.8429 52.7073 87 63.2804 87C80.9249 87 95.2804 72.6445 95.2804 55C95.2804 37.3555 80.9249 23 63.2795 23ZM85.5999 34.5965C83.3482 35.5554 80.7645 36.3591 77.9218 36.9754C76.0293 31.929 73.3618 27.961 70.2367 25.5594C76.2428 26.9785 81.5647 30.1865 85.5999 34.5965ZM64.0884 24.787C68.9744 25.2708 73.3801 30.1106 76.1618 37.332C72.4143 38.0241 68.3128 38.4094 64.0884 38.4539V24.787ZM56.3912 25.5437C53.2521 27.9566 50.5724 31.9508 48.6694 36.9868C45.8154 36.3696 43.2229 35.5589 40.9608 34.5956C45.01 30.1699 50.3571 26.955 56.3912 25.5437ZM62.345 24.8001V38.4513C58.1416 38.4007 54.0689 38.0145 50.3493 37.3259C53.0769 30.1621 57.4128 25.3441 62.345 24.8001ZM33.0613 53.4754C33.3917 46.866 35.8551 40.8127 39.7709 35.9808C42.1873 37.0591 44.9917 37.9587 48.0845 38.6395C46.6383 43.0208 45.7527 48.0742 45.6114 53.4762H33.0613V53.4754ZM47.7158 70.2351C44.3457 71.1338 41.177 71.744 38.3073 72.0596C35.0157 67.2555 33.0735 61.4594 33.0282 55.2197H45.5931C45.6141 60.6496 46.3803 65.7614 47.7158 70.2351ZM23.2788 68.2336C21.4491 64.5305 24.5629 58.3919 31.4312 51.9289C31.3344 52.9401 31.2804 53.9644 31.2804 55C31.2804 61.3409 33.1424 67.252 36.3363 72.2304C29.6154 72.6689 24.8131 71.3387 23.2788 68.2336ZM39.5138 73.6906C42.2144 73.3367 45.1381 72.7421 48.2519 71.9001C50.154 77.4416 52.9662 81.8507 56.3284 84.4415C49.5691 82.8454 43.6815 78.9793 39.5138 73.6906ZM64.0884 85.2365V78.1738C63.7877 78.5626 63.4068 78.893 62.9561 79.1301L62.345 79.4518V85.1955C57.1949 84.6071 52.6584 79.2077 49.9552 71.418C50.8967 71.1425 51.8521 70.8461 52.8223 70.528L53.2068 71.2602C53.3602 71.5514 53.6609 71.7257 53.9782 71.7257C54.0488 71.7257 54.1203 71.717 54.1918 71.6996L56.3144 71.1634L59.4204 77.0528C59.5773 77.3492 59.8789 77.5174 60.1927 77.5174C60.3296 77.5174 60.4682 77.4852 60.5981 77.4172L61.7383 76.8174C62.0233 76.6675 62.202 76.372 62.2038 76.0494L62.2308 69.6562C62.95 69.4479 63.5994 69.1881 64.2811 68.8298L66.8806 67.4621L69.8357 81.394C69.8924 81.6616 70.0719 81.8865 70.3186 82.0024C70.4363 82.0573 70.5627 82.0852 70.6891 82.0852C70.8286 82.0852 70.9681 82.0521 71.0953 81.985L74.6371 80.1204C74.8908 79.987 75.0617 79.7386 75.0965 79.4526L77.1956 62.0339L80.2798 60.4108C81.3337 59.8564 82.5131 58.697 83.4337 57.3101C84.1738 56.196 84.9426 54.6548 84.4065 53.6375C83.8495 52.5801 82.1583 52.3578 80.8368 52.3578C79.5109 52.3578 77.6341 52.5993 76.3422 53.2801L73.4045 54.8257L57.8574 46.6908C57.6037 46.5583 57.3004 46.5583 57.0467 46.6916L53.5049 48.5554C53.2634 48.6826 53.0952 48.9154 53.0507 49.1847C53.0054 49.455 53.0908 49.7296 53.2791 49.9275L63.0895 60.2547L60.49 61.6225C59.7978 61.9868 59.2086 62.3817 58.6193 62.8673L53.3977 59.3124C53.1318 59.1311 52.7866 59.1119 52.5024 59.2601L51.3613 59.8598C50.935 60.0839 50.7703 60.6104 50.9943 61.0375L54.0558 66.8676L52.4109 68.3129C52.2278 68.4742 52.138 68.6991 52.1276 68.931C51.2149 69.2274 50.3135 69.5046 49.4244 69.7626C48.1185 65.4258 47.3584 60.4578 47.3375 55.2205H54.6991L53.0429 53.4771H47.3558C47.4952 48.1744 48.36 43.23 49.7617 38.9865C53.6644 39.7283 57.9385 40.145 62.3467 40.1973V46.0893L64.0902 47.002V40.1991C68.522 40.1529 72.8292 39.7362 76.7624 38.9908C77.8529 42.2511 78.6227 45.9289 78.9862 49.8629C79.558 49.7923 80.1421 49.7514 80.7279 49.747C80.3635 45.7231 79.5955 41.9739 78.5023 38.6326C81.5848 37.9526 84.3865 37.0591 86.7924 35.9869C90.7073 40.8171 93.1699 46.8695 93.4994 53.4771H87.0923C87.2126 54.0263 87.2326 54.606 87.135 55.2205H93.5317C93.4785 62.5814 90.7831 69.3232 86.3496 74.5483C84.0944 73.5842 81.4854 72.7543 78.6157 72.1136L78.4065 73.851C80.8717 74.4106 83.1294 75.1097 85.1143 75.9152C79.7768 81.4829 72.341 85.0186 64.0884 85.2365ZM64.6925 59.41L55.3364 49.5613L57.4538 48.4473L71.5286 55.8124L64.6925 59.41ZM77.1547 54.8213C77.9741 54.3907 79.4551 54.1004 80.8377 54.1004C82.0232 54.1004 82.6674 54.3157 82.847 54.4456C82.8697 55.2327 81.1489 57.9839 79.4682 58.867L75.9839 60.7011C75.9822 60.7019 75.9805 60.7019 75.9787 60.7028L67.0889 65.3813C67.088 65.3813 67.088 65.3822 67.0872 65.3822L63.4695 67.2869C62.78 67.6504 62.1602 67.8866 61.3992 68.0802L54.6939 69.7748L54.3853 68.8961L59.4744 64.4224C60.0646 63.9038 60.6111 63.528 61.3016 63.1654L77.1547 54.8213ZM75.3206 63.019L73.4202 78.7893L71.3019 79.9033L68.4845 66.6157L75.3206 63.019ZM60.4856 70.1087L60.4638 75.2902L58.0544 70.7232L60.4856 70.1087ZM55.4017 65.6803L53.035 61.1735L57.2576 64.0485L55.4017 65.6803Z" fill="#CCB57C" stroke="#CCB57C"/>
</svg>
