<svg width="117" height="110" viewBox="0 0 117 110" fill="none" xmlns="http://www.w3.org/2000/svg">
<ellipse cx="58.1429" cy="55" rx="58.1429" ry="55" fill="#3F5771"/>
<path d="M42.5592 45.9199C41.3924 47.8189 38.5073 46.037 39.6741 44.1429C44.7999 35.7999 53.8702 30.7229 63.6582 30.7229C79.192 30.7229 91.7967 43.3276 91.7967 58.8614C91.7967 74.3952 79.192 87 63.6582 87C53.8702 87 44.7999 81.918 39.6741 73.58C38.5073 71.6858 41.3924 69.9089 42.5592 71.803C47.0797 79.1598 55.0223 83.6071 63.6582 83.6071C77.3369 83.6071 88.4039 72.5402 88.4039 58.8614C88.4039 45.1827 77.3369 34.1157 63.6582 34.1157C55.0223 34.1157 47.0846 38.563 42.5592 45.9199Z" fill="#CCB57C"/>
<path d="M61.979 45.6417C61.979 43.4205 65.3572 43.4205 65.3572 45.6417L65.3474 58.0902L72.6847 64.4414C74.3641 65.8913 72.1526 68.4493 70.4733 66.9994L62.5502 60.1405C62.1938 59.8281 61.9644 59.3741 61.9644 58.8615L61.9741 45.6417H61.979Z" fill="#CCB57C"/>
<path d="M52.5034 26.3879C50.2725 26.3879 50.2725 23 52.5034 23H74.8082C77.0392 23 77.0392 26.3879 74.8082 26.3879H52.5034Z" fill="#CCB57C"/>
<path d="M33.5525 53.2328C31.3215 53.2328 31.3215 49.8448 33.5525 49.8448H49.8234C52.0544 49.8448 52.0544 53.2328 49.8234 53.2328H33.5525Z" fill="#CCB57C"/>
<path d="M29.6128 60.5554C27.3818 60.5554 27.3818 57.1675 29.6128 57.1675H49.8282C52.0592 57.1675 52.0592 60.5554 49.8282 60.5554H29.6128Z" fill="#CCB57C"/>
<path d="M25.6732 67.8781C23.4423 67.8781 23.4423 64.4902 25.6732 64.4902H49.8282C52.0592 64.4902 52.0592 67.8781 49.8282 67.8781H25.6732Z" fill="#CCB57C"/>
</svg>
