<svg width="117" height="110" viewBox="0 0 117 110" fill="none" xmlns="http://www.w3.org/2000/svg">
<ellipse cx="58.1429" cy="55" rx="58.1429" ry="55" fill="#3F5771"/>
<path d="M88.896 28.4294L89.2902 28.1218L88.896 28.4294C89.1734 28.7847 89.3248 29.2125 89.3233 29.6526C89.3136 32.5117 89.0598 42.1476 86.0636 52.9639C81.2709 69.9086 71.8875 81.2948 58.8199 85.9684C58.5248 86.0499 58.2131 86.0499 57.918 85.9685C44.9347 81.2945 35.4664 69.9068 30.7603 52.9649L30.7601 52.9644C27.7193 42.062 27.5032 32.246 27.5 29.5337C27.4996 29.1947 27.6253 28.867 27.854 28.6043L28.3494 28.1655C28.7951 27.7708 29.2734 27.4143 29.7562 27.2372C31.0308 26.7697 34.3392 25.9179 42.6405 25.2484C55.0136 24.2505 61.9866 24.2506 74.1826 25.2483C84.5912 26.0999 87.2348 27.247 87.7162 27.513L87.958 27.0753L87.7162 27.513C87.7646 27.5397 87.8012 27.5644 87.853 27.5994C87.8828 27.6194 87.9175 27.6429 87.9622 27.672L88.2347 27.2527L87.9622 27.672L88.3766 27.9412C88.5625 28.062 88.727 28.2129 88.8634 28.3876L88.896 28.4294ZM57.2853 83.1082C57.9738 83.3909 58.7623 83.3924 59.4521 83.1021C70.4056 78.4916 76.9837 67.9419 80.9235 57.5732C84.8682 47.1912 86.2072 36.8888 86.6193 32.618C86.7597 31.1629 85.7917 29.8848 84.3874 29.5603C81.5918 28.9143 76.4312 27.7773 72.6527 27.2703C61.5693 25.783 55.082 25.783 43.9986 27.2703C41.8775 27.5549 39.7953 28.0109 37.8692 28.4696C37.2924 28.6069 36.7315 28.744 36.1881 28.8768C34.9066 29.19 33.7225 29.4794 32.6568 29.6924C31.1388 29.9957 29.8696 31.309 29.9562 32.9482C30.2429 38.3779 31.2976 48.5259 35.1558 58.5045C39.014 68.4828 45.7007 78.3517 57.2853 83.1082Z" fill="#CCB57C" stroke="#CCB57C"/>
<path d="M47 48.6174L55.9012 58.7902C56.7298 59.7371 58.2165 59.6929 58.9872 58.6984L73 40.6174" stroke="#CCB57C" stroke-width="3" stroke-linecap="round"/>
</svg>
