<svg width="482" height="372" viewBox="0 0 482 372" fill="none" xmlns="http://www.w3.org/2000/svg">
<g clip-path="url(#clip0)">
<path opacity="0.1" d="M302.368 59.9735C282.301 72.669 256.273 71.8428 233.468 65.2435C210.663 58.6441 189.708 46.8745 167.496 38.5137C148.838 31.5006 129.358 26.9117 109.532 24.8592C81.2114 21.9298 49.5878 25.4954 29.8533 46.0199C7.87864 68.8803 9.56352 110.114 33.3322 131.09C45.4207 141.763 61.2538 147 75.0604 155.332C88.867 163.664 101.639 177.504 100.467 193.589C99.3797 208.478 86.7264 219.906 73.6318 227.075C63.5083 232.616 51.0401 238.664 49.8204 250.14C48.6433 261.245 59.1228 269.947 69.1325 274.894C101.786 291.037 142.014 290.88 174.54 274.486C186.144 268.637 196.813 260.86 208.983 256.302C240.938 244.333 276.145 256.383 309.981 260.789C338.711 264.51 367.891 262.589 395.886 255.134C412.64 250.662 429.46 243.825 441.231 231.087C449.717 221.9 454.994 210.278 459.973 198.802C465.267 186.559 470.355 174.231 475.237 161.817C478.17 154.363 481.056 146.767 481.81 138.791C483.182 124.343 477.406 110.062 469.532 97.8652C450.832 68.9087 419.36 48.5504 385.283 43.3801C351.206 38.2098 315.14 48.3178 288.704 70.409" fill="#238BF9"/>
<path opacity="0.1" d="M64.4242 372C100.005 372 128.848 366.359 128.848 359.4C128.848 352.44 100.005 346.799 64.4242 346.799C28.8437 346.799 0 352.44 0 359.4C0 366.359 28.8437 372 64.4242 372Z" fill="#1A2F45"/>
<path opacity="0.1" d="M255.813 345.683C330.397 345.683 390.86 340.042 390.86 333.083C390.86 326.124 330.397 320.482 255.813 320.482C181.228 320.482 120.766 326.124 120.766 333.083C120.766 340.042 181.228 345.683 255.813 345.683Z" fill="#1A2F45"/>
<path d="M347.48 243.369C347.48 243.369 366.412 209.822 394.941 200.165C406.906 196.106 417.353 188.476 424.496 178.05C427.876 173.093 430.796 167.838 433.219 162.349" stroke="#535461" stroke-width="2" stroke-miterlimit="10"/>
<path d="M451.126 156.149C447.875 159.301 432.744 162.563 432.744 162.563C432.744 162.563 436.461 147.536 439.707 144.379C441.267 142.864 443.365 142.031 445.539 142.064C447.713 142.096 449.785 142.991 451.3 144.552C452.814 146.113 453.646 148.212 453.614 150.386C453.581 152.561 452.687 154.634 451.126 156.149Z" fill="#1A2F45"/>
<path d="M442.569 183.348C438.127 184.227 423.656 178.738 423.656 178.738C423.656 178.738 434.937 168.141 439.375 167.258C440.441 167.022 441.544 167.001 442.618 167.197C443.693 167.393 444.717 167.802 445.631 168.399C446.546 168.996 447.332 169.77 447.943 170.675C448.555 171.581 448.979 172.599 449.192 173.67C449.404 174.742 449.401 175.845 449.182 176.915C448.963 177.986 448.532 179.001 447.915 179.903C447.298 180.804 446.508 181.573 445.59 182.165C444.672 182.757 443.645 183.159 442.569 183.348Z" fill="#1A2F45"/>
<path d="M411.387 212.78C407.115 211.298 397.386 199.253 397.386 199.253C397.386 199.253 412.474 195.797 416.75 197.278C417.792 197.611 418.756 198.149 419.587 198.861C420.417 199.572 421.098 200.442 421.587 201.42C422.077 202.398 422.366 203.465 422.437 204.556C422.509 205.648 422.361 206.743 422.004 207.776C421.646 208.81 421.085 209.762 420.355 210.575C419.624 211.389 418.738 212.049 417.749 212.515C416.759 212.981 415.687 213.245 414.594 213.29C413.502 213.336 412.411 213.162 411.387 212.78Z" fill="#1A2F45"/>
<path d="M382.81 229.734C378.344 228.998 366.725 218.762 366.725 218.762C366.725 218.762 381.011 212.808 385.477 213.539C386.54 213.714 387.557 214.097 388.471 214.666C389.385 215.234 390.178 215.977 390.806 216.852C391.433 217.727 391.881 218.717 392.126 219.766C392.371 220.815 392.406 221.901 392.231 222.964C392.056 224.026 391.674 225.043 391.105 225.958C390.537 226.872 389.794 227.666 388.919 228.293C388.045 228.921 387.055 229.37 386.007 229.614C384.958 229.859 383.872 229.895 382.81 229.72V229.734Z" fill="#1A2F45"/>
<path d="M411.036 167.011C411.036 171.541 419.227 184.678 419.227 184.678C419.227 184.678 427.429 171.546 427.434 167.016C427.382 164.875 426.496 162.839 424.964 161.343C423.432 159.847 421.375 159.009 419.235 159.009C417.094 159.009 415.037 159.847 413.505 161.343C411.974 162.839 411.087 164.875 411.036 167.016V167.011Z" fill="#1A2F45"/>
<path d="M377.851 187.251C379.203 191.571 390.945 201.656 390.945 201.656C390.945 201.656 394.846 186.672 393.494 182.351C392.844 180.274 391.396 178.539 389.468 177.53C387.541 176.52 385.291 176.318 383.214 176.967C381.137 177.617 379.403 179.066 378.394 180.994C377.384 182.923 377.182 185.173 377.832 187.251H377.851Z" fill="#1A2F45"/>
<path d="M348.292 211.365C348.894 215.856 358.771 227.778 358.771 227.778C358.771 227.778 365.145 213.672 364.542 209.181C364.253 207.025 363.119 205.073 361.391 203.753C359.662 202.434 357.48 201.855 355.325 202.145C353.17 202.434 351.219 203.568 349.9 205.297C348.58 207.027 348.002 209.209 348.292 211.365Z" fill="#1A2F45"/>
<path opacity="0.25" d="M451.126 156.149C447.875 159.301 432.744 162.563 432.744 162.563C432.744 162.563 436.461 147.536 439.707 144.379C441.267 142.864 443.365 142.031 445.539 142.064C447.713 142.096 449.785 142.991 451.3 144.552C452.814 146.113 453.646 148.212 453.614 150.386C453.581 152.561 452.687 154.634 451.126 156.149Z" fill="black"/>
<path opacity="0.25" d="M442.569 183.348C438.127 184.227 423.656 178.738 423.656 178.738C423.656 178.738 434.937 168.141 439.375 167.258C440.441 167.022 441.544 167.001 442.618 167.197C443.693 167.393 444.717 167.802 445.631 168.399C446.546 168.996 447.332 169.77 447.943 170.675C448.555 171.581 448.979 172.599 449.192 173.67C449.404 174.742 449.401 175.845 449.182 176.915C448.963 177.986 448.532 179.001 447.915 179.903C447.298 180.804 446.508 181.573 445.59 182.165C444.672 182.757 443.645 183.159 442.569 183.348Z" fill="black"/>
<path opacity="0.25" d="M411.387 212.78C407.115 211.298 397.386 199.253 397.386 199.253C397.386 199.253 412.474 195.797 416.75 197.278C417.792 197.611 418.756 198.149 419.587 198.861C420.417 199.572 421.098 200.442 421.587 201.42C422.077 202.398 422.366 203.465 422.437 204.556C422.509 205.648 422.361 206.743 422.004 207.776C421.646 208.81 421.085 209.762 420.355 210.575C419.624 211.389 418.738 212.049 417.749 212.515C416.759 212.981 415.687 213.245 414.594 213.29C413.502 213.336 412.411 213.162 411.387 212.78Z" fill="black"/>
<path opacity="0.25" d="M382.81 229.734C378.344 228.998 366.725 218.762 366.725 218.762C366.725 218.762 381.011 212.808 385.477 213.539C386.54 213.714 387.557 214.097 388.471 214.666C389.385 215.234 390.178 215.977 390.806 216.852C391.433 217.727 391.881 218.717 392.126 219.766C392.371 220.815 392.406 221.901 392.231 222.964C392.056 224.026 391.674 225.043 391.105 225.958C390.537 226.872 389.794 227.666 388.919 228.293C388.045 228.921 387.055 229.37 386.007 229.614C384.958 229.859 383.872 229.895 382.81 229.72V229.734Z" fill="black"/>
<path opacity="0.25" d="M411.036 167.011C411.036 171.541 419.227 184.678 419.227 184.678C419.227 184.678 427.429 171.546 427.434 167.016C427.382 164.875 426.496 162.839 424.964 161.343C423.432 159.847 421.375 159.009 419.235 159.009C417.094 159.009 415.037 159.847 413.505 161.343C411.974 162.839 411.087 164.875 411.036 167.016V167.011Z" fill="black"/>
<path opacity="0.25" d="M377.851 187.251C379.203 191.571 390.945 201.656 390.945 201.656C390.945 201.656 394.846 186.672 393.494 182.351C392.844 180.274 391.396 178.539 389.468 177.53C387.541 176.52 385.291 176.318 383.214 176.967C381.137 177.617 379.403 179.066 378.394 180.994C377.384 182.923 377.182 185.173 377.832 187.251H377.851Z" fill="black"/>
<path opacity="0.25" d="M348.292 211.365C348.894 215.856 358.771 227.778 358.771 227.778C358.771 227.778 365.145 213.672 364.542 209.181C364.253 207.025 363.119 205.073 361.391 203.753C359.662 202.434 357.48 201.855 355.325 202.145C353.17 202.434 351.219 203.568 349.9 205.297C348.58 207.027 348.002 209.209 348.292 211.365Z" fill="black"/>
<path d="M348.571 242.7C348.571 242.7 352.288 204.357 374.433 183.966C383.777 175.469 390.116 164.171 392.497 151.766C393.579 145.868 394.119 139.883 394.111 133.886" stroke="#535461" stroke-width="2" stroke-miterlimit="10"/>
<path d="M407.993 120.958C406.299 125.16 393.788 134.252 393.788 134.252C393.788 134.252 391.092 119.007 392.787 114.786C393.662 112.865 395.245 111.356 397.206 110.573C399.167 109.79 401.354 109.794 403.311 110.584C405.269 111.374 406.846 112.889 407.715 114.814C408.584 116.738 408.677 118.924 407.974 120.916L407.993 120.958Z" fill="#1A2F45"/>
<path d="M411.183 149.283C407.481 151.89 392.027 152.74 392.027 152.74C392.027 152.74 398.05 138.497 401.752 135.871C403.531 134.647 405.721 134.175 407.846 134.557C409.971 134.938 411.859 136.143 413.101 137.91C414.343 139.676 414.838 141.862 414.479 143.991C414.12 146.121 412.935 148.022 411.183 149.283Z" fill="#1A2F45"/>
<path d="M394.614 188.822C390.105 189.202 376.336 182.133 376.336 182.133C376.336 182.133 388.729 172.86 393.242 172.481C394.315 172.391 395.395 172.513 396.42 172.84C397.446 173.167 398.397 173.694 399.219 174.389C400.041 175.084 400.718 175.934 401.212 176.891C401.706 177.848 402.006 178.892 402.096 179.965C402.186 181.039 402.064 182.119 401.737 183.145C401.41 184.17 400.883 185.122 400.189 185.944C399.494 186.767 398.644 187.444 397.687 187.938C396.731 188.432 395.686 188.732 394.614 188.822Z" fill="#1A2F45"/>
<path d="M375.345 215.913C370.964 217.048 356.199 212.409 356.199 212.409C356.199 212.409 366.849 201.171 371.23 200.037C373.334 199.491 375.569 199.804 377.444 200.906C379.318 202.009 380.677 203.811 381.223 205.917C381.768 208.022 381.456 210.258 380.353 212.133C379.251 214.007 377.449 215.367 375.345 215.913Z" fill="#1A2F45"/>
<path d="M375.734 147.118C377.57 151.258 390.38 159.937 390.38 159.937C390.38 159.937 392.559 144.612 390.727 140.471C389.846 138.483 388.211 136.925 386.182 136.142C384.153 135.359 381.896 135.414 379.908 136.296C377.92 137.177 376.363 138.813 375.58 140.842C374.797 142.872 374.853 145.129 375.734 147.118Z" fill="#1A2F45"/>
<path d="M353.598 179.09C356.588 182.489 371.41 186.947 371.41 186.947C371.41 186.947 368.904 171.669 365.919 168.265C364.484 166.628 362.457 165.628 360.286 165.486C358.114 165.343 355.974 166.07 354.338 167.505C352.702 168.941 351.702 170.968 351.56 173.14C351.418 175.313 352.144 177.453 353.579 179.09H353.598Z" fill="#1A2F45"/>
<path d="M336.345 213.117C338.718 216.977 352.573 223.875 352.573 223.875C352.573 223.875 352.686 208.393 350.318 204.533C349.18 202.679 347.353 201.354 345.238 200.848C343.123 200.342 340.894 200.698 339.041 201.836C337.188 202.974 335.863 204.802 335.358 206.918C334.852 209.033 335.207 211.263 336.345 213.117Z" fill="#1A2F45"/>
<path d="M133.765 0V12.9993V334.934H374.585V12.9993V0H133.765Z" fill="url(#paint0_linear)"/>
<path d="M372.473 2.93884H135.878V15.7055H372.473V2.93884Z" fill="#F6F7F9"/>
<g opacity="0.2">
<path opacity="0.2" d="M372.473 2.93884H135.878V15.7055H372.473V2.93884Z" fill="#1A2F45"/>
</g>
<path d="M372.473 15.7056H135.878V331.996H372.473V15.7056Z" fill="#F6F7F9"/>
<path d="M142.1 11.4848C143.295 11.4848 144.264 10.5156 144.264 9.31988C144.264 8.1242 143.295 7.15491 142.1 7.15491C140.904 7.15491 139.935 8.1242 139.935 9.31988C139.935 10.5156 140.904 11.4848 142.1 11.4848Z" fill="#F6F7F9"/>
<path d="M147.966 11.4848C149.161 11.4848 150.13 10.5156 150.13 9.31988C150.13 8.1242 149.161 7.15491 147.966 7.15491C146.771 7.15491 145.802 8.1242 145.802 9.31988C145.802 10.5156 146.771 11.4848 147.966 11.4848Z" fill="#F6F7F9"/>
<path d="M153.832 11.4848C155.027 11.4848 155.996 10.5156 155.996 9.31988C155.996 8.1242 155.027 7.15491 153.832 7.15491C152.637 7.15491 151.668 8.1242 151.668 9.31988C151.668 10.5156 152.637 11.4848 153.832 11.4848Z" fill="#F6F7F9"/>
<g opacity="0.2">
<path opacity="0.2" d="M330.242 35.2045H178.104V41.1629H330.242V35.2045Z" fill="#1A2F45"/>
</g>
<path d="M330.242 35.2045H310.028V41.1629H330.242V35.2045Z" fill="#1A2F45"/>
<g opacity="0.2">
<path opacity="0.2" d="M252.04 156.97H156.3V225.57H252.04V156.97Z" fill="#1A2F45"/>
</g>
<g opacity="0.2">
<path opacity="0.2" d="M252.04 67.983H156.3V136.583H252.04V67.983Z" fill="#1A2F45"/>
</g>
<g opacity="0.2">
<path opacity="0.2" d="M252.04 244.799H156.3V313.399H252.04V244.799Z" fill="#1A2F45"/>
</g>
<g opacity="0.2">
<path opacity="0.2" d="M352.05 156.97H256.311V225.57H352.05V156.97Z" fill="#1A2F45"/>
</g>
<g opacity="0.2">
<path opacity="0.2" d="M352.05 67.983H256.311V136.583H352.05V67.983Z" fill="#1A2F45"/>
</g>
<g opacity="0.2">
<path opacity="0.2" d="M352.05 244.799H256.311V313.399H352.05V244.799Z" fill="#1A2F45"/>
</g>
<path d="M442.137 301.244C442.137 301.244 445.526 305.674 440.576 312.359C435.625 319.044 431.558 324.703 433.195 328.862C433.195 328.862 440.661 316.442 446.741 316.271C452.821 316.1 448.824 308.713 442.137 301.244Z" fill="#3ACC6C"/>
<path opacity="0.1" d="M442.137 301.244C442.433 301.671 442.666 302.138 442.83 302.631C448.763 309.6 451.919 316.105 446.219 316.271C440.913 316.423 434.539 325.918 433.015 328.316C433.065 328.501 433.125 328.683 433.195 328.862C433.195 328.862 440.661 316.442 446.741 316.271C452.821 316.1 448.824 308.713 442.137 301.244Z" fill="black"/>
<path d="M448.435 306.889C448.435 308.447 448.26 309.71 448.046 309.71C447.833 309.71 447.652 308.447 447.652 306.889C447.652 305.332 447.871 306.063 448.089 306.063C448.307 306.063 448.435 305.327 448.435 306.889Z" fill="#FFD037"/>
<path d="M450.595 308.75C449.228 309.496 448.032 309.947 447.932 309.757C447.832 309.567 448.853 308.807 450.22 308.062C451.587 307.317 451.05 307.863 451.169 308.062C451.288 308.261 451.962 308.019 450.595 308.75Z" fill="#FFD037"/>
<path d="M424.254 301.244C424.254 301.244 420.865 305.674 425.815 312.359C430.765 319.044 434.833 324.703 433.195 328.862C433.195 328.862 425.73 316.442 419.65 316.271C413.57 316.1 417.557 308.713 424.254 301.244Z" fill="#3ACC6C"/>
<path opacity="0.1" d="M424.254 301.244C423.958 301.671 423.725 302.138 423.561 302.631C417.628 309.6 414.472 316.105 420.172 316.271C425.483 316.423 431.852 325.918 433.376 328.316C433.328 328.502 433.268 328.684 433.195 328.862C433.195 328.862 425.73 316.442 419.65 316.271C413.57 316.1 417.557 308.713 424.254 301.244Z" fill="black"/>
<path d="M417.955 306.889C417.955 308.447 418.131 309.71 418.349 309.71C418.568 309.71 418.739 308.447 418.739 306.889C418.739 305.332 418.52 306.063 418.307 306.063C418.093 306.063 417.955 305.327 417.955 306.889Z" fill="#FFD037"/>
<path d="M415.796 308.75C417.168 309.496 418.359 309.947 418.463 309.757C418.568 309.567 417.538 308.807 416.171 308.062C414.804 307.317 415.34 307.863 415.222 308.062C415.103 308.261 414.429 308.019 415.796 308.75Z" fill="#FFD037"/>
<path opacity="0.1" d="M433.195 362.751C452.75 362.751 468.602 360.318 468.602 357.315C468.602 354.313 452.75 351.879 433.195 351.879C413.641 351.879 397.789 354.313 397.789 357.315C397.789 360.318 413.641 362.751 433.195 362.751Z" fill="#1A2F45"/>
<path d="M451.421 322.894L451.25 324.276L451.012 326.232L450.913 327.044L450.675 329L450.571 329.816L450.334 331.768L447.624 353.987C447.382 355.972 444.145 357.515 440.234 357.515H426.157C422.246 357.515 419.038 355.972 418.772 353.987L416.057 331.758L415.82 329.807L415.72 328.99L415.478 327.034L415.378 326.222L415.141 324.266L414.97 322.885C414.837 321.788 416.608 320.838 418.8 320.838H447.595C449.802 320.838 451.558 321.788 451.421 322.894Z" fill="#65617D"/>
<path d="M451.25 324.276L451.012 326.227H415.378L415.141 324.276H451.25Z" fill="#9D9CB5"/>
<path d="M450.913 327.043L450.675 329H415.72L415.478 327.043H450.913Z" fill="#9D9CB5"/>
<path d="M450.571 329.812L450.334 331.768H416.057L415.82 329.812H450.571Z" fill="#9D9CB5"/>
<path d="M280.787 81.2387C280.787 81.2387 279.918 79.069 285.775 79.6102C291.632 80.1515 308.448 82.0221 315.719 80.3841C322.99 78.7461 327.323 78.2239 326.891 80.3841C326.459 82.5443 314.309 87.425 314.309 87.425L298.576 89.0535L286.971 87.2066L280.74 83.5176L280.787 81.2387Z" fill="#1A2F45"/>
<path opacity="0.1" d="M326.905 80.384C326.469 82.5443 314.323 87.4249 314.323 87.4249L298.59 89.0534L286.985 87.2113L280.758 83.5223L280.801 81.2434C280.741 81.0556 280.74 80.8537 280.8 80.6657C280.859 80.4777 280.976 80.3128 281.133 80.1941C281.67 79.7194 282.923 79.349 285.789 79.6149C291.651 80.1562 308.462 82.022 315.733 80.384C321.656 79.0499 325.633 78.4565 326.649 79.4345C326.774 79.5543 326.864 79.7061 326.91 79.8735C326.955 80.0409 326.953 80.2174 326.905 80.384Z" fill="black"/>
<path d="M336.255 113.253C326.132 115.202 316.585 119.432 308.338 125.621C307.921 124.51 307.135 123.577 306.112 122.976C305.414 122.543 304.652 122.222 303.853 122.027C303.127 121.841 302.429 122.283 301.789 122.919C301.052 123.735 300.433 124.651 299.952 125.64C288.889 118.043 272.106 113.196 272.106 113.196V111.676C272.106 111.377 272.158 111.017 272.215 110.608C272.272 110.2 272.344 109.839 272.434 109.398C273.858 102.153 279.487 85.5971 279.487 85.5971H281.228H285.851L298.191 88.1609L312.074 87.3111L326.056 84.4007L327.869 84.0209C330.892 86.3947 334.324 103.012 335.671 110.086C335.842 110.983 335.975 111.724 336.075 112.27C336.194 112.887 336.255 113.253 336.255 113.253Z" fill="#1A2F45"/>
<path d="M274.403 110.114C274.769 103.159 280.293 88.0849 281.228 85.5829H279.487C279.487 85.5829 273.525 103.15 272.315 110.005C272.312 110.023 272.312 110.04 272.315 110.058C272.282 110.243 272.249 110.423 272.225 110.594C272.168 111.002 272.13 111.363 272.116 111.662V113.182C272.116 113.182 288.898 118.034 299.961 125.625C300.443 124.637 301.061 123.721 301.798 122.905C297.569 119.059 281.532 112.792 274.403 110.114Z" fill="#1A2F45"/>
<path d="M336.075 112.251C336.032 112.009 335.98 111.729 335.923 111.42C335.852 111.021 335.766 110.57 335.671 110.067C334.324 102.983 330.892 86.3615 327.869 84.0018L326.056 84.3817C327.157 87.3395 334.252 106.653 333.65 110.423C321.784 112.797 309.758 120.512 306.122 122.976C307.145 123.577 307.931 124.51 308.348 125.621C316.594 119.432 326.141 115.202 336.265 113.253C336.265 113.253 336.194 112.887 336.075 112.251Z" fill="#1A2F45"/>
<path opacity="0.1" d="M274.84 109.678C275.201 102.722 280.73 87.6481 281.665 85.1508H279.918C279.918 85.1508 273.957 102.717 272.747 109.568C272.747 109.568 272.747 109.606 272.747 109.621C272.712 109.811 272.684 109.991 272.662 110.162C272.605 110.57 272.567 110.931 272.552 111.23V112.749C272.552 112.749 289.33 117.597 300.398 125.193C300.876 124.203 301.493 123.287 302.23 122.473C298.001 118.637 281.969 112.355 274.84 109.678Z" fill="black"/>
<path d="M274.403 110.114C274.769 103.159 280.293 88.0849 281.228 85.5829H279.487C279.487 85.5829 273.525 103.15 272.315 110.005C272.312 110.023 272.312 110.04 272.315 110.058C272.282 110.243 272.249 110.423 272.225 110.594C272.168 111.002 272.13 111.363 272.116 111.662V113.182C272.116 113.182 288.898 118.034 299.961 125.625C300.443 124.637 301.061 123.721 301.798 122.905C297.569 119.059 281.532 112.792 274.403 110.114Z" fill="#1A2F45"/>
<path opacity="0.1" d="M335.643 111.814L335.491 110.983C335.415 110.584 335.334 110.138 335.24 109.63C333.896 102.551 330.46 85.9294 327.437 83.5651L325.629 83.9496C326.73 86.9075 333.825 106.221 333.222 109.991C321.357 112.365 309.326 120.08 305.695 122.539C306.718 123.142 307.504 124.077 307.921 125.189C316.164 118.997 325.71 114.765 335.833 112.816C335.833 112.816 335.762 112.46 335.643 111.814Z" fill="black"/>
<path d="M336.075 112.251C336.032 112.009 335.98 111.729 335.923 111.42C335.852 111.021 335.766 110.57 335.671 110.067C334.324 102.983 330.892 86.3615 327.869 84.0018L326.056 84.3817C327.157 87.3395 334.252 106.653 333.65 110.423C321.784 112.797 309.758 120.512 306.122 122.976C307.145 123.577 307.931 124.51 308.348 125.621C316.594 119.432 326.141 115.202 336.265 113.253C336.265 113.253 336.194 112.887 336.075 112.251Z" fill="#1A2F45"/>
<path opacity="0.1" d="M278.528 94.1667C278.528 94.1667 289.539 101.098 292.111 90.9478L294.56 91.6029C294.56 91.6029 295.367 102.85 277.797 96.4314L278.528 94.1667Z" fill="black"/>
<path d="M278.528 93.2979C278.528 93.2979 289.539 100.23 292.111 90.079L294.56 90.7342C294.56 90.7342 295.367 101.982 277.797 95.5626L278.528 93.2979Z" fill="#1A2F45"/>
<path opacity="0.1" d="M313.175 91.2754C313.175 91.2754 314.599 99.5697 329.687 95.5484L329.155 93.9816C329.155 93.9816 318.851 98.2546 315.116 90.8339L313.175 91.2754Z" fill="black"/>
<path d="M313.175 90.4065C313.175 90.4065 314.599 98.7008 329.687 94.6795L329.155 93.1127C329.155 93.1127 318.851 97.3857 315.116 89.965L313.175 90.4065Z" fill="#1A2F45"/>
<path opacity="0.1" d="M303.132 91.1662V108.476H305.809C305.809 108.476 309.511 107.142 309.425 99.3608C309.34 91.5792 308.775 89.4855 308.775 89.4855L303.132 91.1662Z" fill="black"/>
<path d="M302.7 90.7342V108.044H305.377C305.377 108.044 309.079 106.71 308.993 98.9288C308.908 91.1472 308.338 89.0535 308.338 89.0535L302.7 90.7342Z" fill="#1A2F45"/>
<path opacity="0.1" d="M327.854 84.8755C326.763 86.9075 316.853 90.2452 315.102 90.8197L314.836 90.9051C314.836 90.9051 314.209 91.0665 313.16 91.2849C309.971 91.9496 302.861 93.184 297.498 92.1015C296.72 91.9496 295.913 91.7834 295.092 91.6268L293.193 91.2137C287.023 89.8416 280.64 88.047 279.505 86.466C279.505 86.466 279.814 81.3052 280.853 81.4429C281.893 81.5806 293.497 86.466 293.497 86.466L293.663 86.4897C293.962 86.5277 294.641 86.6132 295.595 86.7224C299.363 87.1354 307.304 87.7906 311.575 86.6464C311.779 86.5894 311.969 86.5324 312.154 86.466C312.477 86.3568 312.814 86.2428 313.16 86.1146C318.656 84.1681 326.886 80.6832 326.886 80.6832C326.886 80.6832 329.06 82.6393 327.854 84.8755Z" fill="black"/>
<path opacity="0.1" d="M326.905 80.384C326.469 82.5443 314.323 87.4249 314.323 87.4249L298.59 89.0534L286.985 87.2113L280.758 83.5223L280.801 81.2434C280.741 81.0556 280.74 80.8537 280.8 80.6657C280.859 80.4777 280.976 80.3129 281.133 80.1941C283.198 80.8208 293.473 85.146 293.473 85.146L293.639 85.1698C293.938 85.2078 294.617 85.2932 295.571 85.4024C299.34 85.8155 307.28 86.4707 311.551 85.3264C311.756 85.2695 311.945 85.2125 312.13 85.146C312.453 85.0416 312.79 84.9229 313.137 84.7947C318.106 83.0333 325.315 80.0137 326.649 79.4535C326.771 79.5715 326.859 79.7201 326.904 79.8838C326.949 80.0474 326.95 80.2202 326.905 80.384Z" fill="black"/>
<path d="M327.854 84.0018C326.763 86.0338 316.853 89.3668 315.102 89.9412L314.836 90.0314C314.836 90.0314 314.209 90.1881 313.16 90.4065C309.971 91.0712 302.861 92.3056 297.498 91.2231C296.72 91.0712 295.913 90.905 295.092 90.7484L293.193 90.3353C287.023 88.9632 280.64 87.1686 279.505 85.5876C279.505 85.5876 279.814 80.4268 280.853 80.5692C281.893 80.7116 293.497 85.5876 293.497 85.5876L293.663 85.6113C293.962 85.6493 294.641 85.7395 295.595 85.8439C299.363 86.257 307.304 86.9122 311.575 85.768C311.779 85.711 311.969 85.654 312.154 85.5876C312.477 85.4831 312.814 85.3644 313.16 85.2362C318.656 83.2896 326.886 79.8048 326.886 79.8048C326.886 79.8048 329.06 81.7751 327.854 84.0018Z" fill="#1A2F45"/>
<path opacity="0.1" d="M305.011 91.2231C305.971 91.2231 306.748 90.4452 306.748 89.4855C306.748 88.5258 305.971 87.7478 305.011 87.7478C304.052 87.7478 303.274 88.5258 303.274 89.4855C303.274 90.4452 304.052 91.2231 305.011 91.2231Z" fill="black"/>
<path d="M305.011 90.7864C305.971 90.7864 306.748 90.0084 306.748 89.0487C306.748 88.089 305.971 87.311 305.011 87.311C304.052 87.311 303.274 88.089 303.274 89.0487C303.274 90.0084 304.052 90.7864 305.011 90.7864Z" fill="#1A2F45"/>
<path opacity="0.1" d="M296.008 85.8249L295.533 90.7246L293.635 90.3115L294.109 85.5923C294.375 85.6398 295.059 85.73 296.008 85.8249Z" fill="black"/>
<path d="M295.581 85.8249L295.106 90.7246L293.208 90.3115L293.682 85.5923C293.943 85.6398 294.631 85.73 295.581 85.8249Z" fill="#1A2F45"/>
<path opacity="0.1" d="M314.679 89.9413L314.413 90.0315C314.413 90.0315 313.792 90.1882 312.738 90.4066L311.12 85.7586C311.324 85.7016 311.518 85.6446 311.703 85.5781C312.026 85.4737 312.363 85.355 312.71 85.2268L314.679 89.9413Z" fill="black"/>
<path d="M315.116 89.9413L314.85 90.0315C314.85 90.0315 314.224 90.1882 313.175 90.4066L311.556 85.7586C311.76 85.7016 311.95 85.6446 312.135 85.5781C312.458 85.4737 312.795 85.355 313.142 85.2268L315.116 89.9413Z" fill="#1A2F45"/>
<g opacity="0.5">
<path opacity="0.5" d="M192.703 77.2791C194.924 77.2936 197.101 77.8982 199.011 79.031C199.011 79.031 204.792 79.7337 207.943 79.031C211.094 78.3283 212.689 75.8785 213.287 76.5764C213.885 77.2743 213.899 83.8499 213.899 83.8499L211.185 91.1235L205.053 95.6766L195.333 92.8754L192.115 84.6476L192.703 77.2791Z" fill="#1A2F45"/>
<path opacity="0.1" d="M213.899 83.8594L211.185 91.133L205.053 95.686L195.333 92.8849L192.115 84.6476L192.727 77.2885H192.869C195.041 77.3438 197.164 77.9481 199.039 79.0452C199.039 79.0452 204.82 79.7479 207.972 79.0452C210.966 78.3805 212.542 76.1301 213.192 76.5099C213.231 76.5278 213.265 76.5537 213.292 76.5859C213.899 77.279 213.899 83.8594 213.899 83.8594Z" fill="black"/>
<path opacity="0.1" d="M213.899 83.8594L211.185 91.133L205.053 95.686L195.333 92.8849L192.115 84.6475L192.727 77.2885H192.869C193.41 79.6102 195.717 86.9407 203.064 87.4582C210.62 87.9852 212.765 78.993 213.211 76.5146C213.25 76.5325 213.284 76.5584 213.311 76.5906C213.899 77.279 213.899 83.8594 213.899 83.8594Z" fill="black"/>
<path opacity="0.5" d="M192.703 77.2791C192.703 77.2791 194.279 87.5295 203.04 88.1419C211.802 88.7544 213.287 76.5764 213.287 76.5764C213.287 76.5764 225.988 80.7402 228.949 88.1657C231.911 95.5911 234.118 101.55 234.118 101.55C234.118 101.55 233.169 103.211 232.101 103.387C231.033 103.563 223.781 108.557 223.781 108.557C223.781 108.557 223.695 122.753 224.483 123.627C225.271 124.5 225.01 128.27 222.642 128.094C220.274 127.919 203.899 124.239 189.893 127.306C189.893 127.306 184.027 129.409 184.198 125.991C184.369 122.573 184.635 109.17 184.635 109.17C184.635 109.17 175.788 105.315 175.266 105.315C174.744 105.315 173.424 104.621 174.824 102.338C176.225 100.054 177.981 92.263 177.981 92.263C177.981 92.263 181.493 81.0773 192.703 77.2791Z" fill="#1A2F45"/>
<path opacity="0.1" d="M219.941 95.686C219.941 95.686 222.571 97.6136 221.958 99.1044C221.346 100.595 219.941 95.686 219.941 95.686Z" fill="black"/>
<path opacity="0.1" d="M223.795 97.5377C223.55 98.3925 223.55 99.2989 223.795 100.154V97.5377Z" fill="black"/>
<path opacity="0.1" d="M225.547 102.347C225.547 102.347 225.898 104.721 224.849 104.973L225.547 102.347Z" fill="black"/>
<path opacity="0.1" d="M189.813 95.0736C189.813 95.0736 184.91 99.3466 186.571 101.032L189.813 95.0736Z" fill="black"/>
<path opacity="0.1" d="M186.747 105.414C186.747 105.414 186.666 109.882 188.019 110.233L186.747 105.414Z" fill="black"/>
<path opacity="0.1" d="M200.848 120.393C200.848 120.393 204.17 118.119 205.053 118.205L200.848 120.393Z" fill="black"/>
<path opacity="0.1" d="M204.17 122.762C204.17 122.762 207.767 120.218 208.731 120.388L204.17 122.762Z" fill="black"/>
</g>
<g opacity="0.5">
<path opacity="0.5" d="M282.291 163.522C282.291 163.522 310.949 164.88 325.197 164.044L324.883 167.804L299.672 171.128L292.211 168.83L282.291 163.522Z" fill="#1A2F45"/>
<path opacity="0.1" d="M325.216 164.044L324.902 167.804L299.696 171.128L292.23 168.83L282.291 163.522C282.291 163.522 282.88 163.555 283.929 163.598C290.146 163.868 312.534 164.742 324.826 164.073L325.216 164.044Z" fill="black"/>
<path opacity="0.5" d="M335.135 217.513C329.601 220.837 310.393 217.618 310.393 217.618L305.068 198.627L299.117 217.945C290.664 220.974 273.226 216.587 273.226 216.587L280.013 174.807L281.186 169.048L282.291 163.522L293.046 166.76C293.046 166.76 296.278 168.953 309.748 168.327C323.217 167.7 325.197 164.054 325.197 164.054C325.79 164.225 326.355 166.318 326.924 168.92C327.75 172.718 328.59 177.589 329.582 179.199C331.272 181.905 335.135 217.513 335.135 217.513Z" fill="#1A2F45"/>
<path opacity="0.1" d="M326.943 169.328C314.935 175.923 304.598 175.743 304.598 175.743C302.04 176.056 281.186 169.461 281.186 169.461L282.291 163.94L293.046 167.178C293.046 167.178 296.278 169.371 309.748 168.744C323.217 168.118 325.197 164.471 325.197 164.471C325.809 164.638 326.374 166.727 326.943 169.328Z" fill="black"/>
<path opacity="0.1" d="M325.216 164.044L324.902 167.804L299.696 171.128L292.23 168.83L282.291 163.522C282.291 163.522 282.88 163.555 283.929 163.598L293.041 166.342C293.041 166.342 296.274 168.535 309.743 167.909C320.322 167.434 323.815 165.06 324.826 164.068L325.216 164.044Z" fill="black"/>
<path opacity="0.5" d="M326.943 168.911C314.935 175.505 304.598 175.325 304.598 175.325C302.04 175.638 281.186 169.043 281.186 169.043L282.291 163.522L293.046 166.76C293.046 166.76 296.278 168.953 309.748 168.327C323.217 167.7 325.197 164.054 325.197 164.054C325.809 164.215 326.374 166.309 326.943 168.911Z" fill="#1A2F45"/>
<path opacity="0.1" d="M306.634 174.328C307.24 174.328 307.731 173.837 307.731 173.231C307.731 172.625 307.24 172.134 306.634 172.134C306.029 172.134 305.538 172.625 305.538 173.231C305.538 173.837 306.029 174.328 306.634 174.328Z" fill="black"/>
<path opacity="0.5" d="M306.634 173.91C307.24 173.91 307.731 173.419 307.731 172.813C307.731 172.208 307.24 171.717 306.634 171.717C306.029 171.717 305.538 172.208 305.538 172.813C305.538 173.419 306.029 173.91 306.634 173.91Z" stroke="#1A2F45" stroke-miterlimit="10"/>
<path opacity="0.1" d="M278.604 192.45C278.604 192.45 280.535 198.195 281.893 198.09C283.25 197.986 278.604 192.45 278.604 192.45Z" fill="black"/>
<path opacity="0.1" d="M277.351 198.09C277.351 198.09 278.552 201.537 279.805 202.111L277.351 198.09Z" fill="black"/>
<path opacity="0.1" d="M277.351 201.694C277.351 201.694 279.249 204.096 280.374 204.671L277.351 201.694Z" fill="black"/>
<path opacity="0.1" d="M328.329 179.973C328.329 179.973 330.104 182.636 328.329 183.211V179.973Z" fill="black"/>
<path opacity="0.1" d="M329.136 184.303C327.076 181.858 328.348 187.626 328.348 187.626C328.348 187.626 329.663 184.929 329.136 184.303Z" fill="black"/>
<path opacity="0.1" d="M330.175 187.28C330.175 187.28 327.043 191.928 327.669 192.45L330.175 187.28Z" fill="black"/>
<path opacity="0.1" d="M288.737 180.072C284.897 180.072 280.891 178.335 280.668 178.23L280.839 177.846C280.915 177.884 288.58 181.212 292.728 178.715C294.295 177.765 295.173 176.094 295.343 173.729L295.761 173.763C295.581 176.27 294.631 178.036 292.942 179.071C291.657 179.781 290.203 180.127 288.737 180.072Z" fill="black"/>
<path opacity="0.5" d="M288.737 179.655C284.897 179.655 280.891 177.917 280.668 177.812L280.839 177.433C280.915 177.466 288.58 180.794 292.728 178.297C294.295 177.347 295.173 175.676 295.343 173.312L295.761 173.345C295.581 175.852 294.631 177.618 292.942 178.653C291.657 179.363 290.203 179.709 288.737 179.655Z" fill="#1A2F45"/>
<path opacity="0.1" d="M320.261 180.386C319.277 180.4 318.304 180.19 317.413 179.773C314.3 178.273 313.796 174.598 313.773 174.442L314.19 174.389C314.19 174.427 314.689 178.002 317.598 179.398C320.19 180.647 323.868 179.873 328.514 177.024L328.728 177.38C325.42 179.384 322.586 180.386 320.261 180.386Z" fill="black"/>
<path opacity="0.5" d="M320.261 179.968C319.277 179.982 318.304 179.773 317.413 179.356C314.3 177.855 313.796 174.181 313.773 174.024L314.19 173.972C314.19 174.01 314.689 177.585 317.598 178.981C320.19 180.229 323.868 179.455 328.514 176.607L328.728 176.963C325.42 178.966 322.586 179.968 320.261 179.968Z" fill="#1A2F45"/>
</g>
<path d="M195.124 164.163C195.124 164.163 200.511 171.688 204.17 170.957C207.829 170.226 208.19 169.423 211.441 164.163L214.108 170.302L210.966 177.898L207.245 182.717L199.357 181.478L196.804 172.856L195.124 164.163Z" fill="#1A2F45"/>
<path opacity="0.1" d="M214.108 170.297L210.966 177.893L207.245 182.712L199.357 181.473L196.804 172.851L195.124 164.163C195.124 164.163 195.598 164.818 196.339 165.72C198.147 167.88 201.588 171.469 204.17 170.942C207.777 170.221 208.18 169.428 211.313 164.362L211.441 164.148L214.108 170.297Z" fill="black"/>
<path opacity="0.1" d="M214.108 170.297L210.966 177.893L207.245 182.712L199.357 181.473L196.804 172.851L195.124 164.163C195.124 164.163 195.598 164.818 196.339 165.72C197.516 169.518 200.045 175.61 204.17 175.557C208.826 175.505 210.705 167.79 211.313 164.376L211.441 164.163L214.108 170.297Z" fill="black"/>
<path d="M192.276 163.94C192.276 163.94 190.449 163.721 191.398 165.986C192.347 168.251 194.099 175.7 193.225 177.233C192.352 178.767 192.789 182.931 188.992 183.738L190.083 188.044C190.083 188.044 190.302 197.539 189.865 198.931C189.428 200.322 189.352 207.985 189.5 208.787C189.647 209.589 189.575 214.85 188.992 215.073C188.408 215.296 188.042 217.846 189.941 218.282C191.839 218.719 199.941 218.942 201.403 219.379C202.865 219.816 213.23 219.379 213.23 219.379C213.23 219.379 217.611 218.795 218.707 218.43C219.804 218.064 220.022 217.19 219.657 215.51C219.291 213.829 217.611 201.632 217.976 200.099C218.342 198.565 218.418 183.591 218.418 183.591C218.418 183.591 215.57 182.641 215.57 179.864C215.57 177.086 214.474 169.637 216.738 164.965C216.738 164.965 214.91 163.712 214.621 163.935C214.331 164.158 211.574 163.356 211.574 163.356C211.574 163.356 210.15 176.065 204.194 176.137C198.237 176.208 195.584 163.356 195.584 163.356C195.584 163.356 195.636 162.188 192.276 163.94Z" fill="#1A2F45"/>
<path opacity="0.1" d="M200.89 204.699C200.89 204.699 202.12 207.695 204.17 208.132C206.22 208.568 200.89 204.699 200.89 204.699Z" fill="black"/>
<path opacity="0.1" d="M198.992 207.035C198.992 207.035 202.96 210.249 202.789 210.909L198.992 207.035Z" fill="black"/>
<path opacity="0.1" d="M191.033 188.044C191.033 188.044 194.174 190.161 194.174 191.695L191.033 188.044Z" fill="black"/>
<path opacity="0.1" d="M193.149 194.691C193.149 194.691 192.276 191.624 191.692 190.969L193.149 194.691Z" fill="black"/>
<path opacity="0.1" d="M191.692 195.859C191.692 195.859 193.007 198.489 193.149 199.22L191.692 195.859Z" fill="black"/>
<path opacity="0.1" d="M217.174 190.527C217.174 190.527 213.088 191.771 213.449 193.304L217.174 190.527Z" fill="black"/>
<path opacity="0.1" d="M213.43 204.699C213.43 204.699 218.783 198.489 217.174 198.636C215.565 198.783 213.43 204.699 213.43 204.699Z" fill="black"/>
<g opacity="0.1">
<path opacity="0.1" d="M215.565 179.864C215.565 178.582 215.333 176.303 215.304 173.763C215.276 176.678 215.565 179.375 215.565 180.813C215.565 183.529 218.285 184.493 218.413 184.536C218.413 183.942 218.413 183.586 218.413 183.586C218.413 183.586 215.565 182.641 215.565 179.864Z" fill="black"/>
<path opacity="0.1" d="M219.642 216.459C219.698 216.708 219.741 216.96 219.77 217.214C219.831 216.643 219.788 216.065 219.642 215.51C219.329 214.085 218.057 204.941 217.924 201.371C217.782 203.811 219.31 214.864 219.642 216.459Z" fill="black"/>
<path opacity="0.1" d="M189.433 206.988C189.433 204.381 189.58 200.787 189.865 199.866C190.098 199.125 190.145 196.096 190.14 193.418C190.14 195.821 190.069 198.261 189.865 198.916C189.542 199.951 189.419 204.405 189.433 206.988Z" fill="black"/>
<path opacity="0.1" d="M192.276 164.889C195.631 163.137 195.56 164.305 195.56 164.305C195.56 164.305 198.19 177.162 204.17 177.086C210.15 177.01 211.574 164.305 211.574 164.305C211.574 164.305 214.35 165.108 214.64 164.885C214.929 164.661 215.902 165.359 216.439 165.701C216.538 165.449 216.643 165.203 216.761 164.965C216.761 164.965 214.934 163.712 214.64 163.935C214.346 164.158 211.574 163.356 211.574 163.356C211.574 163.356 210.15 176.065 204.194 176.137C198.237 176.208 195.584 163.356 195.584 163.356C195.584 163.356 195.655 162.188 192.3 163.94C192.3 163.94 190.814 163.769 191.227 165.407C191.464 164.794 192.276 164.889 192.276 164.889Z" fill="black"/>
<path opacity="0.1" d="M188.987 216.022C189.462 215.847 189.59 212.594 189.561 210.8C189.537 212.604 189.371 214.926 188.987 215.073C188.602 215.22 188.417 216.022 188.564 216.796C188.64 216.388 188.792 216.089 188.987 216.022Z" fill="black"/>
<path opacity="0.1" d="M193.225 178.183C193.457 177.56 193.534 176.891 193.448 176.232C193.444 176.577 193.368 176.919 193.225 177.233C192.347 178.767 192.784 182.931 188.987 183.738L189.215 184.63C192.765 183.709 192.366 179.688 193.225 178.183Z" fill="black"/>
</g>
<path d="M214.317 253.249C212.523 256.516 194.312 253.249 194.312 253.249L194.36 252.922L194.72 250.391H213.909L214.274 252.917L214.317 253.249Z" fill="#1A2F45"/>
<path opacity="0.1" d="M214.317 253.249C212.523 256.516 194.312 253.249 194.312 253.249L194.36 252.922C195.233 252.922 208.408 252.608 214.293 252.922L214.317 253.249Z" fill="black"/>
<path d="M194.312 253.25C194.312 253.25 191.047 254.066 185.983 267.787C180.918 281.508 179.124 299.236 179.124 299.236C179.124 299.236 176.277 304.06 188.432 304.383C188.432 304.383 187.454 307.568 194.312 307.079C201.17 306.59 200.183 306.595 200.183 306.595C200.183 306.595 204.592 303.818 206.552 304.307C208.513 304.796 209.737 304.962 211.859 306.757C213.98 308.551 220.762 307.82 220.843 306.434C220.898 305.753 220.898 305.068 220.843 304.387C220.843 304.387 231.213 305.043 229.253 297.527C227.293 290.011 225.66 277.677 225.66 277.677C225.66 277.677 220.354 253.582 214.308 253.254C208.261 252.927 194.312 253.25 194.312 253.25Z" fill="#1A2F45"/>
<path opacity="0.1" d="M192.127 262.733L188.286 304.393L188.612 304.423L192.453 262.763L192.127 262.733Z" fill="black"/>
<path opacity="0.1" d="M200.177 262.701L200.008 306.565L200.336 306.567L200.504 262.703L200.177 262.701Z" fill="black"/>
<path opacity="0.1" d="M210.425 262.692L210.097 262.705L211.734 306.733L212.062 306.721L210.425 262.692Z" fill="black"/>
<path opacity="0.1" d="M220.687 304.387C220.117 279.295 215.845 262.118 215.793 261.966L216.111 261.885C216.154 262.056 220.449 279.267 221.014 304.402L220.687 304.387Z" fill="black"/>
<path opacity="0.1" d="M194.882 255.699C194.882 255.699 194.312 256.027 194.882 257.598V255.699Z" fill="black"/>
<path opacity="0.1" d="M196.519 255.699C196.519 255.699 194.967 256.677 196.519 258.315V255.699Z" fill="black"/>
<path opacity="0.1" d="M211.052 255.699C211.052 255.699 213.173 257.741 212.685 258.315L211.052 255.699Z" fill="black"/>
<path opacity="0.1" d="M212.76 255.21C212.76 255.21 213.093 257.66 214.317 258.315L212.76 255.21Z" fill="black"/>
<g opacity="0.5">
<path opacity="0.5" d="M299.435 251.294C299.435 251.294 307.446 248.103 310.911 251.996C314.376 255.889 308.538 260.628 308.538 260.628L306.089 265.518L300.327 264.886L298.97 258.126L299.435 251.294Z" fill="#1A2F45"/>
<path opacity="0.1" d="M308.538 260.604L306.089 265.494L300.327 264.882L298.97 258.125L299.444 251.293L299.572 251.246C300.588 250.871 307.446 248.478 310.726 251.773C310.794 251.836 310.859 251.902 310.92 251.972C314.376 255.847 308.538 260.604 308.538 260.604Z" fill="black"/>
<path opacity="0.1" d="M308.538 260.604L306.089 265.494L300.327 264.882L298.97 258.126L299.444 251.294L299.572 251.246C300.564 256.682 303.213 258.975 303.659 259.317L303.725 259.365L305.353 259.232C308.519 257.485 310.189 253.33 310.726 251.759C310.794 251.822 310.859 251.888 310.92 251.958C314.376 255.847 308.538 260.604 308.538 260.604Z" fill="black"/>
<path opacity="0.5" d="M322.529 279.225C322.529 279.225 320.764 301.719 321.243 304.435C321.723 307.151 320.223 307.355 320.223 307.355C320.223 307.355 313.834 308.779 312.629 307.83C311.423 306.88 309.368 306.695 309.368 306.695C309.368 306.695 304.622 307.782 302.505 306.97C300.389 306.159 296.867 306.496 296.867 306.496C296.867 306.496 294.152 308.129 293.402 307.787C292.652 307.445 291.703 307.583 289.529 306.975C287.356 306.367 286.131 305.817 287.285 302.08C288.438 298.344 287.427 286.517 287.356 285.088C287.284 283.659 286.611 280.198 285.657 276.067C284.703 271.937 287.285 272.806 287.285 272.806C293.336 269.682 290.82 263.562 289.871 260.846C288.922 258.13 290.412 257.997 291.157 257.997C291.902 257.997 294.76 255.552 294.76 255.552L295.918 254.513L299.449 251.341C300.327 257.28 303.175 259.773 303.649 260.143L303.716 260.196L305.344 260.058C309.283 257.888 310.911 251.987 310.911 251.987C311.385 252.794 312.444 253.715 313.626 254.57C315.172 255.664 316.784 256.663 318.452 257.561C321.3 259.26 319.202 260.96 319.202 260.96C315.738 272.782 320.626 273.304 320.626 273.304C324.229 273.836 322.529 279.225 322.529 279.225Z" fill="#1A2F45"/>
<path opacity="0.1" d="M295.832 258.021C295.832 258.021 294.812 258.567 294.812 259.175L295.832 258.021Z" fill="black"/>
<path opacity="0.1" d="M296.445 259.175C296.445 259.175 295.087 260.599 295.324 261.012L296.445 259.175Z" fill="black"/>
<path opacity="0.1" d="M296.445 261.017C296.445 261.017 295.424 262.104 295.832 262.717L296.445 261.017Z" fill="black"/>
<path opacity="0.1" d="M303.241 260.96L298.969 265.086C298.813 260.499 296.596 256.829 295.505 255.282L299.036 252.11C299.9 258.097 302.771 260.59 303.241 260.96Z" fill="black"/>
<path opacity="0.5" d="M303.649 260.143L299.378 264.274C299.226 259.683 297.005 256.017 295.918 254.465L299.449 251.293C300.327 257.28 303.175 259.773 303.649 260.143Z" fill="#1A2F45"/>
<path opacity="0.1" d="M314.034 255.372C312.325 258.04 309.15 265.086 309.15 265.086L305.752 260.874C309.691 258.7 311.319 252.803 311.319 252.803C311.794 253.591 312.852 254.512 314.034 255.372Z" fill="black"/>
<path opacity="0.5" d="M313.616 254.555C311.912 257.228 308.732 264.274 308.732 264.274L305.344 260.067C309.283 257.898 310.911 251.996 310.911 251.996C311.385 252.779 312.444 253.701 313.616 254.555Z" fill="#1A2F45"/>
<path opacity="0.1" d="M311.12 298.116C311.12 298.116 310.394 304.288 309.976 304.639L311.12 298.116Z" fill="black"/>
<path opacity="0.1" d="M317.095 299.203C317.095 299.203 317.912 303.618 317.57 304.639L317.095 299.203Z" fill="black"/>
<path opacity="0.1" d="M299.705 299.474C299.705 299.474 298.96 303.618 299.705 304.093V299.474Z" fill="black"/>
<path opacity="0.1" d="M295.296 298.861C295.296 298.861 294.679 303.756 294.821 304.639L295.296 298.861Z" fill="black"/>
<path opacity="0.1" d="M318.116 275.008C318.116 275.008 316.217 276.504 316.35 276.907L318.116 275.008Z" fill="black"/>
<path opacity="0.1" d="M319.473 275.963C319.473 275.963 315.837 279.02 317.655 278.678C319.473 278.337 319.473 275.963 319.473 275.963Z" fill="black"/>
</g>
<path d="M118.075 188.376L118.098 188.343L118.056 188.31L117.799 188.139L117.852 188.177C117.668 188.07 117.451 188.037 117.244 188.083C117.036 188.128 116.854 188.25 116.732 188.424L116.627 188.571L110.861 196.87L109.854 198.346C106.812 197.43 101.871 201.285 99.3701 203.498C99.2135 203.635 99.0664 203.764 98.9335 203.887C98.7342 203.441 98.6155 203.156 98.6155 203.156C98.4921 204.514 93.6985 206.551 92.5784 207.291C92.0696 207.599 91.4991 207.79 90.9078 207.851C91.0691 202.691 87.0776 197.259 87.0776 197.259L77.3243 184.844C76.9655 182.599 77.3138 180.297 78.321 178.259C78.4016 178.097 78.4823 177.936 78.5725 177.784H78.62C78.251 178.827 78.0445 179.921 78.0077 181.027C78.0314 181.867 78.8098 185.941 79.9062 185.774C80.0149 185.786 80.1246 185.767 80.2233 185.72C80.3221 185.673 80.4061 185.6 80.4662 185.509C81.3395 184.493 81.4155 182.764 81.3727 181.164C81.3576 181.635 81.3052 182.103 81.2161 182.565C81.2873 181.236 81.1354 179.83 81.1354 178.828C81.1354 178.43 81.1354 178.036 81.1639 177.637H81.2826C81.2826 177.789 81.2826 177.95 81.2826 178.112C81.2826 177.945 81.2826 177.784 81.2826 177.637H81.406C83.5937 177.236 85.6435 176.285 87.3624 174.874C87.7868 174.856 88.2035 174.755 88.5881 174.575C88.9728 174.395 89.3177 174.139 89.6026 173.824C89.7066 174.171 89.7225 174.539 89.6487 174.894C89.575 175.249 89.4139 175.58 89.1802 175.856C90.4853 175.795 91.5912 174.779 92.0943 173.587C92.5254 172.37 92.6525 171.066 92.4645 169.789C92.2769 168.511 92.1833 167.221 92.1845 165.929C92.2744 165.232 92.3125 164.529 92.2984 163.826C92.2774 163.611 92.2393 163.398 92.1845 163.189H92.2224C92.3475 163.192 92.4718 163.17 92.5883 163.124C92.7048 163.079 92.8111 163.01 92.9011 162.924C93.4422 162.506 93.6178 161.689 93.7554 161.062C94.1301 159.62 94.2994 158.132 94.2585 156.642C94.2301 157.093 94.1731 157.549 94.1067 158C94.2253 156.291 93.988 154.629 92.8584 153.39C92.0801 152.54 90.9932 152.042 89.949 151.543C89.5756 151.41 89.2469 151.175 88.9998 150.864C88.8152 150.499 88.7147 150.096 88.7055 149.687C88.3401 147.19 85.9907 145.452 83.6509 144.464C80.6418 143.154 77.0063 142.594 74.1349 144.151C72.711 144.906 71.6194 146.088 70.3379 147.052C68.7337 148.272 66.8827 149.127 65.1694 150.19C63.456 151.254 61.8471 152.602 61.007 154.435C59.7493 157.283 60.6938 160.512 60.8504 163.602C61.1019 168.469 59.0991 173.573 55.1313 176.421C54.6557 176.713 54.2309 177.08 53.8735 177.509C53.6992 177.725 53.5957 177.991 53.577 178.268C53.5583 178.546 53.6254 178.823 53.7691 179.061C53.9732 179.327 54.296 179.479 54.519 179.731C54.9699 180.243 54.8797 181.027 54.7041 181.682C54.1278 183.826 52.9794 185.772 51.3818 187.313C51.453 187.816 52.0748 188.015 52.5826 188.091C53.9262 188.289 55.2825 188.387 56.6406 188.386H57.2243C57.1626 188.542 57.0962 188.709 57.0297 188.884C56.2941 190.821 55.3401 193.803 55.6581 195.626C56.1327 198.503 57.6515 211.659 56.9016 213.967C56.1517 216.274 58.1071 233.005 58.1071 233.005C58.1071 233.005 58.3681 234.296 58.819 236.224C57.6467 238.987 56.3083 242.054 55.6391 243.284C54.2912 245.748 54.9557 258.329 59.6022 263.922C59.6022 263.922 61.5006 266.638 61.026 267.621C60.5514 268.604 61.1114 270.336 61.1114 270.336L61.8471 286.616C61.8313 288.28 61.7172 289.942 61.5054 291.592C59.5215 294.047 56.4649 297.627 55.0269 298.21C52.8009 299.117 36.1989 319.262 36.1989 319.262C36.1989 319.262 36.3318 319.504 36.5928 319.898L36.1182 320.439L32.9335 324.133L32.682 324.423C32.084 324.309 28.102 323.587 24.9458 323.359H24.6325V323.302C23.5264 323.176 22.4079 323.206 21.3102 323.393C21.1026 323.431 20.911 323.53 20.7597 323.677C19.6823 324.997 19.1033 345.716 19.1033 345.716C19.1033 345.716 20.2518 356.09 23.8494 356.669C24.0328 356.733 24.2249 356.768 24.4189 356.774H24.5756C27.1385 356.584 28.3155 355.117 28.8471 354.11C29.0043 353.81 29.1239 353.491 29.2031 353.161C29.2031 353.161 28.7854 351.314 29.9055 348.764C31.0256 346.215 33.1186 341.728 33.1186 341.728C33.1186 341.728 36.9156 337.735 36.2369 335.798C36.3413 335.642 36.4647 335.471 36.5976 335.276C38.0214 333.244 40.9071 329.232 43.2422 326.555C43.3941 326.374 43.5459 326.208 43.7168 326.042C44.5662 326.4 45.4552 326.657 46.3651 326.806C46.3651 326.806 49.9342 325.41 51.2584 322.286C51.8232 320.957 54.0397 318.602 56.3985 316.337L56.3226 316.94L56.2419 336.757C57.0089 337.284 57.8261 337.734 58.6814 338.101V338.576C58.6981 341.399 58.5269 344.221 58.1688 347.022L58.0976 347.464C57.8034 347.255 57.5471 347.183 57.3857 347.345C56.6548 348.086 56.1992 352.814 56.1564 354.993C56.1564 355.065 56.1564 355.136 56.1564 355.212C56.0378 357.386 54.799 360.548 58.5295 360.71C61.3203 360.828 73.3517 361.009 79.7875 361.104C83.2548 361.169 86.628 359.973 89.2798 357.738C91.3254 355.986 92.5642 353.902 89.7782 352.368C89.6073 352.273 89.427 352.183 89.2276 352.093L83.0576 351.143L72.5164 345.759C72.5164 345.759 72.4547 342.502 71.1875 343.043C70.811 343.126 70.4504 343.268 70.1196 343.466C70.0579 343.347 69.9915 343.219 69.9298 343.086C69.0712 341.384 68.6257 339.504 68.6293 337.598C68.6293 337.427 68.6293 337.251 68.6531 337.076C68.9618 336.794 69.2534 336.494 69.5264 336.178C69.5264 336.178 69.4457 328.776 70.2762 327.381C71.1068 325.985 73.6792 311.837 73.6792 311.837C73.6792 311.837 73.7599 309.206 75.4211 307.644C77.0822 306.082 76.4984 301.558 76.4984 301.558C76.4984 301.558 78.8241 300.323 79.5692 296.297C80.3143 292.271 82.7254 283.478 82.7254 283.478C82.7254 283.478 87.7041 270.484 87.3766 262.265C87.0491 254.047 87.8512 249.765 87.8512 249.765L88.8859 230.66V230.365C89.2988 230.679 89.5788 230.935 89.5788 230.935C89.5788 230.935 89.5788 230.859 89.5788 230.726C89.7307 230.854 89.8161 230.935 89.8161 230.935C89.8161 230.935 90.3477 222.266 90.1674 218.828C93.072 217.841 97.4954 216.217 97.7612 215.391C98.1314 214.161 103.115 210.273 103.115 210.273C103.007 210.255 102.904 210.217 102.811 210.159C102.968 210.088 103.129 210.002 103.286 209.912C106.551 208.165 112.617 203.056 111.596 199.942L118.241 190.403C118.449 190.097 118.546 189.729 118.516 189.36C118.486 188.992 118.33 188.644 118.075 188.376Z" fill="url(#paint1_linear)"/>
<path d="M102.617 211.412C102.132 211.716 101.591 211.921 101.027 212.015C98.9525 212.077 97.2297 206.46 97.2297 206.46C97.2297 206.46 97.8182 205.862 98.7579 205.036C101.539 202.562 107.372 197.995 110.106 200.549C113.191 203.403 106.209 209.48 102.617 211.412Z" fill="#ECB4B6"/>
<path d="M71.0878 345.361L63.4323 353.626C63.4323 353.626 56.351 353.707 57.7369 349.8C58.0138 348.953 58.2108 348.082 58.3254 347.198C58.6743 344.423 58.8407 341.629 58.8238 338.832C58.8238 337 58.7953 335.713 58.7953 335.713C58.7953 335.713 69.944 330.828 68.8049 335.917C68.6632 336.554 68.5869 337.203 68.5771 337.854C68.5726 339.741 69.0081 341.602 69.8491 343.291C70.1932 344.019 70.6081 344.713 71.0878 345.361Z" fill="#ECB4B6"/>
<path opacity="0.1" d="M71.0878 345.36L63.4323 353.626C63.4323 353.626 56.351 353.707 57.7369 349.799C58.0138 348.952 58.2108 348.081 58.3254 347.198C59.3363 347.981 60.7887 350.288 60.7887 350.288C60.7887 350.288 65.6725 351.713 67.0156 347.44C67.7655 345.066 68.952 343.865 69.8633 343.29C70.2029 344.019 70.613 344.712 71.0878 345.36Z" fill="black"/>
<path d="M88.848 357.809C86.2524 360.021 82.9356 361.204 79.5265 361.133C73.2141 361.042 61.42 360.857 58.6814 360.743C55.0174 360.582 56.2324 357.453 56.3511 355.298C56.3511 355.222 56.3511 355.155 56.3511 355.084C56.3938 352.924 56.8257 348.242 57.5566 347.511C58.2875 346.78 60.7887 350.768 60.7887 350.768C60.7887 350.768 65.6725 352.193 67.0157 347.92C68.3588 343.647 71.0879 343.234 71.0879 343.234C72.3266 342.697 72.3883 345.921 72.3883 345.921L82.7254 351.253L88.791 352.202C88.9856 352.292 89.1612 352.383 89.3273 352.473C92.0706 354.011 90.8556 356.072 88.848 357.809Z" fill="#C17174"/>
<path opacity="0.25" d="M69.7494 349.591C69.9958 349.591 70.1955 349.391 70.1955 349.144C70.1955 348.898 69.9958 348.698 69.7494 348.698C69.503 348.698 69.3033 348.898 69.3033 349.144C69.3033 349.391 69.503 349.591 69.7494 349.591Z" fill="white"/>
<path opacity="0.25" d="M73.945 351.67C74.1914 351.67 74.3911 351.47 74.3911 351.224C74.3911 350.977 74.1914 350.778 73.945 350.778C73.6986 350.778 73.4988 350.977 73.4988 351.224C73.4988 351.47 73.6986 351.67 73.945 351.67Z" fill="white"/>
<path opacity="0.25" d="M76.0998 352.634C76.3462 352.634 76.546 352.434 76.546 352.188C76.546 351.941 76.3462 351.741 76.0998 351.741C75.8534 351.741 75.6537 351.941 75.6537 352.188C75.6537 352.434 75.8534 352.634 76.0998 352.634Z" fill="white"/>
<path opacity="0.25" d="M80.5753 354.353C80.8217 354.353 81.0215 354.153 81.0215 353.906C81.0215 353.66 80.8217 353.46 80.5753 353.46C80.329 353.46 80.1292 353.66 80.1292 353.906C80.1292 354.153 80.329 354.353 80.5753 354.353Z" fill="white"/>
<path opacity="0.25" d="M78.2972 353.622C78.5436 353.622 78.7434 353.422 78.7434 353.175C78.7434 352.929 78.5436 352.729 78.2972 352.729C78.0508 352.729 77.8511 352.929 77.8511 353.175C77.8511 353.422 78.0508 353.622 78.2972 353.622Z" fill="white"/>
<path d="M88.848 357.809C86.2524 360.021 82.9356 361.204 79.5265 361.132C73.2141 361.042 61.42 360.857 58.6814 360.743C55.0174 360.582 56.2324 357.453 56.3511 355.297L79.3557 356.722C79.3557 356.722 88.7768 355.297 89.3226 352.487C92.0706 354.011 90.8556 356.071 88.848 357.809Z" fill="#C17174"/>
<path opacity="0.25" d="M88.848 357.809C86.2524 360.021 82.9356 361.204 79.5265 361.132C73.2141 361.042 61.42 360.857 58.6814 360.743C55.0174 360.582 56.2324 357.453 56.3511 355.297L79.3557 356.722C79.3557 356.722 88.7768 355.297 89.3226 352.487C92.0706 354.011 90.8556 356.071 88.848 357.809Z" fill="white"/>
<path d="M46.0235 324.598C45.177 325.289 44.404 326.066 43.7168 326.915C41.4339 329.565 38.61 333.562 37.2099 335.547C36.6688 336.325 36.3413 336.814 36.3413 336.814L33.2848 336.363C33.2848 336.363 29.991 331.317 30.0337 331.198C30.0764 331.079 32.6441 325.657 32.6441 325.657L33.636 324.494L36.7637 320.838L38.1876 319.186C38.1876 319.186 48.781 322.604 46.0235 324.598Z" fill="#ECB4B6"/>
<path opacity="0.1" d="M37.2099 335.556C36.6688 336.335 36.3413 336.824 36.3413 336.824L33.2848 336.373C33.2848 336.373 29.991 331.326 30.0337 331.207C30.0764 331.089 32.6441 325.657 32.6441 325.657L33.636 324.494L33.9587 324.556H34.7371C32.0081 327.405 34.9365 333.672 34.9365 333.672C34.9365 333.672 36.1989 333.79 37.2099 335.556Z" fill="black"/>
<path d="M33.7974 341.937C33.7974 341.937 31.7613 346.334 30.6602 348.859C29.5591 351.385 29.9672 353.213 29.9672 353.213C29.8897 353.542 29.7734 353.861 29.6208 354.163C29.2305 354.939 28.6366 355.595 27.9027 356.06C27.1687 356.525 26.3222 356.781 25.4536 356.802H25.2543C21.5428 356.708 20.3658 345.93 20.3658 345.93C20.3658 345.93 20.9353 325.415 21.9937 324.091C22.1393 323.943 22.3264 323.844 22.53 323.806C23.61 323.618 24.7114 323.588 25.8001 323.715C29.1556 323.958 33.4699 324.784 33.4699 324.784H34.2435C31.5145 327.632 34.4429 333.904 34.4429 333.904C34.4429 333.904 35.748 334.023 36.7637 335.855C37.7794 337.688 33.7974 341.937 33.7974 341.937Z" fill="#C17174"/>
<path opacity="0.25" d="M29.3169 336.278C29.5633 336.278 29.7631 336.078 29.7631 335.832C29.7631 335.585 29.5633 335.385 29.3169 335.385C29.0705 335.385 28.8708 335.585 28.8708 335.832C28.8708 336.078 29.0705 336.278 29.3169 336.278Z" fill="white"/>
<path opacity="0.25" d="M29.0938 339.834C29.3402 339.834 29.54 339.634 29.54 339.388C29.54 339.141 29.3402 338.941 29.0938 338.941C28.8474 338.941 28.6477 339.141 28.6477 339.388C28.6477 339.634 28.8474 339.834 29.0938 339.834Z" fill="white"/>
<path d="M29.3217 354.072C28.9314 354.849 28.3376 355.505 27.6036 355.97C26.8696 356.434 26.0231 356.691 25.1546 356.712H24.96C21.2485 356.617 20.0667 345.84 20.0667 345.84C20.0667 345.84 20.6362 325.325 21.6946 324C21.8402 323.853 22.0273 323.753 22.2309 323.715C23.311 323.528 24.4124 323.498 25.501 323.625C25.4393 327.314 25.2637 338.97 25.501 340.128C25.7384 341.287 27.8409 350.982 29.3217 354.072Z" fill="#C17174"/>
<path opacity="0.25" d="M29.3217 354.072C28.9314 354.849 28.3376 355.505 27.6036 355.97C26.8696 356.434 26.0231 356.691 25.1546 356.712H24.96C21.2485 356.617 20.0667 345.84 20.0667 345.84C20.0667 345.84 20.6362 325.325 21.6946 324C21.8402 323.853 22.0273 323.753 22.2309 323.715C23.311 323.528 24.4124 323.498 25.501 323.625C25.4393 327.314 25.2637 338.97 25.501 340.128C25.7384 341.287 27.8409 350.982 29.3217 354.072Z" fill="white"/>
<path d="M24.9552 356.722C21.2438 356.627 20.062 345.849 20.062 345.849C20.062 345.849 20.6315 325.334 21.6899 324.01C21.8354 323.862 22.0226 323.763 22.2262 323.725C23.0046 324.883 23.688 327.447 23.071 333.087C21.913 343.775 23.3083 344.449 23.3083 344.449C23.3083 344.449 25.0502 353.531 24.9552 356.722Z" fill="#C17174"/>
<path opacity="0.1" d="M24.9552 356.722C21.2438 356.627 20.062 345.849 20.062 345.849C20.062 345.849 20.6315 325.334 21.6899 324.01C21.8354 323.862 22.0226 323.763 22.2262 323.725C23.0046 324.883 23.688 327.447 23.071 333.087C21.913 343.775 23.3083 344.449 23.3083 344.449C23.3083 344.449 25.0502 353.531 24.9552 356.722Z" fill="black"/>
<path opacity="0.1" d="M102.617 211.412C102.132 211.717 101.591 211.921 101.027 212.015C98.9525 212.077 97.2297 206.46 97.2297 206.46C97.2297 206.46 97.8182 205.862 98.7579 205.036C99.4366 206.555 101.307 210.653 102.617 211.412Z" fill="black"/>
<path d="M89.3084 209.39C89.3084 209.39 91.017 209.513 92.1133 208.782C93.2097 208.051 97.9131 206.033 98.0365 204.689C98.0365 204.689 100.841 211.526 102.431 211.773C102.431 211.773 97.5477 215.619 97.1822 216.839C96.8168 218.059 87.2912 221.055 87.2912 221.055L89.3084 209.39Z" fill="#FF748E"/>
<path opacity="0.1" d="M89.3084 209.39C89.3084 209.39 91.017 209.513 92.1133 208.782C93.2097 208.051 97.9131 206.033 98.0365 204.689C98.0365 204.689 100.841 211.526 102.431 211.773C102.431 211.773 97.5477 215.619 97.1822 216.839C96.8168 218.059 87.2912 221.055 87.2912 221.055L89.3084 209.39Z" fill="black"/>
<path opacity="0.1" d="M46.0234 324.598C45.177 325.289 44.404 326.066 43.7168 326.915C40.0338 325.372 37.6607 322.22 36.759 320.838L38.1828 319.186C38.1828 319.186 48.781 322.604 46.0234 324.598Z" fill="black"/>
<path d="M63.4417 289.978C63.4417 289.978 57.4711 297.959 55.2879 298.856C53.1046 299.754 36.8301 319.699 36.8301 319.699C36.8301 319.699 40.328 326.132 46.759 327.186C46.759 327.186 50.2569 325.805 51.5621 322.709C52.8673 319.613 63.119 310.868 63.119 310.868L63.4417 289.978Z" fill="#5E5A6B"/>
<path opacity="0.1" d="M63.4417 289.978C63.4417 289.978 57.4711 297.959 55.2879 298.856C53.1046 299.754 36.8301 319.699 36.8301 319.699C36.8301 319.699 40.328 326.132 46.759 327.186C46.759 327.186 50.2569 325.805 51.5621 322.709C52.8673 319.613 63.119 310.868 63.119 310.868L63.4417 289.978Z" fill="black"/>
<path opacity="0.1" d="M45.3542 316.684C47.1607 316.874 48.982 316.874 50.7885 316.684C54.0017 316.375 51.5811 318.332 45.3542 316.684Z" fill="black"/>
<path opacity="0.1" d="M43.8877 318.759C43.8877 318.759 48.1592 321.199 49.8109 319.979C51.4625 318.759 48.2209 321.156 43.8877 318.759Z" fill="black"/>
<path opacity="0.1" d="M68.8145 335.917C68.6728 336.553 68.5964 337.202 68.5866 337.854C65.2881 340.85 61.3156 339.924 58.8333 338.832C58.8333 337 58.8048 335.713 58.8048 335.713C58.8048 335.713 69.9535 330.809 68.8145 335.917Z" fill="black"/>
<path d="M88.5916 229.705L88.4729 231.956L87.4572 250.875C87.4572 250.875 86.6409 255.11 86.9826 263.248C87.3243 271.386 82.4073 284.281 82.4073 284.281C82.4073 284.281 80.0343 292.993 79.3128 296.981C78.5914 300.969 76.3038 302.203 76.3038 302.203C76.3038 302.203 76.8733 306.68 75.2454 308.228C73.6175 309.776 73.5368 312.378 73.5368 312.378C73.5368 312.378 71.0118 326.384 70.2145 327.77C69.4171 329.156 69.4788 336.482 69.4788 336.482C64.1916 342.749 56.4601 337.052 56.4601 337.052L56.5408 317.429C56.5408 317.429 58.7383 299.355 60.3662 296.829C61.9942 294.303 61.9941 287.386 61.9941 287.386L61.268 271.243C61.268 271.243 60.689 269.534 61.1873 268.556C61.6856 267.578 59.7967 264.895 59.7967 264.895C55.2356 259.355 54.5759 246.897 55.9096 244.48C57.2433 242.064 61.1873 232.269 61.1873 232.269L66.6311 229.093L76.4699 229.382L88.5916 229.705Z" fill="#5E5A6B"/>
<path opacity="0.1" d="M65.44 325.657C65.44 325.657 66.7262 330.115 67.7609 330.604C68.7955 331.093 65.44 325.657 65.44 325.657Z" fill="black"/>
<path opacity="0.1" d="M67.2102 310.821C67.2102 310.821 70.5325 313.451 71.9563 313.446C73.3802 313.441 67.2102 310.821 67.2102 310.821Z" fill="black"/>
<path d="M87.2912 200.597V205.971L83.7458 204.443L80.21 202.919L72.5117 195.346C72.5117 195.346 66.4224 191.391 63.1665 187.788C61.306 185.732 60.371 183.79 62.0085 182.764C62.802 182.245 63.5193 181.617 64.1395 180.899C65.7759 178.969 67.1985 176.868 68.3825 174.632C68.4348 174.541 68.487 174.451 68.5344 174.361C70.1196 171.451 71.1685 168.968 71.1685 168.968C71.1685 168.968 75.6299 170.392 78.4966 172.424C78.7291 172.585 78.9475 172.751 79.1563 172.922C80.7558 174.233 81.5531 175.771 80.0771 177.271C79.6979 177.663 79.3474 178.082 79.0282 178.525C78.7898 178.853 78.5711 179.196 78.3732 179.55C78.2878 179.712 78.2023 179.868 78.1264 180.025C77.1388 182.046 76.7974 184.322 77.1487 186.544L87.2912 200.597Z" fill="#ECB4B6"/>
<path d="M86.641 162.264C86.8261 162.586 87.0824 162.862 87.2532 163.189C87.5411 163.912 87.6344 164.698 87.5238 165.468C87.4312 166.686 87.5111 167.91 87.7611 169.105C88.0126 170.178 88.4825 171.213 88.5205 172.315C88.5727 173.867 87.7658 175.306 86.9874 176.649C87.4103 176.636 87.8262 176.538 88.2097 176.359C88.5932 176.18 88.9363 175.925 89.2181 175.609C89.3212 175.952 89.3379 176.315 89.2667 176.665C89.1954 177.015 89.0385 177.343 88.81 177.618C90.0867 177.556 91.183 176.55 91.6577 175.372C92.0908 174.156 92.2163 172.851 92.0231 171.574C91.8372 170.308 91.7452 169.031 91.7478 167.752C91.8361 167.061 91.8726 166.364 91.857 165.668C91.7383 164.286 90.9078 163.085 90.0724 161.964L88.4208 159.695C88.306 159.51 88.1416 159.36 87.9462 159.263C86.3847 158.598 86.2043 161.475 86.641 162.264Z" fill="#464353"/>
<path opacity="0.1" d="M80.1056 177.271C79.7264 177.663 79.3759 178.082 79.0567 178.525C78.8183 178.853 78.5996 179.196 78.4017 179.55C78.3163 179.712 78.2309 179.868 78.1549 180.025C76.2734 179.919 74.4382 179.4 72.7803 178.504C71.1223 177.608 69.6823 176.357 68.5629 174.84C68.5107 174.769 68.4585 174.698 68.4111 174.622C68.4633 174.532 68.5155 174.442 68.5629 174.351C70.1482 171.441 71.1971 168.958 71.1971 168.958C71.1971 168.958 75.6584 170.382 78.5251 172.414C78.7577 172.576 78.976 172.742 79.1848 172.913C80.7653 174.233 81.5626 175.752 80.1056 177.271Z" fill="black"/>
<path d="M91.6767 166.746C91.6774 169.743 90.628 172.646 88.7108 174.95C86.7936 177.254 84.13 178.813 81.1829 179.356C80.4156 179.495 79.6372 179.565 78.8573 179.564H78.8004C78.6627 179.564 78.5203 179.564 78.3827 179.564C75.8705 179.471 73.4412 178.641 71.3972 177.177C69.3532 175.713 67.7848 173.68 66.8873 171.331C65.9898 168.982 65.8027 166.421 66.3495 163.966C66.8962 161.512 68.1526 159.272 69.9623 157.527C71.7719 155.781 74.0548 154.607 76.5268 154.149C78.9987 153.692 81.5506 153.972 83.8646 154.955C86.1787 155.937 88.1527 157.579 89.5409 159.676C90.9291 161.772 91.6702 164.231 91.6719 166.746H91.6767Z" fill="#ECB4B6"/>
<path opacity="0.1" d="M80.5374 198.442C80.5374 198.442 86.9922 202.083 85.3405 199.011L76.9161 186.553L86.4796 198.845C86.4796 198.845 92.5831 207.234 89.2466 213.012C89.2466 213.012 88.772 217.817 89.3273 218.957C89.8826 220.096 89.1659 232.25 89.1659 232.25C89.1659 232.25 86.883 230.133 85.6632 230.536C84.4435 230.94 75.834 231.662 75.834 231.662L80.5374 198.442Z" fill="black"/>
<path opacity="0.1" d="M88.5916 229.705L88.473 231.956C87.6994 231.396 86.622 230.769 85.9053 231.006C84.6855 231.415 76.0618 232.15 76.0618 232.15L76.4557 229.344L88.5916 229.705Z" fill="black"/>
<path d="M80.7795 198.442C80.7795 198.442 87.239 202.083 85.5826 199.011L77.1581 186.553L86.7216 198.845C86.7216 198.845 92.8252 207.234 89.4886 213.012C89.4886 213.012 89.014 217.817 89.5693 218.957C90.1246 220.096 89.408 232.25 89.408 232.25C89.408 232.25 87.1298 230.133 85.9101 230.536C84.6903 230.94 76.0618 231.681 76.0618 231.681L80.7795 198.442Z" fill="#464353"/>
<path opacity="0.1" d="M84.23 204.685C83.855 208.602 82.2461 213.259 82.2461 213.259C82.2461 213.259 81.107 224.82 79.6309 228.257C78.1549 231.695 78.8146 236.4 78.003 245.112C77.7088 248.25 76.6978 250.405 75.3357 251.858C73.0955 254.232 69.8966 254.75 67.3716 254.602L66.7736 254.555C62.7014 254.151 58.7954 234.529 58.7954 234.529C58.7954 234.529 56.9254 217.836 57.6563 215.538C58.3872 213.24 56.9349 200.246 56.446 197.397C56.1328 195.588 57.0677 192.649 57.7892 190.722C58.2116 189.611 58.558 188.822 58.558 188.822C58.558 188.822 59.9439 184.426 62.2221 182.147C62.5362 181.825 62.9119 181.568 63.3269 181.394C63.7419 181.219 64.1877 181.13 64.6379 181.131C65.7089 181.175 66.749 181.502 67.6517 182.081C67.6882 182.102 67.7231 182.126 67.7561 182.152C67.7561 182.152 82.5736 197.297 83.9547 200.796C84.3391 201.779 84.3771 203.175 84.23 204.685Z" fill="black"/>
<path d="M83.7459 204.443C83.3662 208.355 81.7572 213.012 81.7572 213.012C81.7572 213.012 80.6182 224.578 79.1516 227.996C77.685 231.415 78.34 236.139 77.5237 244.851C77.2294 247.984 76.2185 250.14 74.8563 251.597C72.6162 253.971 69.4172 254.484 66.8923 254.341L66.2943 254.294C62.2221 253.886 58.316 234.263 58.316 234.263C58.316 234.263 56.446 217.575 57.1769 215.296C57.9078 213.017 56.446 199.989 55.9572 197.136C55.6439 195.332 56.5789 192.388 57.3003 190.461C57.7227 189.35 58.0692 188.585 58.0692 188.585C58.0692 188.585 59.4551 184.189 61.7332 181.91C62.0464 181.586 62.422 181.33 62.8373 181.156C63.2526 180.982 63.6989 180.895 64.149 180.899C65.2209 180.937 66.2623 181.265 67.1628 181.848L67.2672 181.915C67.2672 181.915 82.0847 197.06 83.4658 200.559C83.8503 201.532 83.9025 202.933 83.7459 204.443Z" fill="#FF748E"/>
<path opacity="0.1" d="M67.1486 264.046C67.1486 264.046 63.7883 267.037 62.6302 266.895C61.4722 266.752 67.1486 264.046 67.1486 264.046Z" fill="black"/>
<path opacity="0.1" d="M68.0408 266.918C68.0408 266.918 64.5002 268.561 63.4418 268.817C62.3834 269.074 66.674 266.496 68.0408 266.918Z" fill="black"/>
<path opacity="0.1" d="M81.7382 221.971C81.7382 221.971 86.9875 222.033 87.7801 223.681C88.5727 225.328 83.4278 221.297 81.7382 221.971Z" fill="black"/>
<path opacity="0.1" d="M81.0026 224.839C81.0026 224.839 85.0321 225.693 86.2518 226.671C87.4716 227.65 81.0026 224.839 81.0026 224.839Z" fill="black"/>
<path opacity="0.1" d="M74.2298 214.888C74.2298 214.888 73.7552 231.434 71.9421 233.575C70.1291 235.716 74.2298 214.888 74.2298 214.888Z" fill="black"/>
<path opacity="0.1" d="M69.7114 261.662C69.7114 261.662 66.3416 276.257 73.1002 277.159C79.8587 278.061 77.7704 260.542 77.7704 260.542L69.7114 261.662Z" fill="black"/>
<path d="M69.4647 261.42C69.4647 261.42 66.1139 276.015 72.8581 276.926C79.6024 277.838 77.5236 260.309 77.5236 260.309L69.4647 261.42Z" fill="#ECB4B6"/>
<path opacity="0.1" d="M91.5959 165.331C91.4079 165.052 91.2489 164.754 91.1213 164.443C90.2243 162.572 87.9177 163.493 86.2281 164.381L85.3263 165.544C84.9148 166.027 84.5685 166.562 84.2964 167.135C84.1232 167.6 83.9789 168.076 83.8645 168.559C83.6319 169.385 83.2902 170.173 82.9817 170.981C81.9585 173.664 81.3519 176.488 81.1829 179.356C80.4155 179.495 79.6372 179.565 78.8573 179.564H78.8003V179.508C78.8858 179.185 78.957 178.857 79.0234 178.529C79.3767 176.682 79.42 174.789 79.1515 172.927C79.1515 172.884 79.1515 172.846 79.1515 172.804C79.0898 172.391 79.0092 171.973 78.9759 171.56C78.8193 171.845 78.6674 172.134 78.5013 172.429C77.4809 174.328 76.4083 176.227 74.4813 177.058C73.6994 177.365 72.8751 177.55 72.0371 177.608C71.0025 177.664 69.9774 177.834 68.9805 178.116C68.6407 178.209 68.3334 178.395 68.093 178.653C67.8247 179.05 67.6704 179.513 67.6469 179.992C67.544 180.623 67.3852 181.245 67.1723 181.848C66.3008 184.101 64.9389 186.131 63.1855 187.792L62.7441 188.22C61.9924 188.996 61.0958 189.617 60.1052 190.047C59.2053 190.35 58.2589 190.492 57.3098 190.465C57.7322 189.354 58.0786 188.59 58.0786 188.59C58.0786 188.59 59.4645 184.194 61.7427 181.915C62.0558 181.591 62.4315 181.335 62.8468 181.161C63.262 180.987 63.7083 180.899 64.1585 180.903C65.859 178.892 67.3329 176.7 68.5534 174.366C67.387 172.782 66.6004 170.952 66.2545 169.016C65.9086 167.08 66.0127 165.09 66.5586 163.201C67.1046 161.311 68.0779 159.573 69.4031 158.12C70.7282 156.667 72.3698 155.539 74.2008 154.823C76.0317 154.106 78.0029 153.821 79.9619 153.988C81.9208 154.156 83.8148 154.772 85.4975 155.79C87.1801 156.807 88.6062 158.198 89.6653 159.855C90.7245 161.512 91.3883 163.39 91.6054 165.345L91.5959 165.331Z" fill="black"/>
<path d="M92.4122 155.327C91.6529 154.482 90.585 153.988 89.5646 153.499C89.2013 153.362 88.8816 153.129 88.6391 152.825C88.462 152.462 88.3649 152.066 88.3543 151.662C87.9983 149.184 85.6917 147.47 83.3993 146.463C80.4472 145.167 76.9018 144.612 74.0684 146.15C72.692 146.9 71.6051 148.073 70.3616 149.027C68.7859 150.233 66.9729 151.078 65.2927 152.132C63.6126 153.186 62.0084 154.506 61.2111 156.339C59.9771 159.14 60.9026 162.354 61.0592 165.411C61.3012 170.235 59.3411 175.273 55.4492 178.126C54.9803 178.413 54.5632 178.778 54.2152 179.204C54.0451 179.419 53.9445 179.681 53.9266 179.955C53.9088 180.229 53.9747 180.502 54.1156 180.737C54.3102 181.003 54.6329 181.155 54.8465 181.402C55.2926 181.91 55.2024 182.684 55.0268 183.339C54.4646 185.456 53.3395 187.38 51.771 188.908C51.8374 189.411 52.4449 189.606 52.9433 189.682C54.2615 189.878 55.5926 189.975 56.9253 189.972C57.964 190.057 59.0082 189.898 59.9747 189.508C60.9413 189.118 61.8034 188.508 62.4925 187.726C64.8656 185.494 66.8732 182.707 67.4095 179.498C67.4375 179.02 67.5914 178.558 67.8557 178.159C68.0994 177.906 68.4055 177.721 68.7432 177.623C70.5135 177.015 72.5401 177.314 74.244 176.564C76.4652 175.614 77.5663 173.24 78.7291 171.066C78.7671 171.479 78.843 171.897 78.9095 172.315C79.2484 174.549 79.1354 176.829 78.5772 179.018C78.2592 180.258 77.7988 181.492 77.8321 182.769C77.8558 183.719 78.8193 188.68 80.0865 187.194C81.3537 185.708 80.8886 182.423 80.8886 180.58C80.89 177.132 81.5222 173.713 82.7538 170.492C83.0576 169.689 83.4041 168.896 83.6366 168.07C83.7517 167.588 83.8943 167.112 84.0638 166.646C84.3394 166.074 84.6871 165.539 85.0984 165.055L86.0049 163.892C87.6946 162.995 90.0012 162.083 90.8982 163.954C91.2399 164.671 91.425 165.464 92.3221 164.766C92.8489 164.353 93.0198 163.541 93.1574 162.924C93.7222 160.336 94.1873 157.293 92.4122 155.327Z" fill="#464353"/>
<path opacity="0.1" d="M75.236 200.151C74.8895 191.382 62.6207 189.568 59.7588 197.862C59.7356 197.918 59.7165 197.975 59.7018 198.033C57.8271 203.65 58.6435 217.874 58.6435 217.874C58.6435 217.874 58.8855 227.426 59.7825 230.603C60.6796 233.779 63.1998 242.895 63.1998 244.371C63.1998 245.848 65.5396 251.455 66.5221 251.863C67.5045 252.271 68.0029 255.443 68.2449 256.013C68.487 256.582 69.1941 263.994 69.1941 263.994C69.1941 263.994 78.3922 263.424 78.5536 261.957C78.7149 260.49 76.5175 253.325 76.5175 253.325C76.5175 253.325 74.899 250.396 74.6902 248.036C74.4814 245.677 73.2094 244.604 73.4609 242.975C73.7125 241.347 72.7253 240.535 72.7253 239.476C72.7253 238.417 71.9944 235.569 71.9944 235.569C71.9944 235.569 70.4471 234.344 70.6939 232.882C70.9407 231.419 68.4965 228.485 69.1467 227.426C69.7969 226.368 69.9583 223.761 69.9583 223.761C69.9583 223.761 70.7746 212.039 71.3442 208.863C71.9137 205.686 75.2502 200.559 75.2502 200.559C75.2502 200.559 75.2455 200.412 75.236 200.151Z" fill="black"/>
<path opacity="0.1" d="M74.8563 251.597C72.6161 253.971 69.4172 254.484 66.8923 254.341C66.598 253.23 66.1709 251.863 65.5491 251.607C64.5619 251.198 62.2268 245.582 62.2268 244.12C62.2268 242.657 59.7066 233.532 58.8096 230.351C57.9126 227.17 57.6705 217.627 57.6705 217.627C57.6705 217.627 56.8542 203.384 58.7289 197.782C58.7289 197.729 58.7621 197.672 58.7859 197.615C61.6336 189.316 73.9166 191.135 74.2631 199.904C74.2631 200.165 74.2631 200.307 74.2631 200.307C74.2631 200.307 70.9408 205.435 70.357 208.611C69.7732 211.787 68.9806 223.51 68.9806 223.51C68.9806 223.51 68.8145 226.116 68.1643 227.175C67.514 228.234 69.9536 231.168 69.7115 232.63C69.4694 234.092 71.0119 235.317 71.0119 235.317C71.0119 235.317 71.7429 238.166 71.7429 239.229C71.7429 240.293 72.7206 241.1 72.4785 242.728C72.2364 244.357 73.5369 245.416 73.7457 247.775C73.9201 249.098 74.2946 250.387 74.8563 251.597Z" fill="black"/>
<path d="M74.7472 199.908C74.4007 191.139 62.1319 189.326 59.27 197.62L59.213 197.786C57.3383 203.408 58.1546 217.632 58.1546 217.632C58.1546 217.632 58.3967 227.179 59.2937 230.356C60.1907 233.532 62.7109 242.652 62.7109 244.124C62.7109 245.596 65.0508 251.208 66.0332 251.616C67.0157 252.024 67.514 255.201 67.7561 255.77C67.9981 256.34 68.7053 263.747 68.7053 263.747C68.7053 263.747 77.9034 263.177 78.0647 261.715C78.2261 260.252 76.0334 253.083 76.0334 253.083C76.0334 253.083 74.4102 250.149 74.2014 247.789C73.9925 245.43 72.6921 244.371 72.9389 242.743C73.1857 241.114 72.2032 240.297 72.2032 239.239C72.2032 238.18 71.4723 235.331 71.4723 235.331C71.4723 235.331 69.9251 234.111 70.1719 232.644C70.4187 231.177 67.9744 228.248 68.6246 227.189C69.2749 226.13 69.4362 223.528 69.4362 223.528C69.4362 223.528 70.2526 211.802 70.8221 208.625C71.3916 205.449 74.7282 200.321 74.7282 200.321C74.7282 200.321 74.7567 200.17 74.7472 199.908Z" fill="#FF748E"/>
<path opacity="0.1" d="M59.6402 222.46C59.8822 222.213 64.524 217.086 65.9858 218.919C67.4476 220.751 59.6402 222.46 59.6402 222.46Z" fill="black"/>
<path opacity="0.1" d="M60.0672 226.429C60.2476 226.244 64.7042 226.064 65.8053 223.581C66.9064 221.098 60.0672 226.429 60.0672 226.429Z" fill="black"/>
<g opacity="0.1">
<path opacity="0.1" d="M54.9888 181.402C55.0984 181.531 55.1807 181.681 55.2308 181.843C55.3205 181.566 55.3454 181.272 55.3034 180.984C55.2614 180.696 55.1538 180.421 54.9888 180.182C54.7705 179.93 54.4525 179.783 54.2531 179.517C54.2531 179.517 54.2294 179.474 54.2152 179.45C54.1051 179.648 54.0505 179.873 54.0572 180.099C54.0639 180.325 54.1316 180.546 54.2531 180.737C54.4762 181.003 54.7705 181.155 54.9888 181.402Z" fill="black"/>
<path opacity="0.1" d="M61.2015 165.587C61.2015 165.112 61.2015 164.637 61.2015 164.201C61.1161 162.539 60.8076 160.835 60.7269 159.168C60.6272 161.21 61.0828 163.351 61.2015 165.421C61.2015 165.468 61.1967 165.521 61.2015 165.587Z" fill="black"/>
<path opacity="0.1" d="M80.2242 185.974C79.0946 187.298 78.207 183.486 78.0124 181.981C77.9817 182.243 77.9674 182.506 77.9697 182.769C77.9982 183.719 78.9569 188.68 80.2242 187.194C81.0832 186.187 81.1734 184.474 81.1164 182.893C81.0547 184.103 80.8649 185.224 80.2242 185.974Z" fill="black"/>
<path opacity="0.1" d="M79.0471 172.315C79.1436 172.953 79.2023 173.597 79.2227 174.242C79.2639 173.188 79.2051 172.133 79.0471 171.09C78.9854 170.677 78.9047 170.259 78.8667 169.841C77.6944 172.035 76.6075 174.38 74.3863 175.344C72.6635 176.089 70.6559 175.795 68.8856 176.402C68.5457 176.495 68.2384 176.681 67.998 176.939C67.731 177.337 67.5768 177.799 67.5519 178.278C67.0108 181.487 64.9985 184.274 62.6301 186.506C61.941 187.288 61.0789 187.898 60.1123 188.288C59.1458 188.678 58.1016 188.837 57.0629 188.751C55.7318 188.752 54.4025 188.655 53.0856 188.462C52.8814 188.43 52.681 188.378 52.4876 188.305C52.3025 188.514 52.1079 188.713 51.9086 188.908C51.975 189.411 52.5873 189.606 53.0856 189.682C54.4023 189.878 55.7318 189.975 57.0629 189.971C58.1016 190.057 59.1458 189.898 60.1123 189.508C61.0789 189.118 61.941 188.508 62.6301 187.726C65.0032 185.494 67.0108 182.707 67.5519 179.498C67.5776 179.02 67.7317 178.557 67.998 178.159C68.2402 177.904 68.5468 177.718 68.8856 177.623C70.6559 177.015 72.6825 177.314 74.3863 176.564C76.6075 175.614 77.7087 173.24 78.8667 171.066C78.9047 171.479 78.9854 171.897 79.0471 172.315Z" fill="black"/>
<path opacity="0.1" d="M93.295 161.703C93.1573 162.321 92.9817 163.128 92.4549 163.546C91.5626 164.239 91.3822 163.451 91.031 162.734C90.134 160.863 87.8274 161.784 86.1378 162.672L85.2312 163.835C84.8198 164.318 84.4735 164.853 84.2013 165.426C84.0275 165.89 83.8848 166.366 83.7742 166.85C83.5369 167.676 83.1951 168.464 82.8866 169.267C81.6597 172.489 81.0293 175.907 81.0262 179.356C81.0262 179.512 81.0262 179.683 81.0262 179.859C81.1107 176.654 81.7382 173.486 82.8819 170.491C83.1904 169.689 83.5321 168.896 83.7694 168.07C83.8801 167.586 84.0228 167.111 84.1966 166.646C84.4687 166.073 84.815 165.538 85.2265 165.055L86.133 163.892C87.8226 162.995 90.1293 162.083 91.0263 163.954C91.3728 164.671 91.5531 165.464 92.4501 164.766C92.977 164.353 93.1526 163.541 93.2902 162.924C93.6481 161.493 93.8078 160.02 93.7648 158.546C93.6888 159.609 93.5317 160.664 93.295 161.703Z" fill="black"/>
</g>
<path d="M104.396 207.927L104.648 208.098C104.535 208.024 104.439 207.927 104.365 207.814C104.29 207.701 104.24 207.575 104.215 207.442C104.191 207.309 104.193 207.172 104.223 207.04C104.252 206.909 104.308 206.784 104.387 206.674L115.702 190.275C115.776 190.166 115.872 190.073 115.983 190C116.094 189.928 116.218 189.879 116.348 189.855C116.478 189.831 116.612 189.833 116.741 189.862C116.871 189.89 116.993 189.943 117.102 190.019L116.85 189.843C117.203 190.087 117.445 190.461 117.522 190.883C117.6 191.305 117.506 191.74 117.263 192.094L106.646 207.51C106.402 207.862 106.029 208.104 105.607 208.183C105.186 208.261 104.75 208.169 104.396 207.927Z" fill="#464353"/>
<path d="M116.972 189.905L117.163 190.037L104.708 208.125L104.517 207.993C104.337 207.868 104.213 207.678 104.173 207.462C104.134 207.247 104.181 207.024 104.305 206.844L115.82 190.121C115.945 189.941 116.136 189.817 116.351 189.777C116.566 189.737 116.789 189.785 116.969 189.909L116.972 189.905Z" fill="#9F9EFF"/>
<path d="M115.572 192.377L115.537 192.353C115.501 192.327 115.45 192.337 115.425 192.373L114.502 193.714C114.476 193.751 114.486 193.801 114.522 193.827L114.557 193.851C114.594 193.876 114.644 193.867 114.67 193.83L115.593 192.489C115.618 192.452 115.609 192.402 115.572 192.377Z" fill="#464353"/>
<path d="M355.676 133.886C355.68 135.509 355.203 137.096 354.304 138.447C353.406 139.798 352.127 140.852 350.63 141.475C349.132 142.099 347.484 142.264 345.892 141.95C344.301 141.635 342.839 140.856 341.691 139.71C340.543 138.564 339.76 137.103 339.442 135.512C339.124 133.921 339.286 132.271 339.905 130.772C340.525 129.273 341.576 127.991 342.924 127.089C344.272 126.187 345.858 125.706 347.48 125.706C349.65 125.706 351.732 126.567 353.269 128.101C354.806 129.634 355.671 131.715 355.676 133.886ZM346.531 138.226L352.615 132.144C352.713 132.045 352.768 131.911 352.768 131.771C352.768 131.632 352.713 131.498 352.615 131.399L351.865 130.648C351.817 130.599 351.759 130.56 351.695 130.533C351.631 130.506 351.562 130.492 351.493 130.492C351.423 130.492 351.355 130.506 351.291 130.533C351.227 130.56 351.169 130.599 351.12 130.648L346.16 135.61L343.844 133.302C343.744 133.204 343.61 133.15 343.469 133.15C343.329 133.15 343.195 133.204 343.094 133.302L342.349 134.053C342.3 134.101 342.26 134.159 342.234 134.223C342.207 134.287 342.193 134.356 342.193 134.425C342.193 134.495 342.207 134.563 342.234 134.627C342.26 134.691 342.3 134.749 342.349 134.798L345.785 138.235C345.834 138.285 345.892 138.324 345.956 138.351C346.02 138.378 346.089 138.392 346.158 138.392C346.227 138.392 346.296 138.378 346.36 138.351C346.424 138.324 346.482 138.285 346.531 138.235V138.226Z" fill="#3ACC6C"/>
<path d="M256.382 223.875C256.382 225.497 255.902 227.082 255.001 228.43C254.1 229.779 252.82 230.83 251.322 231.45C249.825 232.071 248.177 232.233 246.587 231.917C244.997 231.601 243.536 230.82 242.39 229.673C241.244 228.526 240.463 227.065 240.147 225.475C239.83 223.884 239.993 222.236 240.613 220.737C241.233 219.239 242.284 217.959 243.632 217.058C244.98 216.157 246.565 215.676 248.186 215.676C250.36 215.676 252.444 216.54 253.982 218.077C255.519 219.615 256.382 221.701 256.382 223.875ZM247.237 228.215L253.34 222.133C253.39 222.084 253.429 222.025 253.456 221.961C253.483 221.897 253.497 221.827 253.497 221.758C253.497 221.688 253.483 221.619 253.456 221.554C253.429 221.49 253.39 221.432 253.34 221.383L252.571 220.661C252.522 220.611 252.464 220.572 252.399 220.545C252.335 220.518 252.266 220.504 252.196 220.504C252.126 220.504 252.057 220.518 251.993 220.545C251.929 220.572 251.87 220.611 251.821 220.661L246.862 225.599L244.545 223.282C244.497 223.232 244.439 223.193 244.375 223.166C244.311 223.139 244.242 223.125 244.173 223.125C244.103 223.125 244.035 223.139 243.971 223.166C243.907 223.193 243.849 223.232 243.8 223.282L243.05 224.027C242.952 224.127 242.898 224.262 242.898 224.402C242.898 224.542 242.952 224.677 243.05 224.777L246.487 228.215C246.536 228.264 246.594 228.304 246.658 228.331C246.723 228.357 246.792 228.371 246.862 228.371C246.931 228.371 247 228.357 247.065 228.331C247.129 228.304 247.188 228.264 247.237 228.215Z" fill="#3ACC6C"/>
<path d="M256.382 313.446C256.382 315.068 255.902 316.653 255.001 318.002C254.1 319.35 252.82 320.401 251.322 321.021C249.825 321.642 248.177 321.804 246.587 321.488C244.997 321.172 243.536 320.391 242.39 319.244C241.244 318.097 240.463 316.636 240.147 315.046C239.83 313.455 239.993 311.807 240.613 310.308C241.233 308.81 242.284 307.53 243.632 306.629C244.98 305.728 246.565 305.247 248.186 305.247C250.36 305.247 252.444 306.111 253.982 307.648C255.519 309.186 256.382 311.272 256.382 313.446ZM247.237 317.786L253.34 311.704C253.39 311.655 253.429 311.596 253.456 311.532C253.483 311.468 253.497 311.398 253.497 311.329C253.497 311.259 253.483 311.19 253.456 311.125C253.429 311.061 253.39 311.003 253.34 310.954L252.595 310.208C252.546 310.159 252.488 310.119 252.423 310.092C252.359 310.065 252.29 310.051 252.22 310.051C252.15 310.051 252.081 310.065 252.017 310.092C251.952 310.119 251.894 310.159 251.845 310.208L246.885 315.17L244.569 312.853C244.521 312.803 244.463 312.764 244.399 312.737C244.335 312.71 244.266 312.696 244.197 312.696C244.127 312.696 244.059 312.71 243.995 312.737C243.931 312.764 243.873 312.803 243.824 312.853L243.074 313.598C242.976 313.698 242.921 313.833 242.921 313.973C242.921 314.113 242.976 314.248 243.074 314.348L246.51 317.786C246.559 317.835 246.618 317.875 246.682 317.902C246.746 317.929 246.816 317.942 246.885 317.942C246.955 317.942 247.024 317.929 247.088 317.902C247.153 317.875 247.211 317.835 247.26 317.786H247.237Z" fill="#3ACC6C"/>
</g>
<defs>
<linearGradient id="paint0_linear" x1="254.175" y1="334.934" x2="254.175" y2="0" gradientUnits="userSpaceOnUse">
<stop stop-color="#808080" stop-opacity="0.25"/>
<stop offset="0.54" stop-color="#808080" stop-opacity="0.12"/>
<stop offset="1" stop-color="#808080" stop-opacity="0.1"/>
</linearGradient>
<linearGradient id="paint1_linear" x1="23600" y1="178578" x2="23600" y2="78495.2" gradientUnits="userSpaceOnUse">
<stop stop-color="#808080" stop-opacity="0.25"/>
<stop offset="0.54" stop-color="#808080" stop-opacity="0.12"/>
<stop offset="1" stop-color="#808080" stop-opacity="0.1"/>
</linearGradient>
<clipPath id="clip0">
<rect width="482" height="372" fill="white"/>
</clipPath>
</defs>
</svg>
