<svg width="127" height="119" viewBox="0 0 127 119" fill="none" xmlns="http://www.w3.org/2000/svg">
<path d="M0.0933533 48.4425V41.4785L63.2547 0L85.4494 14.8122V5.86897L105.409 5.91537V28.1336L125.428 41.502V48.4425H112.768L63.1965 15.0218L12.483 48.4425H0.0933533Z" fill="#DEE1E6"/>
<path d="M0 52.6788L1.74672 65.0808H5.65936L6.51512 59.3756L7.28367 65.0808H11.0745L12.6462 52.4692H9.78162L9.01306 58.9324L8.24451 52.4692H4.75107L3.94786 58.7748L3.17931 52.4692H0V52.6788Z" fill="#DEE1E6"/>
<path d="M19.9707 52.5408H15.9647L13.2516 65.1255H16.361L16.7277 62.8461H19.0334L19.4526 65.1255H22.6839L19.9707 52.5408ZM17.1821 60.5405L17.8898 56.9425L18.6846 60.5405H17.1821Z" fill="#DEE1E6"/>
<path d="M31.371 64.3317C31.371 64.017 31.3448 61.4498 31.3621 60.6723C31.4146 59.3537 30.157 58.6723 30.157 58.6723C30.157 58.6723 31.1704 57.764 31.3621 56.7423C31.5538 55.7205 31.4672 55.1353 31.371 54.7496C30.821 52.4546 28.0408 52.4546 28.0408 52.4546H23.3015V65.0483H26.4109V59.9479L27.5378 59.9568C27.5378 59.9568 28.1755 60.0619 28.1576 60.7516C28.1398 61.4414 28.1576 64.3502 28.1576 64.3502C28.1576 64.3502 28.2532 65.0488 28.5506 65.0488C28.8479 65.0488 31.7997 65.0488 31.7997 65.0488C31.7997 65.0488 31.371 64.6458 31.371 64.3317ZM28.1923 56.8731C28.0615 57.8423 26.4456 57.6768 26.4456 57.6768V54.8821C26.4456 54.8821 28.1224 54.62 28.1923 55.4763C28.2096 55.8424 28.2163 56.5852 28.1923 56.8731Z" fill="#DEE1E6"/>
<path d="M32.5706 52.5876V65.1176H40.1046V62.7186H35.8426V59.7143L39.1963 59.6913V57.4086H35.7963V54.8659L40.1046 54.8654V52.5876H32.5706Z" fill="#DEE1E6"/>
<path d="M40.9894 52.4949V65.1176H44.157V59.7349H46.0435V65.1176H49.3508V52.4949H46.0787V57.3739L44.1481 57.3622L44.1223 52.4949H40.9894Z" fill="#DEE1E6"/>
<path d="M58.7249 55.2662C58.5734 51.8896 51.3071 51.0981 50.5151 55.2662C50.5151 55.9123 50.5268 61.8808 50.5151 62.2531C50.8762 66.0724 58.6081 65.6297 58.7249 62.2531C58.7372 61.8948 58.7288 56.3964 58.7249 55.2662ZM55.4584 62.1307C55.3712 63.1698 53.7642 63.144 53.6418 62.1307C53.6469 61.7288 53.6418 55.4758 53.6418 55.3009C53.7469 54.4714 55.3796 54.3926 55.4584 55.3009C55.4523 56.07 55.4612 61.6153 55.4584 62.1307Z" fill="#DEE1E6"/>
<path d="M59.8428 52.4714C59.8428 52.4714 59.7802 62.3313 59.8428 62.7421C60.3671 65.9913 67.4937 66.0958 67.8431 62.7421C67.8341 62.4453 67.8431 52.4714 67.8431 52.4714H64.7688C64.7688 52.4714 64.7342 61.1704 64.7515 62.2268C64.7163 63.1088 63.1535 63.0563 63.031 62.2357C63.0299 61.1704 63.0221 52.4714 63.0221 52.4714H59.8428Z" fill="#DEE1E6"/>
<path d="M68.7419 61.0306C68.7419 61.0306 68.7066 62.6376 68.7854 62.7946C69.5657 66.212 75.6678 65.8163 76.803 63.1736C76.9517 62.6493 77.1233 61.9132 76.9254 61.134C76.0641 58.0843 72.1391 57.1967 72.0173 55.9218C72.0028 55.5719 71.9815 55.459 72.0173 55.3455C72.2358 54.7256 73.5544 54.6904 73.7551 55.3455C73.8339 55.6686 73.7551 56.4723 73.7551 56.4723H76.803C76.803 56.4723 76.8203 55.7424 76.803 55.2164C76.5235 52.4021 73.4784 52.3026 73.4784 52.3026C73.4784 52.3026 72.489 52.2908 72.0346 52.3026C69.3444 52.4546 68.9431 54.5132 68.7854 54.9811C68.7329 55.2846 68.7508 56.0336 68.7854 56.2152C69.3097 58.8652 73.257 60.2978 73.6416 61.5252C73.7467 61.8349 73.6941 62.2189 73.6416 62.3586C73.2923 63.0484 71.9994 62.8477 71.7551 62.3586C71.6679 62.1664 71.7551 61.0401 71.7551 61.0401L68.7419 61.0306Z" fill="#DEE1E6"/>
<path d="M77.8455 52.3357V64.8657H85.3795V62.4667H81.1176V59.4623L84.4712 59.4394V57.1566H81.0706V54.614L85.3795 54.6134V52.3357H77.8455Z" fill="#DEE1E6"/>
<path d="M86.1833 52.5586V65.069H89.0591V58.3616L91.7141 65.069H94.6955V52.5586H91.6213V57.2923L89.9445 52.5586H86.1833Z" fill="#DEE1E6"/>
<path d="M96.0113 52.3357V64.8657H103.545V62.4667H99.2834V59.4623L102.637 59.4394V57.1572H99.2365V54.6134H103.545V52.3357H96.0113Z" fill="#DEE1E6"/>
<path d="M104.049 61.0306C104.049 61.0306 104.014 62.6376 104.093 62.7946C104.873 66.212 110.975 65.8163 112.11 63.1736C112.259 62.6493 112.43 61.9132 112.233 61.134C111.371 58.0843 107.446 57.1967 107.324 55.9218C107.31 55.5719 107.289 55.459 107.324 55.3455C107.543 54.7256 108.862 54.6904 109.062 55.3455C109.141 55.6686 109.062 56.4723 109.062 56.4723H112.11C112.11 56.4723 112.128 55.7424 112.11 55.2164C111.831 52.4021 108.786 52.3026 108.786 52.3026C108.786 52.3026 107.796 52.2908 107.342 52.3026C104.652 52.4546 104.25 54.5132 104.093 54.9811C104.04 55.2846 104.058 56.0336 104.093 56.2152C104.617 58.8652 108.564 60.2978 108.949 61.5252C109.054 61.8349 109.001 62.2189 108.949 62.3586C108.599 63.0484 107.307 62.8477 107.062 62.3586C106.975 62.1664 107.062 61.0401 107.062 61.0401L104.049 61.0306Z" fill="#DEE1E6"/>
<path d="M116.262 52.5413H113.048V65.083H116.262V52.5413Z" fill="#DEE1E6"/>
<path d="M123.624 52.5408H119.617L116.904 65.1255H120.014L120.38 62.8461H122.686L123.105 65.1255H126.337L123.624 52.5408ZM120.835 60.5405L121.542 56.9425L122.337 60.5405H120.835Z" fill="#DEE1E6"/>
<path d="M85.1465 89.1995H82.0493V91.6214H85.1465V89.1995Z" fill="#DEE1E6"/>
<path d="M89.665 79.1147H86.451V91.6565H89.665V79.1147Z" fill="#DEE1E6"/>
<path d="M99.1437 88.7333C99.1437 87.9647 99.1437 82.7246 99.1437 81.4669C99.1437 80.2093 97.3969 79.0215 95.089 78.9981C93.6933 78.9506 91.1088 79.0914 91.1088 79.0914V91.5979C91.1088 91.5979 93.7291 91.5979 95.4406 91.5979C97.1521 91.5979 99.3186 90.655 99.1437 88.7333ZM95.9649 88.6986C95.9649 88.8384 95.6681 89.1441 95.3361 89.1531C95.0041 89.162 94.2182 89.1531 94.2182 89.1531V81.4323C94.2182 81.4323 95.24 81.4323 95.406 81.4323C95.572 81.4323 95.9739 81.6944 95.9649 81.8515C95.956 82.0086 95.9649 88.5589 95.9649 88.6986Z" fill="#DEE1E6"/>
<path d="M13.6943 69.1235H0.908295V118.319H13.6943V69.1235Z" fill="#DEE1E6"/>
<path d="M125.834 69.1235H113.048V118.319H125.834V69.1235Z" fill="#DEE1E6"/>
<path d="M45.0888 87.1095C45.0888 89.5236 43.7669 91.4816 42.137 91.4816H20.6521C19.0216 91.4816 17.7003 89.5236 17.7003 87.1095V73.8758C17.7003 71.4606 19.0222 69.5037 20.6521 69.5037H42.137C43.7674 69.5037 45.0888 71.4606 45.0888 73.8758V87.1095Z" fill="#DEE1E6"/>
<path d="M45.0888 113.946C45.0888 116.36 43.7669 118.318 42.137 118.318H20.6521C19.0216 118.318 17.7003 116.36 17.7003 113.946V100.713C17.7003 98.2975 19.0222 96.3406 20.6521 96.3406H42.137C43.7674 96.3406 45.0888 98.2975 45.0888 100.713V113.946Z" fill="#DEE1E6"/>
<path d="M77.3172 87.1095C77.3172 89.5236 75.9953 91.4816 74.3654 91.4816H52.8805C51.25 91.4816 49.9287 89.5236 49.9287 87.1095V73.8758C49.9287 71.4606 51.2506 69.5037 52.8805 69.5037H74.3654C75.9953 69.5037 77.3172 71.4606 77.3172 73.8758V87.1095Z" fill="#DEE1E6"/>
<path d="M77.3172 113.946C77.3172 116.36 75.9953 118.318 74.3654 118.318H52.8805C51.25 118.318 49.9287 116.36 49.9287 113.946V100.713C49.9287 98.2975 51.2506 96.3406 52.8805 96.3406H74.3654C75.9953 96.3406 77.3172 98.2975 77.3172 100.713V113.946Z" fill="#DEE1E6"/>
<path d="M109.368 113.946C109.368 116.36 108.047 118.318 106.416 118.318H84.9312C83.3008 118.318 81.9794 116.36 81.9794 113.946V100.713C81.9794 98.2975 83.3008 96.3406 84.9312 96.3406H106.416C108.047 96.3406 109.368 98.2975 109.368 100.713V113.946Z" fill="#DEE1E6"/>
</svg>
