<svg width="25" height="28" viewBox="0 0 25 28" fill="none" xmlns="http://www.w3.org/2000/svg">
<path d="M24.0831 23.8918L20.4878 18.8064C20.3324 18.5907 20.0353 18.5343 19.8117 18.6781C19.588 18.8219 19.516 19.1155 19.6478 19.3464L19.6587 19.3616L22.6331 23.4818L20.0831 23.0718L18.8231 21.0718C18.7315 20.9112 18.5587 20.8142 18.3738 20.8198C18.1889 20.8254 18.0222 20.9325 17.9404 21.0984C17.8586 21.2643 17.875 21.4618 17.9831 21.6118L19.2431 23.6118L18.5831 26.0918L15.9931 22.0918C16.6069 21.7861 17.1103 21.2968 17.4331 20.6918C17.7752 20.0681 18.3824 19.6339 19.0831 19.5118C19.2826 19.4786 19.4749 19.4279 19.6587 19.3616C21.0889 18.845 22.0021 17.3792 21.7731 15.8218C21.6685 15.1231 21.8981 14.4158 22.3931 13.9118C23.6225 12.6404 23.6225 10.6232 22.3931 9.35182C21.8967 8.84864 21.6669 8.14065 21.7731 7.44182C22.026 5.68574 20.8324 4.0484 19.0831 3.75182C18.3899 3.62964 17.792 3.19413 17.4631 2.57182C16.6367 0.980346 14.6828 0.351332 13.0831 1.16182C12.4524 1.47133 11.7139 1.47133 11.0831 1.16182C9.49342 0.377902 7.56857 1.00326 6.74314 2.57182C6.40599 3.20417 5.79116 3.64122 5.08314 3.75182C3.35011 4.06729 2.17841 5.69883 2.43314 7.44182C2.52961 8.13076 2.30052 8.82543 1.81314 9.32182C0.583758 10.5932 0.583758 12.6104 1.81314 13.8818C2.30821 14.3858 2.5378 15.0931 2.43314 15.7918C2.27464 16.8547 2.64847 17.9276 3.43314 18.6618L0.0831373 23.8918C-0.0277124 24.0548 -0.0277124 24.2689 0.0831373 24.4318C0.189677 24.5999 0.387262 24.6868 0.583137 24.6518L4.00314 24.0918L4.89314 27.4418C4.94601 27.6307 5.10069 27.7738 5.29314 27.8118H5.37314C5.54411 27.8154 5.70411 27.7278 5.79314 27.5818L9.49686 22.3681C9.64748 22.1387 9.585 21.8307 9.35686 21.6781C9.2462 21.6039 9.11012 21.578 8.97995 21.6063C8.84977 21.6346 8.73673 21.7147 8.66686 21.8281L8.39483 22.2054L5.59314 26.0918L4.93314 23.6118L6.19314 21.6118C6.32487 21.3809 6.25285 21.0873 6.02921 20.9435C5.80557 20.7997 5.50854 20.8561 5.35314 21.0718L4.08314 23.0718L1.54314 23.4818L4.28314 19.2418C4.54631 19.369 4.82553 19.4598 5.11314 19.5118C5.80278 19.6423 6.39743 20.0754 6.73314 20.6918C7.10447 21.405 7.70319 21.9241 8.39483 22.2054C9.23421 22.5469 10.2104 22.5384 11.0831 22.1018C11.7139 21.7923 12.4524 21.7923 13.0831 22.1018C13.6754 22.3909 14.3408 22.4954 14.9931 22.4018L18.3531 27.5818C18.4422 27.7278 18.6022 27.8154 18.7731 27.8118H18.8531C19.0456 27.7738 19.2003 27.6307 19.2531 27.4418L20.1431 24.0918L23.5631 24.6518C23.7593 24.6897 23.9585 24.6021 24.0631 24.4318C24.1801 24.273 24.188 24.0588 24.0831 23.8918ZM13.5231 21.2018C12.6134 20.7623 11.5528 20.7623 10.6431 21.2018C9.53761 21.7401 8.20459 21.2958 7.64314 20.2018C7.17187 19.3065 6.31052 18.6818 5.31314 18.5118C4.09703 18.3024 3.26827 17.1634 3.44314 15.9418C3.59277 14.9394 3.26324 13.9249 2.55314 13.2018C1.69316 12.3201 1.69316 10.9135 2.55314 10.0318C3.24299 9.30947 3.56361 8.31073 3.42314 7.32182C3.23674 6.09532 4.06952 4.94634 5.29314 4.74182C6.29004 4.56394 7.14949 3.93687 7.62314 3.04182C8.19553 1.96071 9.51656 1.52037 10.6231 2.04182C11.5304 2.49194 12.5959 2.49194 13.5031 2.04182C14.6094 1.51485 15.9343 1.95649 16.5031 3.04182C16.9768 3.93687 17.8362 4.56394 18.8331 4.74182C20.073 4.92691 20.9281 6.08196 20.7431 7.32182C20.595 8.3271 20.9241 9.34396 21.6331 10.0718C22.4931 10.9535 22.4931 12.3601 21.6331 13.2418C20.923 13.9649 20.5935 14.9794 20.7431 15.9818C20.918 17.2034 20.0892 18.3424 18.8731 18.5518C17.8758 18.7218 17.0144 19.3465 16.5431 20.2418C15.967 21.3322 14.6231 21.7594 13.5231 21.2018Z" fill="#CCB57C"/>
<path d="M13.5231 21.2018C12.6134 20.7623 11.5528 20.7623 10.6431 21.2018C9.53761 21.7401 8.20459 21.2958 7.64314 20.2018C7.17187 19.3065 6.31052 18.6818 5.31314 18.5118C4.09703 18.3024 3.26827 17.1634 3.44314 15.9418C3.59277 14.9394 3.26324 13.9249 2.55314 13.2018C1.69316 12.3201 1.69316 10.9135 2.55314 10.0318C3.24299 9.30947 3.56361 8.31073 3.42314 7.32182C3.23674 6.09532 4.06952 4.94634 5.29314 4.74182C6.29004 4.56394 7.14949 3.93687 7.62314 3.04182C8.19553 1.96071 9.51656 1.52037 10.6231 2.04182C11.5304 2.49194 12.5959 2.49194 13.5031 2.04182C14.6094 1.51485 15.9343 1.95649 16.5031 3.04182C16.9768 3.93687 17.8362 4.56394 18.8331 4.74182C20.073 4.92691 20.9281 6.08196 20.7431 7.32182C20.595 8.3271 20.9241 9.34396 21.6331 10.0718C22.4931 10.9535 22.4931 12.3601 21.6331 13.2418C20.923 13.9649 20.5935 14.9794 20.7431 15.9818C20.918 17.2034 20.0892 18.3424 18.8731 18.5518C17.8758 18.7218 17.0144 19.3465 16.5431 20.2418C15.967 21.3322 14.6231 21.7594 13.5231 21.2018Z" fill="#CCB57C"/>
<path d="M5.59314 26.0918L8.39483 22.2054C7.70319 21.9241 7.10447 21.405 6.73314 20.6918C6.39743 20.0754 5.80278 19.6423 5.11314 19.5118C4.82553 19.4598 4.54631 19.369 4.28314 19.2418L1.54314 23.4818L4.08314 23.0718L5.35314 21.0718C5.50854 20.8561 5.80557 20.7997 6.02921 20.9435C6.25285 21.0873 6.32487 21.3809 6.19314 21.6118L4.93314 23.6118L5.59314 26.0918Z" fill="#CCB57C"/>
<path d="M22.6331 23.4818L19.6587 19.3616C19.4749 19.4279 19.2826 19.4786 19.0831 19.5118C18.3824 19.6339 17.7752 20.0681 17.4331 20.6918C17.1103 21.2968 16.6069 21.7861 15.9931 22.0918L18.5831 26.0918L19.2431 23.6118L17.9831 21.6118C17.875 21.4618 17.8586 21.2643 17.9404 21.0984C18.0222 20.9325 18.1889 20.8254 18.3738 20.8198C18.5587 20.8142 18.7315 20.9112 18.8231 21.0718L20.0831 23.0718L22.6331 23.4818Z" fill="#CCB57C"/>
<path d="M19.76 11.6881C19.76 7.3361 16.232 3.80811 11.88 3.80811C7.528 3.80811 4 7.3361 4 11.6881C4 16.0401 7.528 19.5681 11.88 19.5681C16.2297 19.5626 19.7545 16.0378 19.76 11.6881ZM11.88 18.5681C8.08028 18.5681 5 15.4878 5 11.6881C5 7.88839 8.08028 4.80811 11.88 4.80811C15.6797 4.80811 18.76 7.88839 18.76 11.6881C18.7545 15.4855 15.6774 18.5626 11.88 18.5681Z" fill="#1A2F45"/>
<path d="M15.6029 10.5119L13.4001 10.18L12.42 8.06138C12.3332 7.90462 12.1732 7.80811 12 7.80811C11.8268 7.80811 11.6668 7.90462 11.58 8.06138L10.5999 10.1507L8.39711 10.5119C8.22071 10.5353 8.07421 10.6655 8.02376 10.8439C7.96831 11.0187 8.01163 11.2112 8.13576 11.3418L9.73186 12.9625L9.35851 15.2568C9.32083 15.4413 9.39488 15.631 9.54518 15.7352C9.69363 15.8324 9.8821 15.8324 10.0305 15.7352L12 14.6613L13.9695 15.745C14.0372 15.7762 14.1102 15.7928 14.1841 15.7938C14.2809 15.7946 14.3755 15.7638 14.4548 15.7059C14.6051 15.6017 14.6792 15.412 14.6415 15.2275L14.2681 12.9332L15.8642 11.3125C15.9884 11.1819 16.0317 10.9894 15.9762 10.8146C15.9169 10.6477 15.7722 10.5304 15.6029 10.5119ZM13.4374 12.4646C13.3308 12.5777 13.2823 12.7373 13.3067 12.8941L13.5681 14.4172L12.2147 13.6752C12.0813 13.5969 11.9187 13.5969 11.7853 13.6752L10.4319 14.4172L10.6933 12.8453C10.7177 12.6885 10.6692 12.5289 10.5626 12.4157L9.47051 11.3027L10.9733 11.0782C11.1265 11.0517 11.2584 10.9501 11.328 10.8048L12 9.37941L12.672 10.8048C12.7416 10.9501 12.8735 11.0517 13.0267 11.0782L14.5295 11.3027L13.4374 12.4646Z" fill="#1A2F45"/>
</svg>
