<svg width="24" height="24" viewBox="0 0 24 24" fill="none" xmlns="http://www.w3.org/2000/svg">
<circle cx="12" cy="12" r="12" fill="url(#paint0_linear)"/>
<path d="M9.19884 16.2C8.42906 16.2 7.80623 16.83 7.80623 17.6C7.80623 18.37 8.42906 19 9.19884 19C9.96863 19 10.5985 18.37 10.5985 17.6C10.5985 16.83 9.96863 16.2 9.19884 16.2ZM5 5.7C5 6.085 5.31491 6.4 5.69981 6.4H6.39961L8.91892 11.713L7.97418 13.421C7.46332 14.359 8.13514 15.5 9.19884 15.5H16.8967C17.2816 15.5 17.5965 15.185 17.5965 14.8C17.5965 14.415 17.2816 14.1 16.8967 14.1H9.19884L9.96863 12.7H15.1822C15.7071 12.7 16.1689 12.413 16.4069 11.979L18.9122 7.436C18.9711 7.3299 19.0014 7.21023 18.9999 7.08884C18.9985 6.96745 18.9654 6.84854 18.9039 6.74388C18.8424 6.63923 18.7546 6.55245 18.6493 6.49213C18.544 6.43182 18.4247 6.40006 18.3033 6.4H7.94619L7.47732 5.399C7.42108 5.27952 7.33197 5.17853 7.22042 5.10787C7.10888 5.0372 6.97952 4.99979 6.84749 5H5.69981C5.31491 5 5 5.315 5 5.7ZM16.1969 16.2C15.4271 16.2 14.8043 16.83 14.8043 17.6C14.8043 18.37 15.4271 19 16.1969 19C16.9667 19 17.5965 18.37 17.5965 17.6C17.5965 16.83 16.9667 16.2 16.1969 16.2Z" fill="#CCB57C"/>
<defs>
<linearGradient id="paint0_linear" x1="0" y1="0" x2="13.4968" y2="28.9044" gradientUnits="userSpaceOnUse">
<stop stop-color="#1A2F45"/>
<stop offset="1" stop-color="#3A6073"/>
</linearGradient>
</defs>
</svg>
