<svg width="25" height="28" viewBox="0 0 25 28" fill="none" xmlns="http://www.w3.org/2000/svg">
<path d="M24.0831 23.8879L20.4878 18.8025C20.3324 18.5868 20.0353 18.5304 19.8117 18.6742C19.588 18.818 19.516 19.1116 19.6478 19.3425L19.6587 19.3576L22.6331 23.4779L20.0831 23.0679L18.8231 21.0679C18.7315 20.9073 18.5587 20.8103 18.3738 20.8159C18.1889 20.8215 18.0222 20.9286 17.9404 21.0945C17.8586 21.2604 17.875 21.4578 17.9831 21.6079L19.2431 23.6079L18.5831 26.0879L15.9931 22.0879C16.6069 21.7822 17.1103 21.2929 17.4331 20.6879C17.7752 20.0642 18.3824 19.63 19.0831 19.5079C19.2826 19.4747 19.4749 19.424 19.6587 19.3576C21.0889 18.8411 22.0021 17.3753 21.7731 15.8179C21.6685 15.1192 21.8981 14.4119 22.3931 13.9079C23.6225 12.6365 23.6225 10.6193 22.3931 9.34791C21.8967 8.84474 21.6669 8.13674 21.7731 7.43791C22.026 5.68184 20.8324 4.04449 19.0831 3.74791C18.3899 3.62573 17.792 3.19022 17.4631 2.56791C16.6367 0.97644 14.6828 0.347426 13.0831 1.15791C12.4524 1.46743 11.7139 1.46743 11.0831 1.15791C9.49342 0.373996 7.56857 0.999351 6.74314 2.56791C6.40599 3.20026 5.79116 3.63731 5.08314 3.74791C3.35011 4.06339 2.17841 5.69493 2.43314 7.43791C2.52961 8.12686 2.30052 8.82152 1.81314 9.31791C0.583758 10.5893 0.583758 12.6065 1.81314 13.8779C2.30821 14.3819 2.5378 15.0892 2.43314 15.7879C2.27464 16.8508 2.64847 17.9237 3.43314 18.6579L0.0831373 23.8879C-0.0277124 24.0508 -0.0277124 24.265 0.0831373 24.4279C0.189677 24.596 0.387262 24.6829 0.583137 24.6479L4.00314 24.0879L4.89314 27.4379C4.94601 27.6268 5.10069 27.7699 5.29314 27.8079H5.37314C5.54411 27.8115 5.70411 27.7239 5.79314 27.5779L9.49686 22.3642C9.64748 22.1348 9.585 21.8268 9.35686 21.6742C9.2462 21.6 9.11012 21.5741 8.97995 21.6024C8.84977 21.6307 8.73673 21.7108 8.66686 21.8242L8.39483 22.2015L5.59314 26.0879L4.93314 23.6079L6.19314 21.6079C6.32487 21.377 6.25285 21.0833 6.02921 20.9396C5.80557 20.7958 5.50854 20.8522 5.35314 21.0679L4.08314 23.0679L1.54314 23.4779L4.28314 19.2379C4.54631 19.3651 4.82553 19.4559 5.11314 19.5079C5.80278 19.6384 6.39743 20.0715 6.73314 20.6879C7.10447 21.4011 7.70319 21.9202 8.39483 22.2015C9.23421 22.543 10.2104 22.5345 11.0831 22.0979C11.7139 21.7884 12.4524 21.7884 13.0831 22.0979C13.6754 22.387 14.3408 22.4915 14.9931 22.3979L18.3531 27.5779C18.4422 27.7239 18.6022 27.8115 18.7731 27.8079H18.8531C19.0456 27.7699 19.2003 27.6268 19.2531 27.4379L20.1431 24.0879L23.5631 24.6479C23.7593 24.6858 23.9585 24.5982 24.0631 24.4279C24.1801 24.2691 24.188 24.0549 24.0831 23.8879ZM13.5231 21.1979C12.6134 20.7584 11.5528 20.7584 10.6431 21.1979C9.53761 21.7362 8.20459 21.2919 7.64314 20.1979C7.17187 19.3026 6.31052 18.6779 5.31314 18.5079C4.09703 18.2985 3.26827 17.1595 3.44314 15.9379C3.59277 14.9355 3.26324 13.921 2.55314 13.1979C1.69316 12.3162 1.69316 10.9096 2.55314 10.0279C3.24299 9.30556 3.56361 8.30683 3.42314 7.31791C3.23674 6.09141 4.06952 4.94244 5.29314 4.73791C6.29004 4.56003 7.14949 3.93297 7.62314 3.03791C8.19553 1.95681 9.51656 1.51646 10.6231 2.03791C11.5304 2.48803 12.5959 2.48803 13.5031 2.03791C14.6094 1.51094 15.9343 1.95259 16.5031 3.03791C16.9768 3.93297 17.8362 4.56003 18.8331 4.73791C20.073 4.923 20.9281 6.07806 20.7431 7.31791C20.595 8.32319 20.9241 9.34005 21.6331 10.0679C22.4931 10.9496 22.4931 12.3562 21.6331 13.2379C20.923 13.961 20.5935 14.9755 20.7431 15.9779C20.918 17.1995 20.0892 18.3385 18.8731 18.5479C17.8758 18.7179 17.0144 19.3426 16.5431 20.2379C15.967 21.3283 14.6231 21.7555 13.5231 21.1979Z" fill="#CCB57C"/>
<path d="M13.5231 21.1979C12.6134 20.7584 11.5528 20.7584 10.6431 21.1979C9.53761 21.7362 8.20459 21.2919 7.64314 20.1979C7.17187 19.3026 6.31052 18.6779 5.31314 18.5079C4.09703 18.2985 3.26827 17.1595 3.44314 15.9379C3.59277 14.9355 3.26324 13.921 2.55314 13.1979C1.69316 12.3162 1.69316 10.9096 2.55314 10.0279C3.24299 9.30556 3.56361 8.30683 3.42314 7.31791C3.23674 6.09141 4.06952 4.94244 5.29314 4.73791C6.29004 4.56003 7.14949 3.93297 7.62314 3.03791C8.19553 1.95681 9.51656 1.51646 10.6231 2.03791C11.5304 2.48803 12.5959 2.48803 13.5031 2.03791C14.6094 1.51094 15.9343 1.95259 16.5031 3.03791C16.9768 3.93297 17.8362 4.56003 18.8331 4.73791C20.073 4.923 20.9281 6.07806 20.7431 7.31791C20.595 8.32319 20.9241 9.34005 21.6331 10.0679C22.4931 10.9496 22.4931 12.3562 21.6331 13.2379C20.923 13.961 20.5935 14.9755 20.7431 15.9779C20.918 17.1995 20.0892 18.3385 18.8731 18.5479C17.8758 18.7179 17.0144 19.3426 16.5431 20.2379C15.967 21.3283 14.6231 21.7555 13.5231 21.1979Z" fill="#CCB57C"/>
<path d="M5.59314 26.0879L8.39483 22.2015C7.70319 21.9202 7.10447 21.4011 6.73314 20.6879C6.39743 20.0715 5.80278 19.6384 5.11314 19.5079C4.82553 19.4559 4.54631 19.3651 4.28314 19.2379L1.54314 23.4779L4.08314 23.0679L5.35314 21.0679C5.50854 20.8522 5.80557 20.7958 6.02921 20.9396C6.25285 21.0833 6.32487 21.377 6.19314 21.6079L4.93314 23.6079L5.59314 26.0879Z" fill="#CCB57C"/>
<path d="M22.6331 23.4779L19.6587 19.3576C19.4749 19.424 19.2826 19.4747 19.0831 19.5079C18.3824 19.63 17.7752 20.0642 17.4331 20.6879C17.1103 21.2929 16.6069 21.7822 15.9931 22.0879L18.5831 26.0879L19.2431 23.6079L17.9831 21.6079C17.875 21.4578 17.8586 21.2604 17.9404 21.0945C18.0222 20.9286 18.1889 20.8215 18.3738 20.8159C18.5587 20.8103 18.7315 20.9073 18.8231 21.0679L20.0831 23.0679L22.6331 23.4779Z" fill="#CCB57C"/>
<path d="M19.76 11.6842C19.76 7.3322 16.232 3.8042 11.88 3.8042C7.528 3.8042 4 7.3322 4 11.6842C4 16.0362 7.528 19.5642 11.88 19.5642C16.2297 19.5587 19.7545 16.0339 19.76 11.6842ZM11.88 18.5642C8.08028 18.5642 5 15.4839 5 11.6842C5 7.88448 8.08028 4.8042 11.88 4.8042C15.6797 4.8042 18.76 7.88448 18.76 11.6842C18.7545 15.4816 15.6774 18.5587 11.88 18.5642Z" fill="#1A2F45"/>
<path d="M15.6924 7.91501C15.618 7.86585 15.5349 7.83209 15.4478 7.81566C15.3606 7.79924 15.2712 7.80047 15.1845 7.81929C15.0978 7.83811 15.0156 7.87415 14.9426 7.92534C14.8696 7.97653 14.8072 8.04188 14.759 8.11766L10.9773 14.0574L9.13299 12.3198C9.06792 12.2585 8.99164 12.2109 8.9085 12.1796C8.82536 12.1483 8.73699 12.1341 8.64844 12.1376C8.46959 12.1447 8.30086 12.224 8.17935 12.3579C8.05784 12.4918 7.99351 12.6694 8.00052 12.8516C8.00752 13.0339 8.08528 13.2058 8.21669 13.3296L10.6383 15.611C10.6383 15.611 10.7078 15.672 10.7399 15.6933C10.8143 15.7425 10.8974 15.7763 10.9846 15.7927C11.0718 15.8092 11.1613 15.8079 11.248 15.7891C11.3347 15.7703 11.4169 15.7342 11.4899 15.683C11.5629 15.6318 11.6253 15.5664 11.6736 15.4906L15.8913 8.86612C15.9395 8.79037 15.9726 8.70567 15.9887 8.61687C16.0049 8.52807 16.0037 8.43691 15.9852 8.34858C15.9667 8.26026 15.9314 8.17651 15.8811 8.10211C15.8309 8.02772 15.7667 7.96414 15.6924 7.91501Z" fill="#1A2F45"/>
</svg>
