<svg width="24" height="35" viewBox="0 0 24 35" fill="none" xmlns="http://www.w3.org/2000/svg">
<path d="M22.6748 7.27914L14.0245 0.690184C12.8466 -0.230061 11.1902 -0.230061 9.97546 0.690184L1.32515 7.27914C0.478528 7.90491 0 8.89877 0 9.92945V31.6472C0 33.4877 1.5092 34.9969 3.34969 34.9969H20.6503C22.4908 34.9969 24 33.4877 24 31.6472V9.92945C24 8.86196 23.5215 7.90491 22.6748 7.27914ZM12 5.54908C13.4356 5.54908 14.5767 6.72699 14.5767 8.12577C14.5767 9.52454 13.3988 10.7025 12 10.7025C10.6012 10.7025 9.42331 9.52454 9.42331 8.12577C9.42331 6.72699 10.5644 5.54908 12 5.54908ZM8.02454 16.3344C9.16564 16.3344 10.1227 17.2546 10.1227 18.4325C10.1227 19.6104 9.20245 20.5307 8.02454 20.5307C6.84663 20.5307 5.92638 19.6104 5.92638 18.4325C5.92638 17.2546 6.84663 16.3344 8.02454 16.3344ZM7.73006 27.9663C7.39877 27.9663 7.06749 27.8558 6.80982 27.5982C6.29448 27.0828 6.29448 26.273 6.80982 25.7945L15.3865 17.2178C15.9018 16.7025 16.7117 16.7025 17.1902 17.2178C17.7055 17.7331 17.7055 18.5429 17.1902 19.0215L8.6135 27.5613C8.35583 27.819 8.06135 27.9663 7.73006 27.9663ZM15.9755 28.4816C14.8344 28.4816 13.8773 27.5613 13.8773 26.3834C13.8773 25.2423 14.7975 24.2853 15.9755 24.2853C17.1534 24.2853 18.0736 25.2055 18.0736 26.3834C18.0736 27.5245 17.1534 28.4816 15.9755 28.4816Z" fill="#CCB57C"/>
</svg>
