<svg width="100" height="92" viewBox="0 0 100 92" fill="none" xmlns="http://www.w3.org/2000/svg">
<path d="M36.8063 0.212069C36.5701 0.222985 36.3358 0.275591 36.1181 0.367185L1.07783 16.2449C-0.0485582 16.7531 -0.316496 18.3784 0.389545 19.346L11.277 31.9675L0.389545 44.558C-0.265657 45.4701 -0.0485582 47.1508 1.07783 47.6591L11.934 52.5898V73.6288C11.9401 74.3862 12.4246 75.1197 13.1229 75.4274L49.133 91.3051C49.6433 91.53 50.2496 91.53 50.7599 91.3051L86.8325 75.4274C87.5308 75.1197 88.0156 74.3862 88.0214 73.6288V52.5898L98.8776 47.6591C100.004 47.1508 100.373 45.4879 99.5659 44.558L88.6784 31.9675L99.5659 19.346C100.373 18.416 100.004 16.7531 98.8776 16.2449L63.8374 0.367185C63.5243 0.232026 63.176 0.178031 62.8362 0.212069C62.341 0.247794 61.8623 0.473753 61.5222 0.832291L49.9777 13.1438L38.4332 0.832291C38.022 0.397739 37.4054 0.16265 36.8063 0.212069ZM36.4935 4.5847L46.5988 15.3766L14.4995 29.5486L5.17629 18.7878L36.4935 4.5847ZM63.4619 4.5847L94.7791 18.7878L85.4559 29.5486L53.3566 15.3766L63.4619 4.5847ZM49.9777 18.2605L81.0759 31.9675L49.9777 45.6434L18.8795 31.9675L49.9777 18.2605ZM14.4995 34.3554L46.5988 48.5274L36.4935 59.3193L5.17629 45.1162L14.4995 34.3554ZM85.4559 34.3554L94.7791 45.1162L63.4619 59.3193L53.3566 48.5274L85.4559 34.3554ZM47.9754 52.9V86.4364L15.9386 72.3263V54.3885L36.1181 63.5368C36.8832 63.8854 37.8653 63.6881 38.4332 63.0716L47.9754 52.9ZM51.98 52.9L61.5222 63.0716C62.0901 63.6881 63.0722 63.8854 63.8374 63.5368L84.0168 54.3885V72.3263L51.98 86.4053V52.9Z" fill="#A6A6A6"/>
</svg>
