<svg width="100" height="90" viewBox="0 0 100 90" fill="none" xmlns="http://www.w3.org/2000/svg">
<path d="M72.0917 0.193359C70.2284 0.193359 68.369 0.375371 66.5673 0.735369C64.0272 1.24456 61.5761 2.10227 59.2822 3.28314L57.6846 4.10783L63.1436 17.861L48.0841 37.3408V29.4478L41.0012 25.0124L45.3127 6.21426L44.2443 5.44574C39.4698 2.00945 33.8213 0.193359 27.9094 0.193359C12.5196 0.193359 0 12.603 0 27.8564C0 37.6641 4.77343 63.2479 48.9892 88.9305L50 89.519L51.0107 88.9305C95.2266 63.2479 100 37.6641 100 27.8564C100 12.603 87.4804 0.193359 72.0917 0.193359ZM50 84.9192C21.1709 67.9156 3.99993 46.6393 3.99993 27.8564C3.99993 14.7886 14.7255 4.15816 27.9092 4.15816C32.5341 4.15816 36.9697 5.4552 40.8183 7.92364L36.4737 26.8672L44.084 31.6315V49.034L67.6944 18.4961L62.751 6.04191C64.2313 5.41473 65.7745 4.94037 67.3584 4.62286C68.9004 4.31501 70.4933 4.15816 72.0919 4.15816C85.2745 4.15816 96.0001 14.7886 96.0001 27.8564C95.9999 46.6393 78.8291 67.9156 50 84.9192Z" fill="#A6A6A6"/>
</svg>
