<svg width="16" height="20" viewBox="0 0 16 20" fill="none" xmlns="http://www.w3.org/2000/svg">
<path d="M15.9513 16.617L13.5699 13.1473C13.467 13.0001 13.2702 12.9617 13.1221 13.0598C12.974 13.1578 12.9263 13.3582 13.0135 13.5158L13.0208 13.5261L14.9909 16.3373L13.3019 16.0576L12.4674 14.693C12.4067 14.5834 12.2922 14.5172 12.1697 14.521C12.0473 14.5248 11.9369 14.5979 11.8827 14.7111C11.8285 14.8243 11.8394 14.959 11.911 15.0614L12.7456 16.426L12.3084 18.1181L10.5929 15.3889C10.9995 15.1803 11.3329 14.8465 11.5467 14.4337C11.7733 14.0082 12.1754 13.7119 12.6396 13.6286C12.7717 13.6059 12.8991 13.5714 13.0208 13.5261C13.9681 13.1736 14.573 12.1735 14.4213 11.1109C14.352 10.6342 14.504 10.1516 14.8319 9.80776C15.6462 8.94028 15.6462 7.56398 14.8319 6.6965C14.5031 6.35319 14.3509 5.87013 14.4213 5.39332C14.5887 4.19517 13.7982 3.07802 12.6396 2.87566C12.1804 2.7923 11.7844 2.49516 11.5666 2.07056C11.0192 0.984706 9.72503 0.555534 8.66552 1.10853C8.24776 1.3197 7.75861 1.3197 7.34084 1.10853C6.2879 0.573663 5.01299 1.00034 4.46627 2.07056C4.24296 2.50201 3.83574 2.8002 3.36678 2.87566C2.21892 3.09091 1.44285 4.2041 1.61157 5.39332C1.67547 5.86339 1.52373 6.33735 1.20092 6.67604C0.386648 7.54352 0.386648 8.91981 1.20092 9.78729C1.52883 10.1312 1.68089 10.6138 1.61157 11.0905C1.50659 11.8157 1.7542 12.5477 2.27391 13.0487L0.0550654 16.617C-0.0183551 16.7282 -0.0183551 16.8743 0.0550654 16.9855C0.125631 17.1001 0.2565 17.1595 0.386237 17.1356L2.65145 16.7535L3.24093 19.0392C3.27595 19.1681 3.3784 19.2657 3.50587 19.2916H3.55886C3.6721 19.2941 3.77807 19.2343 3.83704 19.1347L6.29018 15.5774C6.38994 15.4209 6.34855 15.2107 6.19745 15.1066C6.12416 15.056 6.03402 15.0383 5.9478 15.0577C5.86158 15.077 5.78671 15.1316 5.74043 15.209L5.56025 15.4664L3.70457 18.1181L3.26743 16.426L4.10198 15.0614C4.18923 14.9039 4.14153 14.7035 3.9934 14.6054C3.84528 14.5073 3.64854 14.5458 3.54561 14.693L2.70444 16.0576L1.02209 16.3373L2.83691 13.4444C3.01122 13.5311 3.19615 13.5931 3.38665 13.6286C3.84343 13.7176 4.23729 14.0132 4.45965 14.4337C4.70559 14.9203 5.10215 15.2745 5.56025 15.4664C6.11621 15.6994 6.76281 15.6936 7.34084 15.3957C7.75861 15.1846 8.24776 15.1846 8.66552 15.3957C9.0578 15.5929 9.49852 15.6643 9.9306 15.6004L12.1561 19.1347C12.215 19.2343 12.321 19.2941 12.4343 19.2916H12.4872C12.6147 19.2657 12.7172 19.1681 12.7522 19.0392L13.3417 16.7535L15.6069 17.1356C15.7368 17.1614 15.8688 17.1017 15.938 16.9855C16.0155 16.8771 16.0208 16.731 15.9513 16.617ZM8.95695 14.7817C8.35443 14.4818 7.65193 14.4818 7.04941 14.7817C6.31717 15.1489 5.43425 14.8458 5.06238 14.0994C4.75024 13.4885 4.17973 13.0623 3.51912 12.9463C2.71364 12.8034 2.16472 12.0263 2.28054 11.1928C2.37965 10.5089 2.16139 9.81671 1.69105 9.32333C1.12145 8.72176 1.12145 7.76203 1.69105 7.16046C2.14797 6.66761 2.36033 5.98618 2.26729 5.31145C2.14383 4.47461 2.69542 3.69068 3.50587 3.55113C4.16616 3.42976 4.73541 3.00192 5.04913 2.39124C5.42825 1.6536 6.30322 1.35316 7.03616 1.70894C7.63706 2.01605 8.3428 2.01605 8.94371 1.70894C9.67642 1.34939 10.554 1.65072 10.9307 2.39124C11.2445 3.00192 11.8137 3.42976 12.474 3.55113C13.2952 3.67742 13.8616 4.4655 13.7391 5.31145C13.641 5.99734 13.8589 6.69114 14.3286 7.18776C14.8982 7.78933 14.8982 8.74905 14.3286 9.35062C13.8582 9.84401 13.64 10.5362 13.7391 11.2201C13.8549 12.0536 13.306 12.8307 12.5005 12.9736C11.8399 13.0896 11.2694 13.5158 10.9572 14.1267C10.5756 14.8706 9.68552 15.1621 8.95695 14.7817Z" fill="#A6A6A6"/>
<path d="M8.95695 14.7817C8.35443 14.4818 7.65193 14.4818 7.04941 14.7817C6.31717 15.1489 5.43425 14.8458 5.06238 14.0994C4.75024 13.4885 4.17973 13.0623 3.51912 12.9463C2.71364 12.8034 2.16472 12.0263 2.28054 11.1928C2.37965 10.5089 2.16139 9.81671 1.69105 9.32333C1.12145 8.72176 1.12145 7.76203 1.69105 7.16046C2.14797 6.66761 2.36033 5.98618 2.26729 5.31145C2.14383 4.47461 2.69542 3.69068 3.50587 3.55113C4.16616 3.42976 4.73541 3.00192 5.04913 2.39124C5.42825 1.6536 6.30322 1.35316 7.03616 1.70894C7.63706 2.01605 8.3428 2.01605 8.94371 1.70894C9.67642 1.34939 10.554 1.65072 10.9307 2.39124C11.2445 3.00192 11.8137 3.42976 12.474 3.55113C13.2952 3.67742 13.8616 4.4655 13.7391 5.31145C13.641 5.99734 13.8589 6.69114 14.3286 7.18776C14.8982 7.78933 14.8982 8.74905 14.3286 9.35062C13.8582 9.84401 13.64 10.5362 13.7391 11.2201C13.8549 12.0536 13.306 12.8307 12.5005 12.9736C11.8399 13.0896 11.2694 13.5158 10.9572 14.1267C10.5756 14.8706 9.68552 15.1621 8.95695 14.7817Z" fill="#A6A6A6"/>
<path d="M3.70457 18.1181L5.56025 15.4664C5.10215 15.2745 4.70559 14.9203 4.45965 14.4337C4.23729 14.0132 3.84343 13.7176 3.38665 13.6286C3.19615 13.5931 3.01122 13.5311 2.83691 13.4444L1.02209 16.3373L2.70444 16.0576L3.54561 14.693C3.64854 14.5458 3.84528 14.5073 3.9934 14.6054C4.14153 14.7035 4.18923 14.9039 4.10198 15.0614L3.26743 16.426L3.70457 18.1181Z" fill="#A6A6A6"/>
<path d="M14.9909 16.3373L13.0208 13.5261C12.8991 13.5714 12.7717 13.6059 12.6396 13.6286C12.1754 13.7119 11.7733 14.0082 11.5467 14.4337C11.3329 14.8465 10.9995 15.1803 10.5929 15.3889L12.3084 18.1181L12.7456 16.426L11.911 15.0614C11.8394 14.959 11.8285 14.8243 11.8827 14.7111C11.9369 14.5979 12.0473 14.5248 12.1697 14.521C12.2922 14.5172 12.4067 14.5834 12.4674 14.693L13.3019 16.0576L14.9909 16.3373Z" fill="#A6A6A6"/>
<path d="M13.0879 8.29053C13.0879 5.32119 10.7512 2.91406 7.86868 2.91406C4.98616 2.91406 2.64941 5.32119 2.64941 8.29053C2.64941 11.2599 4.98616 13.667 7.86868 13.667C10.7497 13.6632 13.0843 11.2583 13.0879 8.29053ZM7.86868 12.9847C5.35196 12.9847 3.31176 10.8831 3.31176 8.29053C3.31176 5.69801 5.35196 3.59636 7.86868 3.59636C10.3854 3.59636 12.4256 5.69801 12.4256 8.29053C12.4219 10.8815 10.3839 12.9809 7.86868 12.9847Z" fill="#1A2F45"/>
<path d="M10.3938 5.71867C10.3446 5.68513 10.2895 5.66209 10.2318 5.65089C10.1741 5.63968 10.1148 5.64052 10.0574 5.65336C10 5.6662 9.94557 5.69079 9.89722 5.72572C9.84886 5.76065 9.80753 5.80524 9.7756 5.85694L7.27081 9.90961L6.04926 8.72404C6.00616 8.68221 5.95563 8.6497 5.90057 8.62837C5.8455 8.60704 5.78697 8.5973 5.72831 8.59971C5.60986 8.60458 5.4981 8.65864 5.41762 8.75C5.33714 8.84137 5.29453 8.96255 5.29917 9.08689C5.30381 9.21123 5.35531 9.32854 5.44235 9.41302L7.04625 10.9696C7.04625 10.9696 7.0923 11.0112 7.11361 11.0257C7.16285 11.0593 7.21791 11.0824 7.27565 11.0936C7.33339 11.1048 7.39266 11.104 7.45009 11.0911C7.50752 11.0783 7.56197 11.0537 7.61034 11.0187C7.65871 10.9838 7.70004 10.9392 7.73198 10.8875L10.5255 6.36761C10.5575 6.31592 10.5794 6.25813 10.5901 6.19755C10.6008 6.13696 10.6 6.07476 10.5878 6.01449C10.5755 5.95423 10.5521 5.89709 10.5188 5.84633C10.4856 5.79557 10.4431 5.75219 10.3938 5.71867Z" fill="#1A2F45"/>
</svg>
